<svg xmlns="http://www.w3.org/2000/svg" xmlns:xlink="http://www.w3.org/1999/xlink" width="1080" zoomAndPan="magnify" viewBox="0 0 810 809.999993" height="1080" preserveAspectRatio="xMidYMid meet" version="1.0"><defs><clipPath id="id1"><path d="M 142 17 L 616 17 L 616 778.375 L 142 778.375 Z M 142 17 " clip-rule="nonzero"/></clipPath><clipPath id="id2"><path d="M 434 392 L 616.933594 392 L 616.933594 566 L 434 566 Z M 434 392 " clip-rule="nonzero"/></clipPath><clipPath id="id3"><path d="M 142 91 L 545 91 L 545 778.375 L 142 778.375 Z M 142 91 " clip-rule="nonzero"/></clipPath></defs><g clip-path="url(#id1)"><path fill="#ec9ec0" d="M 609.9375 436.714844 C 607.9375 428.699219 604.296875 421.234375 603.386719 413.039062 C 601.746094 412.128906 599.929688 411.214844 598.289062 410.488281 C 600.109375 411.214844 601.746094 412.128906 603.386719 413.039062 C 607.207031 412.492188 608.84375 410.671875 608.480469 407.027344 C 607.9375 401.929688 607.390625 397.011719 606.480469 392.09375 C 604.839844 382.625 602.113281 373.515625 599.199219 364.410156 C 595.925781 353.847656 593.011719 342.921875 588.644531 332.722656 C 585.003906 323.980469 581.183594 315.421875 577.359375 306.859375 C 572.992188 296.84375 568.988281 286.644531 563.710938 277.175781 C 560.800781 271.894531 557.886719 266.613281 554.066406 262.058594 C 551.519531 258.960938 548.605469 255.683594 543.875 255.867188 C 543.691406 257.140625 543.328125 257.871094 542.601562 258.417969 C 543.148438 257.871094 543.691406 257.140625 543.875 255.867188 C 539.871094 247.125 534.773438 238.746094 531.136719 229.824219 C 529.316406 229.640625 527.675781 229.277344 525.859375 229.09375 C 527.496094 229.457031 529.316406 229.640625 531.136719 229.824219 C 531.863281 229.824219 532.773438 229.640625 533.5 229.640625 C 539.144531 230.1875 544.238281 228.546875 548.96875 225.632812 C 551.882812 223.8125 554.792969 221.808594 557.523438 219.804688 C 563.53125 215.433594 566.441406 209.605469 566.441406 202.140625 C 566.441406 197.953125 564.984375 193.945312 563.53125 190.300781 C 562.074219 186.296875 562.074219 182.472656 563.164062 178.644531 C 563.53125 177.007812 564.074219 175.367188 564.804688 173.730469 C 568.625 163.894531 567.898438 154.96875 561.164062 146.410156 C 556.796875 140.945312 556.433594 134.753906 559.527344 128.378906 C 561.164062 125.101562 562.621094 121.824219 563.53125 118.363281 C 566.257812 110.167969 564.257812 102.882812 557.886719 97.054688 C 556.25 95.597656 554.429688 94.140625 552.792969 92.683594 C 547.515625 88.132812 544.421875 82.484375 544.601562 75.382812 C 544.601562 71.375 544.421875 67.371094 543.148438 63.546875 C 539.144531 50.796875 531.863281 46.972656 521.671875 47.152344 C 519.671875 47.152344 517.667969 47.152344 515.667969 47.335938 C 511.480469 47.519531 508.023438 46.0625 504.929688 42.964844 C 502.746094 40.414062 500.5625 38.046875 498.742188 35.132812 C 494.191406 27.667969 489.640625 26.027344 480.359375 27.304688 C 477.449219 27.667969 474.355469 28.394531 471.441406 28.941406 C 466.347656 30.035156 461.980469 28.757812 457.976562 25.664062 C 456.335938 24.390625 454.882812 23.113281 453.425781 21.839844 C 448.511719 18.015625 443.050781 16.738281 436.863281 18.5625 C 431.949219 20.019531 427.765625 22.386719 424.488281 26.210938 C 419.9375 31.671875 414.117188 34.222656 407.382812 35.132812 C 402.832031 35.679688 398.28125 35.679688 394.097656 37.136719 C 386.632812 39.6875 381.175781 44.238281 378.808594 52.070312 C 378.082031 54.4375 377.535156 56.988281 376.988281 59.355469 C 375.898438 63.363281 374.625 67.1875 371.347656 70.101562 C 364.25 70.285156 357.152344 71.375 350.054688 72.285156 C 338.042969 73.925781 326.394531 76.476562 314.75 79.570312 C 304.191406 82.304688 293.820312 85.765625 283.628906 89.042969 C 279.261719 90.5 274.890625 91.957031 270.707031 94.324219 C 267.25 96.328125 266.703125 97.964844 268.523438 101.425781 C 270.707031 105.433594 272.707031 109.441406 274.710938 113.445312 C 275.621094 115.269531 276.347656 117.269531 277.621094 118.910156 C 277.804688 120.730469 277.984375 122.554688 278.351562 124.554688 C 277.984375 125.464844 277.621094 126.558594 277.441406 127.46875 C 276.347656 131.476562 275.257812 135.300781 275.984375 139.488281 C 280.898438 168.082031 288.359375 196.128906 296.550781 223.996094 C 296.914062 237.472656 296.183594 251.132812 297.09375 264.609375 C 297.824219 274.625 297.277344 284.640625 297.277344 294.476562 C 297.460938 295.023438 297.640625 295.386719 298.003906 295.570312 C 297.640625 295.203125 297.460938 294.839844 297.277344 294.476562 C 295.273438 293.382812 293.636719 291.746094 291.453125 291.199219 C 288.722656 290.46875 285.992188 291.015625 286.722656 295.570312 C 287.269531 299.027344 288.90625 301.941406 290.726562 304.855469 C 291.636719 306.3125 293.273438 307.589844 293.457031 309.59375 C 293.457031 309.773438 293.457031 310.140625 293.457031 310.320312 C 293.457031 310.140625 293.457031 309.773438 293.457031 309.410156 C 290.179688 307.769531 286.902344 306.132812 283.628906 304.3125 C 280.898438 302.671875 277.984375 302.308594 274.890625 302.308594 C 272.527344 302.308594 270.886719 303.21875 269.796875 305.402344 C 266.886719 310.320312 264.882812 315.421875 263.972656 320.882812 C 263.0625 326.894531 264.335938 332.175781 269.25 336.363281 C 270.523438 337.457031 271.617188 338.367188 272.890625 339.460938 C 272.890625 340.554688 273.074219 341.644531 273.253906 342.738281 C 271.980469 342.921875 270.707031 342.921875 269.613281 343.101562 C 267.066406 343.46875 264.882812 345.652344 264.519531 347.65625 C 264.15625 350.207031 265.246094 351.664062 268.160156 352.9375 C 269.070312 353.300781 269.980469 353.664062 270.707031 353.847656 C 274.347656 355.121094 277.984375 356.214844 281.445312 358.035156 C 281.625 358.035156 281.808594 358.21875 281.988281 358.21875 C 282.171875 358.21875 282.171875 358.402344 282.355469 358.402344 C 281.988281 358.402344 281.808594 358.21875 281.445312 358.21875 C 279.625 362.042969 278.714844 366.234375 277.621094 370.421875 C 274.710938 381.894531 272.707031 393.550781 272.527344 405.390625 C 272.527344 408.847656 273.4375 411.945312 275.621094 414.675781 C 279.804688 419.957031 285.265625 423.417969 291.273438 426.152344 C 298.1875 429.246094 305.46875 431.066406 312.746094 433.4375 C 317.84375 435.074219 323.300781 436.347656 328.214844 438.898438 C 327.304688 439.082031 326.578125 439.445312 325.667969 439.628906 C 314.203125 442.542969 302.917969 446.183594 291.816406 450.007812 C 286.175781 452.011719 281.808594 455.472656 278.53125 460.207031 C 275.257812 464.941406 272.34375 469.859375 270.34375 475.140625 C 257.421875 505.191406 247.410156 536.699219 238.675781 568.753906 C 230.121094 600.257812 222.660156 632.132812 213.199219 663.457031 C 210.832031 671.105469 208.101562 678.390625 203.734375 685.3125 C 195.179688 698.96875 186.261719 712.265625 177.34375 725.742188 C 172.613281 732.84375 167.335938 739.21875 160.601562 744.320312 C 157.144531 747.050781 153.6875 749.78125 150.59375 752.878906 C 146.40625 756.886719 143.3125 761.621094 142.402344 767.628906 C 141.3125 774.734375 144.40625 778.375 151.503906 778.375 C 152.59375 778.375 153.6875 778.191406 154.597656 778.191406 C 161.875 777.464844 168.792969 775.097656 176.070312 774.1875 C 182.988281 773.277344 188.628906 770.179688 193.542969 765.261719 C 197.546875 761.253906 201.367188 757.429688 205.371094 753.425781 C 213.199219 745.230469 222.660156 739.949219 233.761719 737.214844 C 240.132812 735.757812 246.320312 734.121094 252.507812 731.933594 C 259.96875 729.382812 264.882812 724.101562 266.703125 716.453125 C 269.433594 705.527344 266.519531 695.328125 260.695312 686.039062 C 259.789062 684.582031 258.695312 683.308594 257.785156 681.851562 C 258.148438 680.941406 258.511719 680.03125 258.878906 679.117188 C 260.152344 676.75 261.425781 674.382812 262.882812 672.199219 C 280.714844 642.511719 298.371094 612.828125 308.5625 579.496094 C 308.742188 578.585938 308.925781 577.496094 310.199219 577.496094 C 311.472656 578.222656 311.65625 579.679688 312.199219 580.773438 C 313.292969 583.503906 314.382812 586.234375 315.476562 588.785156 C 305.648438 598.4375 315.476562 606.632812 315.476562 606.632812 C 315.476562 606.632812 323.484375 615.921875 355.695312 617.015625 C 387.910156 618.109375 408.65625 597.890625 411.023438 593.519531 C 416.480469 583.6875 403.742188 579.316406 403.742188 579.316406 C 402.285156 575.855469 400.828125 572.394531 399.191406 568.933594 C 399.554688 568.753906 399.921875 568.570312 400.285156 568.386719 C 400.285156 568.386719 400.285156 568.386719 400.285156 568.207031 C 403.195312 568.753906 406.289062 569.480469 409.203125 570.027344 C 417.9375 571.667969 426.855469 571.667969 435.773438 572.03125 C 450.148438 572.578125 464.527344 572.941406 478.722656 571.667969 C 492.371094 570.574219 505.839844 569.300781 519.304688 566.75 C 527.859375 565.109375 536.414062 563.289062 544.421875 559.644531 C 547.695312 561.285156 550.972656 563.105469 554.429688 564.5625 C 556.613281 565.472656 558.433594 565.292969 560.253906 564.015625 C 563.347656 561.832031 566.257812 559.648438 568.988281 557.277344 C 583.183594 544.53125 594.648438 529.777344 604.296875 513.386719 C 611.394531 501.367188 615.214844 488.4375 615.398438 474.414062 C 615.941406 461.484375 613.214844 449.097656 609.9375 436.714844 Z M 146.042969 761.253906 C 148.042969 759.253906 150.410156 759.070312 152.59375 758.160156 C 150.59375 759.070312 148.226562 759.253906 146.042969 761.253906 Z M 148.410156 768.359375 C 148.773438 767.996094 150.59375 766.902344 152.777344 765.808594 C 150.59375 766.902344 148.773438 767.996094 148.410156 768.359375 Z M 152.957031 753.789062 C 154.960938 750.144531 158.054688 749.964844 160.238281 749.054688 C 158.054688 749.964844 154.960938 750.144531 152.957031 753.789062 C 158.601562 753.242188 162.785156 750.875 166.972656 749.054688 C 162.785156 750.875 158.78125 753.242188 152.957031 753.789062 Z M 246.683594 675.292969 C 248.867188 672.199219 249.597656 668.554688 250.324219 664.914062 C 249.597656 668.554688 248.867188 672.199219 246.683594 675.292969 Z M 268.886719 311.414062 C 268.339844 311.414062 267.792969 311.597656 267.429688 312.507812 C 269.070312 315.785156 272.527344 317.058594 275.621094 318.515625 C 272.527344 317.058594 269.25 315.785156 267.429688 312.507812 C 267.792969 311.597656 268.339844 311.414062 268.886719 311.414062 Z M 265.246094 326.164062 C 266.15625 328.351562 268.339844 330.355469 272.34375 332.359375 C 268.339844 330.355469 265.976562 328.351562 265.246094 326.164062 Z M 266.15625 325.800781 C 265.976562 325.800781 265.792969 325.800781 265.609375 325.984375 C 265.976562 325.800781 266.15625 325.800781 266.15625 325.800781 Z M 266.15625 325.800781 " fill-opacity="1" fill-rule="nonzero"/></g><g clip-path="url(#id2)"><path fill="#4b0372" d="M 544.601562 559.644531 C 541.144531 556.550781 536.960938 555.09375 533.136719 552.90625 C 527.3125 549.628906 521.855469 545.804688 516.757812 541.253906 C 517.484375 540.160156 518.761719 539.796875 520.035156 539.613281 C 521.125 540.886719 522.21875 542.34375 524.21875 542.164062 C 524.039062 543.253906 524.949219 543.621094 525.859375 543.800781 C 526.222656 544.347656 526.769531 544.53125 527.496094 544.53125 C 527.675781 544.710938 528.042969 545.078125 528.222656 545.441406 C 528.769531 545.621094 529.316406 545.988281 529.863281 546.167969 L 530.042969 546.167969 L 529.863281 546.167969 C 529.316406 545.988281 528.769531 545.621094 528.222656 545.441406 C 528.042969 545.257812 527.675781 544.894531 527.496094 544.53125 C 527.132812 543.800781 526.585938 543.800781 525.859375 543.800781 C 525.859375 542.707031 525.128906 542.34375 524.21875 542.164062 C 523.128906 540.886719 522.21875 539.796875 521.308594 538.519531 C 534.410156 531.964844 546.242188 523.402344 557.523438 513.933594 C 564.984375 507.558594 572.449219 501.003906 579.363281 494.265625 C 580.089844 493.535156 581.183594 492.625 580.089844 491.53125 C 579.179688 490.441406 578.089844 491.351562 577.359375 491.898438 C 576.816406 492.441406 576.269531 492.988281 575.542969 493.535156 C 571.355469 497.179688 567.351562 501.003906 562.984375 504.644531 C 549.152344 516.847656 534.410156 527.957031 518.03125 536.699219 C 514.574219 538.519531 511.117188 540.707031 507.839844 542.890625 C 506.203125 543.984375 504.382812 544.894531 503.289062 546.714844 C 496.375 549.082031 497.285156 549.992188 492.007812 543.984375 C 486.910156 538.15625 481.996094 532.144531 476.902344 526.136719 C 477.628906 524.132812 476.175781 523.585938 474.535156 523.222656 C 466.710938 512.292969 459.25 501.183594 452.878906 489.347656 C 444.871094 474.230469 439.957031 458.203125 437.046875 441.449219 C 436.316406 437.078125 435.589844 432.890625 435.042969 428.519531 C 434.679688 426.152344 434.5 423.78125 435.773438 421.234375 C 441.414062 422.324219 446.875 422.691406 452.332031 422.507812 C 462.34375 421.960938 470.167969 417.957031 475.445312 409.03125 C 477.265625 406.117188 478.539062 402.839844 479.632812 399.5625 C 480.359375 397.375 481.089844 395.007812 481.996094 392.824219 C 485.636719 393.003906 489.09375 393.003906 492.734375 393.1875 C 502.382812 394.097656 512.027344 395.191406 521.671875 396.101562 C 527.675781 396.648438 533.5 397.191406 539.507812 397.921875 C 551.882812 399.5625 564.074219 401.746094 576.269531 404.113281 C 585.734375 405.933594 595.195312 408.304688 603.75 413.039062 C 604.660156 421.234375 608.300781 428.882812 610.300781 436.714844 C 613.578125 449.097656 616.308594 461.484375 616.125 474.414062 C 615.941406 488.4375 612.121094 501.367188 605.023438 513.386719 C 595.378906 529.777344 583.914062 544.53125 569.71875 557.277344 C 566.988281 559.828125 563.894531 562.015625 560.980469 564.015625 C 558.980469 565.472656 557.160156 565.472656 555.160156 564.5625 C 551.15625 563.105469 547.878906 561.285156 544.601562 559.644531 Z M 544.601562 559.644531 " fill-opacity="1" fill-rule="nonzero"/></g><g clip-path="url(#id3)"><path fill="#ae774d" d="M 406.835938 194.125 C 414.480469 203.234375 425.945312 205.601562 435.953125 201.59375 C 437.410156 201.046875 438.683594 199.953125 440.6875 200.5 C 442.324219 205.78125 443.960938 211.0625 445.601562 216.347656 C 446.144531 217.984375 446.144531 220.171875 448.148438 221.261719 C 450.878906 219.441406 453.0625 217.257812 455.246094 215.070312 C 457.066406 213.433594 458.703125 211.792969 460.886719 210.882812 C 463.070312 207.238281 466.347656 204.507812 469.988281 202.503906 C 471.441406 203.960938 470.714844 204.691406 469.804688 205.417969 C 467.800781 207.058594 465.4375 208.332031 463.800781 210.335938 C 467.984375 210.335938 471.988281 210.882812 475.992188 211.792969 C 490.003906 215.070312 501.472656 222.71875 512.027344 232.007812 C 520.214844 239.476562 527.859375 247.488281 533.867188 256.777344 C 534.957031 258.597656 536.414062 259.507812 538.597656 258.960938 C 540.78125 258.414062 543.511719 258.414062 543.875 255.136719 C 539.871094 246.394531 534.773438 238.019531 531.136719 229.09375 C 522.765625 228.183594 514.9375 225.816406 508.203125 220.898438 C 502.015625 216.527344 496.921875 211.0625 496.375 202.867188 C 496.375 201.777344 496.011719 200.683594 496.191406 199.773438 C 496.558594 192.304688 492.1875 188.117188 485.089844 186.476562 C 482.726562 185.929688 480.359375 185.566406 478.175781 184.839844 C 472.714844 182.835938 470.53125 178.101562 472.714844 172.636719 C 473.445312 170.816406 474.535156 169.359375 475.808594 168.082031 C 478.539062 165.351562 481.816406 163.164062 484.910156 160.980469 C 491.824219 156.0625 493.644531 148.050781 491.28125 140.765625 C 489.09375 134.207031 482.363281 132.75 477.449219 137.488281 C 476.71875 138.214844 475.992188 139.125 475.445312 139.855469 C 473.445312 142.585938 470.714844 143.316406 467.800781 141.675781 C 462.34375 138.578125 460.886719 134.753906 462.160156 129.835938 C 462.523438 128.199219 463.070312 126.742188 463.433594 125.285156 C 464.707031 120.003906 462.890625 115.8125 457.429688 114.539062 C 451.789062 113.082031 448.148438 110.351562 446.875 104.703125 C 446.875 104.523438 446.691406 104.160156 446.507812 103.976562 C 443.960938 98.695312 439.230469 95.960938 433.40625 97.238281 C 429.765625 98.148438 426.855469 97.238281 424.125 95.050781 C 418.484375 90.679688 413.933594 89.40625 407.746094 95.960938 C 407.019531 96.691406 406.109375 97.417969 405.378906 97.964844 C 404.289062 98.875 402.832031 99.421875 401.375 99.421875 C 397.554688 99.058594 395.550781 101.246094 394.097656 104.523438 C 392.457031 108.527344 391.367188 112.535156 390.457031 116.726562 C 389.183594 123.097656 389.363281 129.65625 388.089844 136.03125 C 388.089844 138.945312 388.089844 141.859375 388.089844 144.773438 C 388.089844 150.964844 388.820312 156.972656 390.273438 162.800781 C 393.1875 174.820312 399.011719 185.019531 406.835938 194.125 Z M 400.285156 171.542969 C 396.097656 171.542969 392.457031 167.902344 392.457031 163.710938 C 392.457031 159.523438 396.644531 155.515625 401.195312 155.515625 C 405.5625 155.515625 408.292969 158.25 408.292969 162.4375 C 408.109375 167.355469 404.652344 171.542969 400.285156 171.542969 Z M 460.523438 176.277344 C 461.796875 177.1875 461.796875 178.101562 461.25 178.644531 C 457.246094 184.472656 452.878906 190.121094 447.054688 194.308594 C 452.152344 188.664062 454.882812 181.378906 460.523438 176.277344 Z M 447.964844 145.863281 C 451.605469 145.683594 456.703125 148.597656 456.703125 153.878906 C 456.703125 158.613281 453.425781 164.441406 446.691406 164.621094 C 441.777344 164.621094 437.957031 160.796875 437.773438 155.882812 C 437.59375 150.597656 442.324219 146.230469 447.964844 145.863281 Z M 445.601562 137.488281 C 445.054688 140.945312 443.414062 143.679688 440.320312 145.683594 C 437.226562 147.6875 433.769531 148.050781 430.3125 147.320312 C 425.761719 146.410156 423.941406 143.679688 423.761719 138.214844 C 425.398438 137.488281 425.761719 138.578125 426.308594 139.671875 C 429.039062 144.226562 434.5 145.5 438.867188 142.402344 C 440.503906 141.3125 441.597656 139.855469 441.960938 138.03125 C 441.960938 137.667969 442.140625 137.304688 442.140625 136.757812 C 442.140625 135.664062 442.507812 134.574219 443.960938 134.753906 C 446.144531 134.9375 445.78125 136.394531 445.601562 137.488281 Z M 429.402344 115.632812 C 435.589844 114.175781 442.140625 116.726562 444.507812 121.640625 C 444.144531 122.734375 443.234375 122.734375 442.324219 122.550781 C 441.960938 122.550781 441.597656 122.371094 441.230469 122.007812 C 435.226562 117.269531 428.855469 118.183594 422.667969 121.640625 C 422.488281 121.640625 422.304688 121.640625 421.941406 121.640625 C 422.121094 118.726562 424.308594 116.90625 429.402344 115.632812 Z M 413.386719 137.851562 C 415.390625 146.230469 414.84375 154.789062 416.480469 162.984375 C 418.121094 164.441406 420.847656 162.4375 422.304688 164.988281 C 420.667969 167.71875 417.9375 166.625 415.570312 166.625 C 413.75 166.625 413.75 164.804688 413.386719 163.347656 C 411.929688 155.515625 412.113281 147.503906 411.566406 139.671875 C 411.566406 138.945312 411.929688 138.398438 413.386719 137.851562 Z M 415.753906 179.738281 C 418.664062 175.367188 425.582031 173.546875 430.496094 175.734375 C 431.585938 176.097656 432.496094 176.824219 433.589844 177.371094 C 435.589844 177.371094 436.863281 175.914062 438.503906 175.003906 C 439.414062 174.457031 440.503906 173.730469 441.230469 174.820312 C 442.140625 176.277344 440.867188 177.007812 439.957031 177.554688 C 438.136719 178.644531 436.316406 179.558594 434.5 180.46875 C 433.589844 184.839844 429.402344 187.753906 424.488281 187.386719 C 421.214844 187.023438 418.300781 186.113281 416.480469 183.015625 C 414.117188 182.472656 411.566406 182.105469 409.566406 180.101562 C 411.75 177.917969 413.75 180.285156 415.753906 179.738281 Z M 406.289062 145.683594 C 406.835938 144.226562 406.109375 142.402344 407.925781 141.492188 C 408.65625 141.492188 409.203125 141.859375 409.382812 142.585938 C 409.929688 144.773438 409.019531 146.773438 408.109375 148.597656 C 406.652344 151.691406 402.648438 153.511719 399.375 152.421875 C 395.550781 151.328125 393.734375 148.414062 394.097656 144.226562 C 395.917969 144.40625 396.097656 145.863281 396.644531 146.773438 C 397.917969 148.960938 399.738281 149.324219 402.105469 149.144531 C 404.652344 149.144531 405.5625 147.503906 406.289062 145.683594 Z M 401.921875 123.097656 C 402.648438 123.644531 402.832031 124.738281 402.105469 125.101562 C 397.734375 127.652344 395.007812 131.660156 392.277344 135.664062 C 392.09375 135.847656 391.914062 135.847656 391.367188 136.210938 C 389.546875 130.929688 395.734375 123.464844 401.921875 123.097656 Z M 532.957031 552.726562 C 527.132812 549.449219 521.671875 545.621094 516.578125 541.070312 C 512.753906 542.34375 509.660156 544.894531 506.019531 546.535156 C 505.109375 546.898438 504.019531 548.171875 502.925781 546.535156 C 496.011719 548.902344 496.921875 549.8125 491.644531 543.800781 C 486.546875 537.972656 481.632812 531.964844 476.539062 525.953125 C 471.988281 526.683594 467.4375 525.589844 463.070312 525.042969 C 456.882812 524.132812 450.695312 523.585938 444.507812 522.859375 C 436.683594 521.945312 429.039062 520.671875 421.214844 519.398438 C 407.746094 517.394531 394.640625 514.480469 381.355469 511.75 C 373.53125 510.109375 365.886719 508.105469 358.246094 505.738281 C 351.875 503.734375 345.6875 501.550781 339.316406 499.363281 C 337.132812 498.636719 335.132812 498.453125 332.765625 499.363281 C 320.027344 504.28125 312.199219 513.75 308.742188 526.683594 C 306.558594 535.242188 305.832031 543.800781 306.921875 552.726562 C 307.652344 559.464844 308.5625 566.203125 310.199219 572.757812 C 310.378906 573.851562 310.746094 575.125 310.015625 576.21875 C 308.925781 576.765625 308.378906 576.21875 308.015625 575.125 C 306.558594 571.121094 305.648438 566.929688 304.921875 562.742188 C 303.648438 555.640625 302.917969 548.535156 303.28125 541.253906 C 303.828125 529.960938 306.375 519.214844 313.292969 509.925781 C 318.386719 503.1875 324.757812 498.636719 332.765625 496.269531 C 334.585938 495.722656 336.40625 495.902344 338.226562 496.449219 C 345.324219 498.636719 352.421875 500.640625 359.699219 502.824219 C 373.347656 506.832031 387.363281 509.5625 401.195312 512.113281 C 411.566406 514.117188 421.941406 515.574219 432.132812 517.210938 C 438.867188 518.304688 445.78125 519.214844 452.699219 519.945312 C 458.519531 520.488281 464.164062 521.945312 469.988281 522.859375 C 471.261719 523.039062 472.535156 523.222656 473.992188 523.222656 C 466.164062 512.292969 458.703125 501.183594 452.332031 489.347656 C 444.324219 474.230469 439.414062 458.203125 436.5 441.449219 C 435.773438 437.078125 435.042969 432.890625 434.5 428.519531 C 434.132812 426.152344 433.953125 423.78125 435.042969 421.234375 C 440.503906 422.324219 446.144531 422.691406 451.605469 422.507812 C 461.613281 421.960938 469.441406 417.957031 474.71875 409.03125 C 476.539062 406.117188 477.8125 402.839844 478.902344 399.5625 C 479.632812 397.375 480.359375 395.007812 481.269531 392.824219 C 481.816406 388.996094 482.542969 385.171875 483.089844 381.53125 C 483.636719 377.886719 484.183594 374.246094 484.363281 370.421875 C 484.726562 363.5 484.726562 356.578125 485.273438 349.660156 C 486.367188 336.730469 486 323.617188 486 310.683594 C 486 310.140625 486 309.410156 486 308.863281 C 485.820312 303.765625 485.820312 298.847656 485.636719 293.746094 C 483.089844 284.824219 483.636719 273.53125 486.910156 269.890625 C 488.003906 272.621094 487.277344 275.171875 487.277344 277.722656 C 487.277344 280.089844 486.183594 282.636719 486.910156 285.1875 C 489.09375 282.273438 489.640625 278.449219 491.824219 275.71875 C 494.191406 276.265625 493.828125 277.539062 493.28125 278.996094 C 491.824219 282.273438 490.371094 285.550781 488.914062 288.832031 C 492.917969 288.285156 496.375 286.097656 500.015625 284.640625 C 507.660156 281.179688 514.9375 277.175781 521.855469 272.257812 C 523.855469 270.800781 525.675781 268.980469 527.496094 266.976562 C 523.128906 257.324219 517.667969 248.582031 509.113281 242.390625 C 501.835938 237.109375 494.375 232.007812 486.183594 228 C 475.808594 223.085938 464.890625 221.628906 453.609375 221.992188 C 451.605469 221.992188 449.785156 223.085938 447.785156 222.902344 C 447.785156 223.449219 447.417969 223.628906 447.054688 223.8125 C 440.867188 227.636719 436.863281 233.101562 433.953125 239.839844 C 430.675781 247.851562 427.035156 255.683594 425.761719 264.242188 C 425.21875 267.523438 424.671875 270.800781 424.488281 274.078125 C 424.308594 278.8125 423.398438 283.550781 423.578125 288.464844 C 424.125 297.574219 424.671875 306.679688 425.761719 315.785156 C 426.671875 323.980469 427.765625 331.992188 428.492188 340.1875 C 429.222656 348.566406 429.949219 356.761719 430.128906 365.140625 C 431.949219 365.320312 432.132812 366.414062 432.316406 367.871094 C 432.859375 374.792969 433.40625 381.53125 434.5 388.269531 C 434.679688 389.363281 434.5 390.453125 433.222656 391.183594 C 430.859375 390.636719 431.039062 388.632812 430.859375 386.8125 C 430.496094 382.257812 430.128906 377.523438 429.949219 372.972656 C 424.851562 371.878906 420.304688 369.511719 415.390625 367.507812 C 399.554688 361.132812 383.722656 354.578125 367.890625 348.019531 C 360.0625 344.742188 352.421875 341.097656 344.777344 337.09375 C 343.320312 336.363281 342.230469 335.273438 341.5 333.632812 C 337.863281 325.074219 331.308594 319.425781 323.847656 314.144531 C 315.292969 307.953125 307.105469 301.578125 298.1875 295.933594 C 297.460938 295.386719 296.550781 295.023438 296.183594 293.929688 C 294.183594 292.835938 292.546875 291.199219 290.363281 290.652344 C 287.632812 289.921875 284.902344 290.46875 285.628906 295.023438 C 286.175781 298.484375 287.8125 301.398438 289.632812 304.3125 C 290.542969 305.769531 292.363281 307.042969 292.363281 309.046875 C 299.28125 311.960938 306.742188 313.597656 313.65625 316.695312 C 315.476562 317.605469 317.113281 318.515625 318.933594 319.425781 C 319.480469 319.792969 320.027344 320.15625 319.84375 321.066406 C 319.480469 321.429688 318.933594 321.613281 318.386719 321.429688 C 310.925781 317.058594 302.375 315.054688 294.546875 311.777344 C 293.457031 311.230469 292 310.867188 292.363281 309.046875 C 289.085938 307.40625 285.8125 305.769531 282.535156 303.945312 C 279.804688 302.308594 276.894531 301.941406 273.800781 301.941406 C 271.433594 301.941406 269.796875 302.855469 268.703125 305.039062 C 265.792969 309.957031 263.792969 315.054688 262.882812 320.519531 C 261.972656 326.53125 263.246094 331.8125 268.160156 336 C 270.34375 337.820312 272.34375 339.460938 274.527344 341.464844 C 272.527344 342.738281 270.34375 342.375 268.339844 342.738281 C 265.792969 343.101562 263.609375 345.289062 263.246094 347.292969 C 262.882812 349.839844 263.972656 351.296875 266.886719 352.574219 C 267.792969 352.9375 268.703125 353.300781 269.433594 353.484375 C 273.074219 354.757812 276.710938 355.851562 280.171875 357.671875 C 291.089844 361.132812 302.375 364.230469 313.472656 366.777344 C 314.75 367.144531 316.023438 367.507812 317.296875 367.507812 C 325.484375 368.054688 332.21875 372.425781 339.136719 376.429688 C 350.417969 383.167969 362.429688 388.453125 374.257812 394.277344 C 386.089844 400.105469 398.101562 405.570312 409.929688 411.398438 C 415.933594 414.3125 422.125 416.679688 428.3125 419.046875 C 429.039062 419.230469 429.949219 419.414062 430.128906 420.503906 C 415.753906 421.78125 401.738281 425.238281 387.542969 427.609375 C 376.625 429.429688 365.707031 430.886719 354.96875 432.707031 C 346.597656 434.164062 338.226562 434.890625 330.21875 437.988281 C 329.125 438.351562 328.214844 438.351562 327.125 438.171875 C 326.214844 438.535156 325.304688 438.71875 324.394531 438.898438 C 312.929688 441.8125 301.644531 445.457031 290.542969 449.28125 C 284.902344 451.285156 280.535156 454.742188 277.257812 459.480469 C 273.984375 464.214844 271.070312 469.132812 269.070312 474.414062 C 257.421875 505.191406 247.410156 536.699219 238.675781 568.753906 C 230.121094 600.257812 222.660156 632.132812 213.199219 663.457031 C 210.832031 671.105469 208.101562 678.390625 203.734375 685.3125 C 195.179688 698.96875 186.261719 712.265625 177.34375 725.742188 C 172.613281 732.84375 167.335938 739.21875 160.601562 744.320312 C 157.144531 747.050781 153.6875 749.78125 150.59375 752.878906 C 146.40625 756.886719 143.3125 761.621094 142.402344 767.628906 C 141.3125 774.734375 144.40625 778.375 151.503906 778.375 C 152.59375 778.375 153.6875 778.191406 154.597656 778.191406 C 161.875 777.464844 168.792969 775.097656 176.070312 774.1875 C 182.988281 773.277344 188.628906 770.179688 193.542969 765.261719 C 197.546875 761.253906 201.367188 757.429688 205.371094 753.425781 C 213.199219 745.230469 222.660156 739.949219 233.761719 737.214844 C 240.132812 735.757812 246.320312 734.121094 252.507812 731.933594 C 259.96875 729.382812 264.882812 724.101562 266.703125 716.453125 C 269.433594 705.527344 266.519531 695.328125 260.695312 686.039062 C 259.789062 684.582031 258.695312 683.308594 257.785156 681.851562 C 258.148438 680.941406 258.511719 680.03125 258.878906 679.117188 C 260.152344 676.75 261.425781 674.382812 262.882812 672.199219 C 280.714844 642.511719 298.371094 612.828125 308.5625 579.496094 C 308.742188 578.585938 308.925781 577.496094 310.199219 577.496094 C 311.472656 578.222656 311.65625 579.679688 312.199219 580.773438 C 313.65625 584.414062 315.113281 587.875 316.566406 591.519531 C 317.84375 591.335938 319.296875 591.699219 320.753906 592.792969 C 344.957031 611.003906 385.542969 608.089844 404.289062 583.140625 C 404.46875 582.777344 404.832031 582.59375 405.015625 582.230469 C 403.195312 577.675781 401.375 573.304688 399.375 568.933594 C 390.820312 567.113281 381.902344 565.839844 373.714844 562.378906 C 374.625 560.375 375.535156 560.738281 376.441406 560.921875 C 382.8125 562.195312 389.183594 563.472656 395.371094 564.929688 C 397.371094 565.472656 400.285156 565.109375 400.464844 568.386719 C 403.378906 568.933594 406.472656 569.664062 409.382812 570.210938 C 418.121094 571.847656 427.035156 571.847656 435.953125 572.214844 C 450.332031 572.757812 464.707031 573.125 478.902344 571.847656 C 492.554688 570.757812 506.019531 569.480469 519.488281 566.929688 C 528.042969 565.292969 536.59375 563.472656 544.601562 559.828125 C 541.144531 556.550781 536.960938 554.910156 532.957031 552.726562 Z M 279.078125 335.089844 C 270.707031 332.175781 266.519531 329.261719 265.246094 326.164062 C 266.15625 325.621094 266.703125 325.800781 267.066406 325.984375 C 273.074219 330.171875 279.988281 331.992188 286.902344 333.996094 C 288.359375 334.359375 290.542969 334.359375 290.726562 337.273438 C 286.359375 338.367188 282.71875 336.363281 279.078125 335.089844 Z M 276.347656 318.878906 C 273.074219 317.242188 269.25 315.964844 267.429688 312.507812 C 268.160156 311.230469 269.070312 311.230469 269.613281 311.777344 C 274.710938 316.695312 281.261719 317.789062 287.632812 319.972656 C 289.085938 320.519531 290.90625 320.335938 291.453125 322.707031 C 287.996094 323.617188 283.992188 322.707031 276.347656 318.878906 Z M 164.789062 762.347656 C 160.054688 765.625 155.140625 768.359375 149.320312 768.90625 C 149.136719 768.90625 148.953125 768.722656 148.410156 768.359375 C 149.5 767.082031 162.238281 761.074219 164.605469 760.34375 C 165.515625 760.890625 165.515625 761.984375 164.789062 762.347656 Z M 165.699219 755.0625 C 165.332031 755.429688 164.789062 755.609375 164.425781 755.972656 C 160.054688 758.707031 155.324219 760.34375 150.59375 761.800781 C 149.320312 762.167969 148.042969 762.167969 146.226562 761.4375 C 148.226562 759.433594 150.59375 759.253906 152.777344 758.34375 C 156.417969 756.703125 160.238281 755.429688 163.515625 753.242188 C 163.695312 753.058594 163.878906 752.878906 164.242188 752.878906 C 165.152344 752.515625 166.0625 752.148438 166.609375 753.242188 C 166.972656 753.789062 166.425781 754.515625 165.699219 755.0625 Z M 167.152344 749.054688 C 162.785156 750.875 158.78125 753.425781 153.140625 753.789062 C 155.140625 750.144531 158.238281 749.964844 160.421875 749.054688 C 162.785156 747.960938 165.152344 745.957031 168.0625 747.050781 C 168.429688 748.144531 167.882812 748.6875 167.152344 749.054688 Z M 250.503906 662.910156 C 249.777344 667.28125 249.050781 671.46875 246.683594 675.113281 C 245.226562 674.566406 245.046875 673.835938 245.226562 672.925781 C 246.136719 667.644531 247.957031 662.726562 248.320312 656.71875 C 251.050781 658.722656 250.871094 661.089844 250.503906 662.910156 Z M 275.800781 138.945312 C 275.074219 134.753906 276.167969 130.75 277.257812 126.921875 C 277.804688 124.738281 278.714844 122.734375 279.441406 120.550781 C 282.355469 113.992188 285.628906 107.800781 289.632812 101.789062 C 290.726562 100.332031 291.636719 98.695312 293.636719 98.148438 C 300.917969 95.960938 308.015625 93.59375 315.660156 93.414062 C 319.664062 93.230469 320.027344 93.59375 321.300781 97.785156 C 317.476562 99.058594 314.019531 101.0625 310.746094 103.429688 C 302.007812 109.804688 294.730469 117.816406 288.179688 126.378906 C 287.085938 127.835938 285.628906 129.292969 285.449219 131.292969 C 287.085938 132.023438 287.632812 130.929688 288.359375 130.203125 C 289.996094 128.378906 291.453125 126.195312 293.273438 124.375 C 302.191406 115.085938 310.5625 105.070312 322.574219 99.789062 C 323.121094 101.0625 323.664062 102.335938 324.394531 103.613281 C 325.484375 105.980469 325.304688 107.800781 323.121094 109.441406 C 320.9375 109.074219 319.296875 110.351562 317.660156 111.441406 C 312.566406 115.085938 307.46875 119.09375 303.28125 123.828125 C 299.824219 127.835938 296.914062 132.386719 294.730469 137.121094 C 294.183594 138.398438 293.457031 139.671875 294.730469 140.945312 C 296.730469 140.402344 297.277344 138.761719 297.824219 137.488281 C 302.738281 126.558594 311.289062 118.910156 320.9375 112.355469 C 323.484375 115.085938 323.664062 115.996094 321.847656 119.273438 C 317.84375 126.921875 312.746094 133.84375 307.652344 140.765625 C 305.101562 144.042969 302.738281 147.320312 300.371094 150.597656 C 299.460938 151.875 298.914062 153.332031 299.097656 154.96875 C 300.1875 163.894531 300.007812 173 299.097656 181.925781 C 298.734375 185.929688 298.550781 189.757812 298.1875 193.761719 C 297.460938 201.410156 297.09375 209.0625 296.730469 216.710938 C 296.730469 218.894531 297.824219 221.082031 296.550781 223.265625 C 288.359375 195.582031 280.714844 167.535156 275.800781 138.945312 Z M 529.496094 546.167969 C 528.953125 545.988281 528.40625 545.621094 527.859375 545.441406 C 528.40625 545.621094 528.953125 545.988281 529.496094 546.167969 Z M 528.042969 545.441406 C 527.859375 545.257812 527.496094 544.894531 527.3125 544.53125 C 527.3125 544.894531 527.675781 545.078125 528.042969 545.441406 C 527.859375 545.441406 528.042969 545.441406 528.042969 545.441406 Z M 529.496094 546.167969 Z M 529.496094 546.167969 " fill-opacity="1" fill-rule="nonzero"/></g><path fill="#987da6" d="M 447.238281 223.628906 C 441.050781 227.457031 437.046875 232.917969 434.132812 239.65625 C 430.859375 247.671875 427.21875 255.503906 425.945312 264.0625 C 425.398438 267.339844 424.851562 270.617188 424.851562 273.894531 C 424.671875 278.632812 423.761719 283.367188 424.125 288.285156 C 424.671875 297.390625 425.21875 306.496094 426.308594 315.601562 C 427.21875 323.796875 428.3125 331.8125 429.039062 340.007812 C 429.765625 348.382812 430.496094 356.578125 430.675781 364.957031 C 430.496094 367.507812 430.496094 370.238281 430.3125 372.972656 C 425.21875 371.878906 420.667969 369.511719 415.753906 367.507812 C 399.921875 361.132812 384.085938 354.578125 368.253906 348.019531 C 360.429688 344.742188 352.785156 340.917969 345.140625 337.09375 C 343.683594 336.363281 342.59375 335.089844 341.863281 333.632812 C 338.226562 325.074219 331.671875 319.425781 324.210938 314.144531 C 315.660156 307.953125 307.46875 301.578125 298.550781 295.933594 C 297.824219 295.386719 296.914062 295.023438 296.550781 293.929688 C 296.550781 283.914062 297.09375 273.894531 296.367188 264.0625 C 295.457031 250.585938 296.183594 236.925781 295.820312 223.449219 C 297.09375 221.261719 296.003906 219.078125 296.003906 216.890625 C 296.367188 209.242188 296.730469 201.59375 297.460938 193.945312 C 297.824219 189.9375 298.003906 186.113281 298.371094 182.105469 C 299.277344 173.183594 299.460938 164.078125 298.371094 155.152344 C 298.1875 153.511719 298.550781 152.054688 299.644531 150.78125 C 302.191406 147.503906 304.558594 144.226562 306.921875 140.945312 C 312.019531 134.027344 317.113281 127.105469 321.117188 119.457031 C 322.9375 115.996094 322.757812 115.269531 320.207031 112.535156 C 320.9375 111.625 322.390625 111.078125 322.390625 109.621094 C 324.574219 108.164062 324.757812 106.160156 323.664062 103.792969 C 323.121094 102.519531 322.390625 101.246094 321.847656 99.96875 C 321.847656 99.058594 321.480469 98.332031 320.570312 97.964844 C 319.296875 93.59375 318.933594 93.414062 314.929688 93.59375 C 307.285156 93.777344 300.1875 96.328125 292.910156 98.332031 C 290.90625 98.875 289.996094 100.515625 288.90625 101.972656 C 284.902344 107.800781 281.625 114.175781 278.714844 120.730469 C 276.347656 118.726562 275.257812 115.8125 273.984375 113.082031 C 271.980469 109.074219 269.980469 105.070312 267.792969 101.0625 C 265.976562 97.601562 266.519531 95.960938 269.980469 93.960938 C 273.984375 91.773438 278.351562 90.136719 282.898438 88.679688 C 293.273438 85.21875 303.464844 81.9375 314.019531 79.207031 C 325.667969 76.113281 337.496094 73.5625 349.328125 71.921875 C 356.425781 71.011719 363.523438 69.917969 370.621094 69.738281 C 370.4375 70.828125 370.621094 71.921875 369.164062 72.285156 C 367.707031 72.652344 366.980469 73.742188 366.070312 74.65625 C 361.339844 79.570312 359.152344 85.398438 360.0625 92.320312 C 361.339844 102.882812 364.976562 111.808594 374.988281 116.90625 C 377.535156 118.183594 378.628906 120.183594 378.808594 122.917969 C 378.992188 124.921875 379.171875 126.921875 379.539062 128.746094 C 380.445312 133.480469 382.996094 135.664062 387.363281 136.210938 C 387.363281 139.125 387.363281 142.039062 387.363281 144.953125 C 387.363281 151.144531 388.089844 157.15625 389.546875 162.984375 C 392.457031 174.640625 398.28125 184.839844 406.109375 193.945312 C 413.75 203.050781 425.21875 205.417969 435.226562 201.410156 C 436.683594 200.867188 437.957031 199.773438 439.957031 200.320312 C 441.597656 205.601562 443.234375 210.882812 444.871094 216.164062 C 445.417969 217.800781 445.417969 219.988281 447.417969 221.082031 C 447.417969 221.628906 447.417969 222.171875 447.601562 222.539062 C 447.785156 222.902344 447.601562 223.265625 447.238281 223.628906 Z M 324.210938 92.503906 C 324.03125 89.953125 324.210938 87.222656 324.574219 84.308594 C 321.664062 86.492188 321.480469 89.953125 324.210938 92.503906 C 325.851562 93.050781 323.300781 95.234375 325.484375 95.597656 C 326.578125 93.59375 327.488281 91.410156 328.578125 89.222656 C 329.488281 87.222656 331.492188 85.582031 332.039062 83.394531 C 330.582031 82.851562 330.035156 83.761719 329.671875 84.488281 C 328.398438 86.492188 327.125 88.496094 325.851562 90.5 C 325.484375 91.410156 325.484375 92.683594 324.210938 92.503906 Z M 416.84375 210.152344 C 408.65625 209.605469 377.171875 233.648438 371.710938 244.027344 C 373.53125 244.9375 374.441406 243.300781 375.351562 242.390625 C 378.992188 238.566406 382.449219 234.558594 386.636719 231.097656 C 395.734375 223.265625 405.015625 215.617188 416.84375 210.152344 Z M 425.761719 332.902344 C 425.945312 332.175781 426.125 331.8125 426.125 331.445312 C 424.671875 323.433594 423.03125 315.238281 419.9375 307.589844 C 416.480469 299.574219 412.660156 291.5625 405.925781 285.550781 C 405.378906 285.003906 404.832031 283.914062 403.742188 284.460938 C 403.378906 285.1875 403.925781 285.550781 404.105469 285.917969 C 413.386719 295.570312 418.484375 307.40625 421.578125 320.335938 C 422.304688 323.433594 422.851562 326.53125 423.578125 329.625 C 423.941406 330.902344 423.578125 332.539062 425.761719 332.902344 Z M 381.355469 156.0625 C 378.808594 146.59375 355.148438 130.75 346.960938 130.019531 C 349.507812 132.386719 352.238281 133.296875 354.605469 134.753906 C 357.152344 136.210938 359.699219 137.667969 362.066406 139.308594 C 364.433594 140.945312 366.796875 142.769531 368.980469 144.589844 C 371.164062 146.410156 373.347656 148.414062 375.167969 150.597656 C 379.71875 155.882812 379.71875 155.882812 381.355469 156.0625 Z M 335.496094 282.636719 C 334.039062 282.820312 334.039062 283.730469 333.859375 284.460938 C 332.949219 294.292969 335.496094 303.945312 337.132812 313.417969 C 337.316406 314.144531 337.496094 314.691406 338.40625 314.691406 C 339.863281 313.964844 338.953125 312.871094 338.769531 311.960938 C 337.496094 304.675781 336.222656 297.390625 335.496094 290.105469 C 335.132812 287.554688 335.859375 285.1875 335.496094 282.636719 Z M 324.210938 123.828125 C 328.035156 120.914062 331.855469 117.816406 335.859375 115.085938 C 339.863281 112.535156 344.777344 111.441406 349.144531 108.710938 C 343.683594 107.253906 326.941406 117.453125 324.210938 123.828125 Z M 318.386719 292.109375 C 316.386719 293.203125 316.933594 294.292969 317.660156 295.570312 C 320.027344 299.757812 323.664062 303.21875 325.667969 303.035156 C 323.300781 299.394531 319.480469 296.660156 318.386719 292.109375 Z M 323.484375 141.128906 C 321.847656 136.210938 319.296875 134.027344 316.023438 135.121094 C 319.480469 136.210938 320.390625 139.125 323.484375 141.128906 Z M 281.261719 357.671875 C 292.363281 361.132812 303.464844 364.230469 314.566406 366.777344 C 315.839844 367.144531 317.113281 367.507812 318.386719 367.507812 C 326.761719 368.054688 333.3125 372.425781 340.226562 376.429688 C 351.511719 383.167969 363.523438 388.453125 375.351562 394.277344 C 387.179688 400.105469 399.191406 405.570312 411.023438 411.398438 C 417.027344 414.3125 423.214844 416.679688 429.402344 419.046875 C 430.128906 419.230469 431.039062 419.414062 431.222656 420.503906 C 416.84375 421.78125 402.832031 425.238281 388.636719 427.609375 C 377.71875 429.429688 366.980469 430.886719 356.058594 432.707031 C 347.6875 434.164062 339.316406 434.890625 331.308594 437.988281 C 330.21875 438.351562 329.308594 438.351562 328.214844 438.171875 C 323.300781 435.621094 317.84375 434.347656 312.566406 432.707031 C 305.46875 430.339844 298.003906 428.519531 291.089844 425.421875 C 285.082031 422.691406 279.625 419.230469 275.4375 413.949219 C 273.253906 411.214844 272.164062 408.121094 272.34375 404.660156 C 272.527344 392.824219 274.527344 381.167969 277.441406 369.691406 C 278.53125 365.6875 279.261719 361.496094 281.261719 357.671875 Z M 314.382812 374.429688 C 310.378906 375.519531 307.832031 377.34375 305.46875 379.527344 C 298.550781 385.71875 294.367188 393.734375 289.453125 401.199219 C 289.085938 401.929688 288.722656 402.65625 289.816406 403.203125 C 291.089844 403.203125 291.273438 402.109375 291.816406 401.382812 C 293.636719 398.46875 295.457031 395.554688 297.460938 392.640625 C 301.828125 385.902344 306.742188 379.527344 314.019531 375.886719 C 313.839844 375.886719 314.019531 375.519531 314.382812 374.429688 Z M 456.703125 153.878906 C 456.703125 148.597656 451.789062 145.683594 447.964844 145.863281 C 442.324219 146.230469 437.59375 150.597656 437.59375 155.699219 C 437.773438 160.617188 441.597656 164.441406 446.511719 164.441406 C 453.242188 164.441406 456.703125 158.429688 456.703125 153.878906 Z M 392.457031 163.710938 C 392.457031 167.902344 396.097656 171.726562 400.285156 171.542969 C 404.652344 171.363281 408.292969 167.355469 408.109375 162.253906 C 408.109375 158.066406 405.378906 155.515625 401.011719 155.335938 C 396.644531 155.515625 392.457031 159.523438 392.457031 163.710938 Z M 430.3125 175.550781 C 425.398438 173.363281 418.664062 175.367188 415.570312 179.558594 C 421.757812 181.015625 427.765625 180.285156 433.40625 177.1875 C 432.496094 176.644531 431.40625 176.097656 430.3125 175.550781 Z M 424.308594 187.386719 C 429.21875 187.933594 433.40625 184.839844 434.316406 180.46875 C 432.496094 180.285156 431.039062 181.558594 429.585938 181.925781 C 425.21875 183.199219 420.667969 182.472656 416.300781 182.835938 C 418.121094 186.113281 421.03125 187.023438 424.308594 187.386719 Z M 424.308594 187.386719 " fill-opacity="1" fill-rule="nonzero"/><path fill="#3e3d49" d="M 388.089844 136.210938 C 383.539062 135.664062 381.175781 133.480469 380.265625 128.746094 C 379.902344 126.742188 379.539062 124.738281 379.539062 122.917969 C 379.355469 120.183594 378.261719 118 375.714844 116.90625 C 365.707031 111.808594 362.066406 102.703125 360.792969 92.320312 C 359.882812 85.398438 362.25 79.570312 366.796875 74.65625 C 367.707031 73.742188 368.617188 72.652344 369.890625 72.285156 C 371.164062 71.921875 371.164062 70.828125 371.347656 69.738281 C 374.441406 66.824219 375.898438 63 376.988281 58.992188 C 377.71875 56.625 378.082031 54.074219 378.808594 51.707031 C 381.175781 43.875 386.636719 39.324219 394.097656 36.773438 C 398.464844 35.316406 403.015625 35.316406 407.382812 34.769531 C 414.296875 33.859375 420.121094 31.308594 424.488281 25.847656 C 427.765625 21.839844 431.949219 19.472656 436.863281 18.195312 C 442.871094 16.375 448.511719 17.46875 453.425781 21.476562 C 455.0625 22.75 456.335938 24.207031 457.976562 25.300781 C 461.980469 28.394531 466.347656 29.671875 471.441406 28.578125 C 474.355469 28.03125 477.449219 27.304688 480.359375 26.9375 C 489.640625 25.480469 494.007812 27.304688 498.742188 34.769531 C 500.5625 37.683594 502.5625 40.050781 504.929688 42.601562 C 507.839844 45.878906 511.296875 47.152344 515.667969 46.972656 C 517.667969 46.972656 519.671875 46.972656 521.671875 46.789062 C 531.863281 46.609375 539.144531 50.433594 543.148438 63.179688 C 544.421875 67.003906 544.601562 71.011719 544.601562 75.019531 C 544.421875 82.304688 547.515625 87.765625 552.792969 92.320312 C 554.429688 93.777344 556.25 95.234375 557.886719 96.691406 C 564.257812 102.703125 566.257812 109.804688 563.53125 118 C 562.4375 121.460938 560.980469 124.738281 559.527344 128.015625 C 556.433594 134.390625 556.796875 140.582031 561.164062 146.046875 C 567.898438 154.605469 568.625 163.53125 564.804688 173.363281 C 564.074219 175.003906 563.710938 176.644531 563.164062 178.28125 C 562.074219 182.289062 562.074219 186.113281 563.53125 189.9375 C 564.984375 193.761719 566.441406 197.585938 566.441406 201.777344 C 566.441406 209.242188 563.53125 215.070312 557.523438 219.441406 C 554.792969 221.445312 551.882812 223.449219 548.96875 225.269531 C 544.238281 228.183594 539.144531 229.824219 533.5 229.277344 C 532.773438 229.277344 531.863281 229.277344 531.136719 229.457031 C 522.765625 228.546875 514.9375 226.179688 508.203125 221.261719 C 502.015625 216.890625 496.921875 211.429688 496.375 203.234375 C 496.375 202.140625 496.011719 201.046875 496.191406 200.136719 C 496.558594 192.667969 492.191406 188.480469 485.09375 186.84375 C 482.726562 186.296875 480.359375 185.929688 478.175781 185.203125 C 472.714844 183.199219 470.714844 178.464844 472.898438 173 C 473.625 171.179688 474.71875 169.722656 475.992188 168.449219 C 478.722656 165.714844 481.996094 163.53125 485.09375 161.34375 C 492.007812 156.425781 493.828125 148.414062 491.460938 141.128906 C 489.277344 134.574219 482.542969 133.117188 477.628906 137.851562 C 476.902344 138.578125 476.175781 139.488281 475.628906 140.21875 C 473.625 142.949219 470.898438 143.679688 467.984375 142.039062 C 462.707031 138.945312 461.070312 135.121094 462.34375 130.203125 C 462.707031 128.746094 463.253906 127.105469 463.617188 125.648438 C 464.890625 120.367188 462.890625 116.179688 457.609375 114.902344 C 451.96875 113.445312 448.328125 110.53125 447.054688 105.070312 C 447.054688 104.886719 446.875 104.523438 446.691406 104.339844 C 444.144531 99.058594 439.414062 96.328125 433.769531 97.601562 C 430.128906 98.511719 427.21875 97.601562 424.488281 95.417969 C 418.847656 91.046875 414.296875 89.769531 408.109375 96.328125 C 407.382812 97.054688 406.472656 97.785156 405.742188 98.332031 C 404.652344 99.242188 403.195312 99.789062 401.738281 99.789062 C 397.917969 99.421875 395.917969 101.609375 394.640625 104.886719 C 393.003906 108.894531 391.914062 112.898438 391.003906 117.089844 C 389.183594 123.28125 389.363281 129.835938 388.089844 136.210938 Z M 400.285156 568.207031 C 399.921875 564.929688 397.191406 565.292969 395.1875 564.746094 C 389 563.105469 382.632812 562.015625 376.261719 560.738281 C 375.351562 560.558594 374.441406 560.191406 373.53125 562.195312 C 381.722656 565.65625 390.636719 566.929688 399.191406 568.753906 C 399.554688 568.570312 399.921875 568.386719 400.285156 568.207031 Z M 470.351562 522.675781 C 464.527344 521.765625 458.886719 520.488281 453.0625 519.761719 C 446.144531 519.03125 439.414062 518.304688 432.496094 517.03125 C 422.121094 515.390625 411.75 513.75 401.558594 511.929688 C 387.542969 509.199219 373.714844 506.464844 360.0625 502.640625 C 352.964844 500.640625 345.867188 498.453125 338.589844 496.269531 C 336.769531 495.722656 334.949219 495.539062 333.128906 496.085938 C 325.121094 498.636719 318.570312 503.007812 313.65625 509.746094 C 306.742188 519.03125 304.191406 529.777344 303.648438 541.070312 C 303.28125 548.355469 304.011719 555.457031 305.285156 562.558594 C 306.011719 566.75 306.921875 570.9375 308.378906 574.945312 C 308.742188 576.039062 309.289062 576.582031 310.378906 576.039062 C 311.109375 574.945312 310.746094 573.667969 310.5625 572.578125 C 309.105469 566.019531 308.195312 559.28125 307.285156 552.542969 C 306.195312 543.621094 306.921875 535.058594 309.105469 526.5 C 312.566406 513.570312 320.207031 504.097656 333.128906 499.183594 C 335.3125 498.269531 337.316406 498.453125 339.679688 499.183594 C 345.867188 501.367188 352.238281 503.550781 358.609375 505.554688 C 366.25 507.921875 373.894531 509.925781 381.722656 511.566406 C 395.007812 514.480469 408.109375 517.210938 421.578125 519.214844 C 429.21875 520.308594 437.046875 521.582031 444.871094 522.675781 C 451.058594 523.402344 457.246094 524.132812 463.433594 524.859375 C 467.800781 525.40625 472.351562 526.5 476.902344 525.773438 C 477.628906 523.769531 476.175781 523.222656 474.535156 522.859375 C 472.898438 523.039062 471.625 522.859375 470.351562 522.675781 Z M 520.945312 538.703125 C 534.046875 532.144531 545.875 523.585938 557.160156 514.117188 C 564.621094 507.742188 572.082031 501.183594 579 494.445312 C 579.726562 493.71875 580.820312 492.808594 579.726562 491.714844 C 578.816406 490.621094 577.726562 491.53125 576.996094 492.078125 C 576.453125 492.625 575.90625 493.171875 575.175781 493.71875 C 570.992188 497.359375 566.988281 501.183594 562.621094 504.828125 C 548.789062 517.03125 534.046875 528.140625 517.667969 536.882812 C 514.210938 538.703125 510.753906 540.886719 507.476562 543.074219 C 505.839844 544.167969 504.019531 545.078125 502.925781 546.898438 C 504.019531 548.535156 504.929688 547.261719 506.019531 546.898438 C 509.660156 545.257812 512.753906 542.710938 516.578125 541.433594 C 517.304688 540.339844 518.578125 539.976562 519.851562 539.796875 C 520.214844 539.25 520.578125 538.882812 520.945312 538.703125 Z M 486.367188 310.683594 C 489.460938 310.503906 492.371094 309.957031 495.285156 309.226562 C 509.480469 305.585938 522.035156 298.300781 534.230469 290.46875 C 534.410156 290.46875 534.410156 290.289062 534.59375 290.289062 C 535.320312 289.742188 536.230469 289.011719 535.503906 288.101562 C 534.773438 287.191406 533.867188 287.554688 532.957031 287.917969 C 531.5 288.832031 530.042969 289.558594 528.585938 290.46875 C 515.484375 298.664062 501.835938 305.769531 486.546875 308.863281 C 486.546875 309.410156 486.546875 309.957031 486.367188 310.683594 Z M 493.644531 278.996094 C 494.375 277.539062 494.738281 276.265625 492.191406 275.71875 C 489.824219 278.449219 489.460938 282.273438 487.277344 285.1875 C 486.546875 282.636719 487.640625 280.089844 487.640625 277.722656 C 487.640625 275.171875 488.367188 272.621094 487.277344 269.890625 C 484 273.351562 483.453125 284.824219 486 293.746094 C 487.09375 292.109375 487.640625 290.289062 489.277344 288.832031 C 490.914062 285.550781 492.191406 282.273438 493.644531 278.996094 Z M 279.078125 335.089844 C 282.71875 336.363281 286.539062 338.367188 290.726562 337.273438 C 290.542969 334.359375 288.359375 334.359375 286.902344 333.996094 C 279.988281 331.992188 273.074219 330.355469 267.066406 325.984375 C 266.703125 325.621094 266.15625 325.621094 265.246094 326.164062 C 266.519531 329.445312 270.523438 332.175781 279.078125 335.089844 Z M 431.40625 386.628906 C 431.585938 388.269531 431.585938 390.453125 433.769531 391 C 435.042969 390.273438 435.226562 389.363281 435.042969 388.085938 C 433.953125 381.347656 433.222656 374.429688 432.859375 367.6875 C 432.679688 366.234375 432.496094 364.957031 430.859375 364.957031 C 430.675781 367.507812 430.675781 370.238281 430.496094 372.972656 C 430.675781 377.523438 431.039062 382.078125 431.40625 386.628906 Z M 287.632812 319.972656 C 281.445312 317.96875 274.710938 316.695312 269.613281 311.777344 C 269.070312 311.230469 268.160156 311.050781 267.429688 312.507812 C 269.25 315.964844 273.074219 317.242188 276.347656 318.878906 C 283.992188 322.707031 287.996094 323.617188 291.453125 322.707031 C 290.90625 320.335938 289.085938 320.335938 287.632812 319.972656 Z M 293.273438 309.046875 C 292.726562 310.867188 294.183594 311.230469 295.457031 311.777344 C 303.464844 315.054688 311.835938 317.058594 319.296875 321.429688 C 319.84375 321.792969 320.390625 321.613281 320.753906 321.066406 C 320.9375 320.335938 320.390625 319.792969 319.84375 319.425781 C 318.023438 318.515625 316.386719 317.605469 314.566406 316.695312 C 307.652344 313.597656 300.371094 311.960938 293.273438 309.046875 Z M 150.410156 761.621094 C 155.324219 760.164062 160.054688 758.523438 164.425781 755.792969 C 164.789062 755.429688 165.332031 755.246094 165.699219 754.882812 C 166.425781 754.335938 166.972656 753.605469 166.425781 752.878906 C 165.878906 751.785156 164.789062 752.148438 164.058594 752.695312 C 163.878906 752.878906 163.695312 752.878906 163.332031 753.058594 C 159.875 755.246094 156.234375 756.519531 152.59375 758.160156 C 150.59375 759.070312 148.226562 759.253906 146.226562 761.253906 C 147.863281 762.167969 149.320312 761.984375 150.410156 761.621094 Z M 250.503906 662.910156 C 250.871094 660.90625 251.050781 658.722656 248.320312 656.898438 C 247.957031 662.726562 246.136719 667.828125 245.226562 673.109375 C 245.046875 673.835938 245.226562 674.746094 246.683594 675.292969 C 249.050781 671.652344 249.960938 667.28125 250.503906 662.910156 Z M 149.320312 768.90625 C 155.140625 768.539062 160.054688 765.625 164.789062 762.347656 C 165.515625 761.800781 165.332031 760.890625 164.605469 760.34375 C 162.238281 760.890625 149.5 767.082031 148.410156 768.359375 C 148.953125 768.722656 149.136719 768.90625 149.320312 768.90625 Z M 167.152344 749.054688 C 167.882812 748.6875 168.429688 748.144531 168.0625 747.050781 C 165.152344 745.957031 162.785156 748.144531 160.421875 749.054688 C 158.054688 750.144531 154.960938 750.328125 152.957031 753.789062 C 158.78125 753.242188 162.785156 750.875 167.152344 749.054688 Z M 321.117188 97.601562 C 317.296875 98.875 313.839844 100.878906 310.5625 103.246094 C 301.828125 109.621094 294.546875 117.453125 287.996094 126.195312 C 286.902344 127.652344 285.449219 129.109375 285.265625 131.113281 C 286.902344 131.839844 287.449219 130.75 288.179688 130.019531 C 289.816406 128.199219 291.273438 126.011719 293.089844 124.191406 C 302.007812 114.902344 310.378906 104.886719 322.574219 99.605469 C 322.574219 98.695312 322.027344 97.964844 321.117188 97.601562 Z M 371.710938 244.027344 C 373.53125 244.9375 374.441406 243.300781 375.351562 242.390625 C 378.992188 238.566406 382.449219 234.558594 386.636719 231.097656 C 395.734375 223.265625 405.015625 215.617188 417.027344 210.152344 C 408.65625 209.605469 377.171875 233.648438 371.710938 244.027344 Z M 426.125 331.445312 C 424.671875 323.433594 423.03125 315.238281 419.9375 307.589844 C 416.480469 299.574219 412.660156 291.5625 405.925781 285.550781 C 405.378906 285.003906 404.832031 283.914062 403.742188 284.460938 C 403.378906 285.1875 403.925781 285.550781 404.105469 285.917969 C 413.386719 295.570312 418.484375 307.40625 421.578125 320.335938 C 422.304688 323.433594 422.851562 326.53125 423.578125 329.625 C 423.761719 330.71875 423.578125 332.359375 425.761719 332.902344 C 425.945312 332.175781 426.125 331.8125 426.125 331.445312 Z M 322.9375 109.257812 C 320.753906 108.710938 319.117188 110.167969 317.476562 111.261719 C 312.382812 114.902344 307.285156 118.910156 303.101562 123.644531 C 299.644531 127.652344 296.730469 132.207031 294.546875 136.941406 C 294 138.214844 293.273438 139.488281 294.546875 140.765625 C 296.550781 140.21875 297.09375 138.578125 297.640625 137.304688 C 302.554688 126.378906 311.109375 118.726562 320.753906 112.171875 C 321.480469 111.261719 322.757812 110.714844 322.9375 109.257812 Z M 347.144531 130.019531 C 349.691406 132.386719 352.421875 133.296875 354.785156 134.753906 C 357.335938 136.210938 359.882812 137.667969 362.246094 139.308594 C 364.613281 140.945312 366.980469 142.769531 369.164062 144.589844 C 371.347656 146.410156 373.53125 148.414062 375.351562 150.597656 C 379.539062 155.882812 379.539062 155.882812 381.175781 156.0625 C 378.808594 146.59375 355.148438 130.75 347.144531 130.019531 Z M 333.859375 284.460938 C 332.949219 294.292969 335.496094 303.945312 337.132812 313.417969 C 337.316406 314.144531 337.496094 314.691406 338.40625 314.691406 C 339.863281 313.964844 338.953125 312.871094 338.769531 311.960938 C 337.496094 304.675781 336.222656 297.390625 335.496094 290.105469 C 335.3125 287.738281 335.859375 285.1875 335.496094 282.820312 C 333.859375 282.820312 334.039062 283.730469 333.859375 284.460938 Z M 335.859375 115.269531 C 339.863281 112.71875 344.777344 111.625 349.144531 108.894531 C 343.503906 107.253906 326.761719 117.453125 324.03125 124.007812 C 328.035156 120.914062 331.671875 117.816406 335.859375 115.269531 Z M 324.210938 92.503906 C 325.667969 93.230469 323.121094 95.234375 325.484375 95.78125 C 326.578125 93.777344 327.488281 91.59375 328.578125 89.40625 C 329.488281 87.402344 331.492188 85.765625 332.039062 83.578125 C 330.582031 83.03125 330.035156 83.941406 329.671875 84.671875 C 328.398438 86.675781 327.125 88.679688 325.851562 90.679688 C 325.304688 91.410156 325.484375 92.683594 324.210938 92.503906 Z M 317.660156 295.570312 C 320.027344 299.757812 323.664062 303.21875 325.667969 303.035156 C 323.300781 299.394531 319.664062 296.660156 318.386719 292.289062 C 316.386719 293.203125 316.933594 294.292969 317.660156 295.570312 Z M 316.203125 135.121094 C 319.480469 136.210938 320.390625 139.125 323.664062 141.128906 C 322.027344 136.210938 319.296875 134.027344 316.203125 135.121094 Z M 324.210938 92.503906 C 324.03125 89.953125 324.210938 87.222656 324.574219 84.308594 C 321.664062 86.492188 321.480469 89.953125 324.210938 92.503906 Z M 492.371094 359.859375 C 501.472656 353.300781 511.296875 348.382812 522.21875 346.015625 C 525.492188 345.289062 528.769531 344.742188 532.046875 344.011719 C 533.320312 343.832031 534.59375 343.648438 534.957031 341.828125 C 526.222656 338.1875 494.375 351.480469 488.367188 361.316406 C 490.371094 362.042969 491.28125 360.585938 492.371094 359.859375 Z M 512.207031 355.851562 C 513.117188 356.761719 514.027344 356.035156 514.757812 355.851562 C 520.578125 354.394531 526.402344 353.121094 532.410156 353.484375 C 533.683594 353.484375 534.773438 353.121094 535.867188 352.753906 C 536.59375 352.574219 536.777344 351.84375 536.414062 350.933594 C 528.222656 349.476562 515.300781 352.210938 512.207031 355.851562 Z M 463.980469 210.519531 C 465.617188 208.332031 467.984375 207.238281 469.988281 205.601562 C 470.898438 204.871094 471.625 204.144531 470.167969 202.6875 C 466.347656 204.691406 463.253906 207.238281 460.886719 211.0625 C 462.160156 211.976562 462.890625 210.882812 463.980469 210.519531 Z M 430.496094 147.320312 C 433.953125 148.050781 437.410156 147.6875 440.503906 145.683594 C 443.414062 143.859375 445.234375 141.128906 445.78125 137.488281 C 445.964844 136.394531 446.144531 134.9375 444.507812 134.753906 C 443.050781 134.574219 442.871094 135.664062 442.6875 136.941406 C 442.6875 137.304688 442.6875 137.667969 442.507812 138.214844 C 442.140625 140.21875 440.867188 141.492188 439.414062 142.585938 C 435.042969 145.5 429.585938 144.40625 426.855469 139.855469 C 426.308594 138.761719 425.761719 137.667969 424.308594 138.398438 C 424.125 143.679688 425.945312 146.410156 430.496094 147.320312 Z M 411.75 139.671875 C 412.296875 147.503906 412.113281 155.515625 413.570312 163.347656 C 413.933594 164.804688 413.75 166.625 415.753906 166.625 C 417.9375 166.625 420.667969 167.71875 422.488281 164.988281 C 421.03125 162.4375 418.300781 164.441406 416.664062 162.984375 C 415.207031 154.789062 415.570312 146.410156 413.570312 137.851562 C 411.929688 138.398438 411.566406 138.945312 411.75 139.671875 Z M 415.753906 179.738281 C 413.75 180.285156 411.75 177.917969 409.382812 180.101562 C 411.386719 182.105469 413.933594 182.289062 416.300781 183.015625 C 420.667969 182.472656 425.21875 183.382812 429.585938 182.105469 C 431.222656 181.558594 432.496094 180.46875 434.316406 180.648438 C 436.136719 179.738281 438.136719 178.644531 439.777344 177.734375 C 440.6875 177.1875 442.140625 176.460938 441.050781 175.003906 C 440.320312 173.730469 439.230469 174.640625 438.320312 175.1875 C 436.683594 176.097656 435.410156 177.554688 433.40625 177.554688 C 427.945312 180.46875 421.941406 181.195312 415.753906 179.738281 Z M 422.851562 121.640625 C 429.039062 118.363281 435.410156 117.453125 441.414062 122.007812 C 441.777344 122.1875 442.140625 122.371094 442.507812 122.550781 C 443.414062 122.734375 444.324219 122.734375 444.691406 121.640625 C 442.324219 116.726562 435.589844 114.175781 429.402344 115.632812 C 424.308594 116.90625 421.941406 118.726562 421.941406 121.640625 C 422.488281 121.640625 422.667969 121.824219 422.851562 121.640625 Z M 399.554688 152.601562 C 402.832031 153.511719 406.652344 151.875 408.292969 148.777344 C 409.203125 146.773438 410.113281 144.953125 409.566406 142.769531 C 409.382812 142.039062 408.835938 141.675781 408.109375 141.675781 C 406.289062 142.585938 407.019531 144.40625 406.472656 145.863281 C 405.742188 147.6875 404.832031 149.324219 402.648438 149.507812 C 400.285156 149.6875 398.464844 149.324219 397.191406 147.140625 C 396.644531 146.230469 396.460938 144.773438 394.640625 144.589844 C 393.914062 148.414062 395.734375 151.328125 399.554688 152.601562 Z M 392.277344 135.847656 C 395.007812 131.660156 397.734375 127.835938 402.105469 125.285156 C 402.832031 124.921875 402.648438 123.828125 401.921875 123.28125 C 395.734375 123.644531 389.546875 130.929688 391.367188 136.394531 C 391.730469 136.03125 392.09375 136.03125 392.277344 135.847656 Z M 461.25 178.644531 C 461.613281 177.917969 461.796875 177.1875 460.523438 176.277344 C 454.882812 181.378906 452.152344 188.664062 447.054688 194.308594 C 452.878906 190.121094 457.246094 184.65625 461.25 178.644531 Z M 305.46875 379.527344 C 298.550781 385.71875 294.367188 393.734375 289.453125 401.199219 C 289.085938 401.929688 288.722656 402.65625 289.816406 403.203125 C 291.089844 403.203125 291.273438 402.109375 291.816406 401.382812 C 293.636719 398.46875 295.457031 395.554688 297.460938 392.640625 C 301.828125 385.902344 306.742188 379.527344 314.019531 375.886719 C 314.203125 375.703125 314.203125 375.519531 314.566406 374.429688 C 310.5625 375.519531 307.832031 377.34375 305.46875 379.527344 Z M 305.46875 379.527344 " fill-opacity="1" fill-rule="nonzero"/><path fill="#ec9ec0" d="M 603.386719 412.855469 C 594.832031 408.121094 585.367188 405.753906 575.90625 403.933594 C 563.710938 401.5625 551.519531 399.378906 539.144531 397.738281 C 533.320312 397.011719 527.3125 396.464844 521.308594 395.917969 C 511.664062 395.007812 502.015625 393.914062 492.371094 393.003906 C 488.730469 392.640625 485.273438 392.640625 481.632812 392.640625 C 482.179688 388.816406 482.90625 384.992188 483.453125 381.347656 C 484 377.707031 484.546875 374.0625 484.726562 370.238281 C 485.09375 363.320312 485.09375 356.398438 485.820312 349.476562 C 486.910156 336.546875 486.546875 323.433594 486.546875 310.503906 C 489.640625 310.320312 492.554688 309.773438 495.464844 309.046875 C 509.660156 305.402344 522.21875 298.117188 534.410156 290.289062 C 534.59375 290.289062 534.59375 290.105469 534.773438 290.105469 C 535.503906 289.558594 536.414062 288.832031 535.683594 287.917969 C 534.957031 287.007812 534.046875 287.375 533.136719 287.738281 C 531.679688 288.648438 530.226562 289.375 528.769531 290.289062 C 515.667969 298.484375 502.015625 305.585938 486.730469 308.683594 C 486.546875 303.582031 486.546875 298.664062 486.367188 293.566406 C 487.457031 291.925781 488.003906 290.105469 489.640625 288.648438 C 493.644531 288.101562 497.101562 285.917969 500.742188 284.460938 C 508.386719 281 515.667969 276.992188 522.582031 272.074219 C 524.582031 270.617188 526.402344 268.796875 528.222656 266.792969 C 523.855469 257.140625 518.394531 248.398438 509.84375 242.207031 C 502.5625 236.925781 495.101562 231.824219 486.910156 227.820312 C 476.539062 222.71875 465.617188 221.445312 454.335938 221.808594 C 452.332031 221.808594 450.511719 222.902344 448.511719 222.71875 C 448.511719 222.171875 448.511719 221.628906 448.328125 221.261719 C 451.058594 219.625 453.242188 217.257812 455.425781 215.070312 C 457.246094 213.433594 458.886719 211.792969 461.070312 210.882812 C 462.160156 211.976562 463.070312 210.699219 464.164062 210.519531 C 468.347656 210.699219 472.351562 211.0625 476.355469 211.976562 C 490.371094 215.253906 501.835938 222.902344 512.390625 232.191406 C 520.578125 239.65625 528.222656 247.671875 534.230469 256.960938 C 535.320312 258.597656 536.777344 259.691406 538.960938 259.144531 C 541.144531 258.597656 543.875 258.597656 544.238281 255.320312 C 548.96875 255.320312 551.699219 258.414062 554.429688 261.511719 C 558.253906 266.066406 561.347656 271.347656 564.074219 276.628906 C 569.355469 286.28125 573.355469 296.296875 577.542969 306.3125 C 581.363281 315.054688 585.1875 323.617188 588.828125 332.175781 C 593.195312 342.375 596.105469 353.300781 599.382812 363.863281 C 602.292969 372.972656 605.023438 382.078125 606.660156 391.546875 C 607.570312 396.464844 608.117188 401.5625 608.664062 406.480469 C 608.84375 410.488281 607.027344 412.308594 603.386719 412.855469 Z M 488.367188 361.316406 C 490.371094 362.226562 491.460938 360.585938 492.554688 359.859375 C 501.652344 353.300781 511.480469 348.382812 522.398438 346.015625 C 525.675781 345.289062 528.953125 344.742188 532.226562 344.011719 C 533.5 343.832031 534.773438 343.648438 535.140625 341.828125 C 526.039062 338.1875 494.375 351.480469 488.367188 361.316406 Z M 536.59375 350.933594 C 528.222656 349.476562 515.300781 352.210938 512.207031 355.851562 C 513.117188 356.761719 514.027344 356.035156 514.757812 355.851562 C 520.578125 354.394531 526.402344 353.121094 532.410156 353.484375 C 533.683594 353.484375 534.773438 353.121094 535.867188 352.753906 C 536.777344 352.574219 536.777344 352.027344 536.59375 350.933594 Z M 448.148438 222.71875 C 447.964844 223.085938 447.601562 223.265625 447.417969 223.628906 C 447.785156 223.449219 448.148438 223.265625 448.148438 222.71875 Z M 315.292969 606.453125 C 315.292969 606.453125 323.300781 615.738281 355.515625 616.832031 C 387.726562 617.925781 408.472656 597.710938 410.839844 593.339844 C 416.300781 583.503906 403.558594 579.132812 403.558594 579.132812 C 357.878906 618.289062 315.113281 588.421875 315.113281 588.421875 C 305.648438 598.257812 315.292969 606.453125 315.292969 606.453125 Z M 315.292969 606.453125 " fill-opacity="1" fill-rule="nonzero"/></svg>