<svg xmlns="http://www.w3.org/2000/svg" xmlns:xlink="http://www.w3.org/1999/xlink" width="1080" zoomAndPan="magnify" viewBox="0 0 810 809.999993" height="1080" preserveAspectRatio="xMidYMid meet" version="1.0"><defs><clipPath id="id1"><path d="M 17 14.71875 L 795 14.71875 L 795 805 L 17 805 Z M 17 14.71875 " clip-rule="nonzero"/></clipPath><clipPath id="id2"><path d="M 28 14.71875 L 796 14.71875 L 796 798 L 28 798 Z M 28 14.71875 " clip-rule="nonzero"/></clipPath></defs><g clip-path="url(#id1)"><path fill="#987da6" d="M 792.625 417.257812 C 791.761719 413.46875 790.703125 409.753906 788.605469 406.421875 C 788.710938 404.730469 788.183594 403.53125 786.261719 403.40625 C 784.671875 400.851562 782.347656 399.179688 779.632812 397.960938 C 779.050781 394.914062 777.515625 395.6875 775.839844 397.027344 C 773.355469 396.851562 771.59375 398.703125 769.390625 399.300781 C 769.390625 399.300781 769.390625 399.300781 769.40625 399.285156 C 769.40625 399.285156 769.355469 399.300781 769.355469 399.300781 C 769.140625 398.367188 769.617188 397.554688 769.898438 396.726562 C 773.726562 385.695312 777.039062 374.523438 780.25 363.296875 C 789.117188 332.332031 794.160156 300.820312 793.769531 268.550781 C 793.664062 258.769531 791.425781 249.308594 786.859375 240.566406 C 778.238281 224.121094 766.039062 210.550781 752.464844 198.109375 C 751.671875 197.371094 750.71875 196.789062 750.261719 195.75 C 751.089844 178.300781 750.984375 160.855469 747.882812 143.617188 C 738.308594 90.660156 709.679688 52.59375 659.503906 31.585938 C 658.535156 31.179688 657.621094 30.457031 656.457031 30.792969 C 656.4375 30.386719 656.136719 30.332031 655.820312 30.296875 C 649.597656 27.601562 643.25 25.328125 636.515625 24.269531 C 635.300781 23.867188 634.121094 23.355469 632.886719 23.074219 C 618.886719 19.917969 604.714844 17.910156 590.398438 16.90625 C 584.351562 16.394531 578.324219 15.636719 572.222656 16.003906 C 571.164062 15.828125 570.089844 15.53125 569.03125 15.496094 C 556.972656 15.070312 544.933594 14.703125 532.855469 14.964844 C 530.601562 15.019531 528.308594 14.703125 526.085938 15.355469 C 521.082031 15.476562 516.039062 14.824219 511.066406 15.988281 C 498.214844 15.8125 485.453125 17.082031 472.6875 18.4375 C 467.609375 18.667969 462.535156 18.929688 457.5625 20.09375 C 456.980469 20.042969 456.382812 19.902344 455.800781 19.972656 C 441.660156 21.382812 427.574219 23.074219 413.578125 25.539062 C 408.941406 26.210938 404.285156 26.722656 399.789062 28.09375 C 393.796875 28.605469 387.980469 30.15625 382.144531 31.496094 C 372.960938 33.628906 363.738281 35.746094 354.90625 39.164062 C 351.523438 39.902344 348.226562 40.855469 345.210938 42.636719 C 339.585938 43.816406 334.472656 46.390625 329.292969 48.734375 C 322.488281 51.800781 315.664062 54.847656 309.582031 59.273438 C 306.144531 60.910156 302.847656 62.742188 300.183594 65.546875 C 302.707031 67.75 305 70.109375 307.148438 72.59375 C 305 70.109375 302.707031 67.75 300.183594 65.546875 C 299.234375 65.597656 298.582031 66.234375 297.875 66.761719 C 290.71875 72.03125 284.179688 77.96875 278.660156 84.96875 C 277.390625 86.570312 275.875 88.035156 275.292969 90.113281 C 275.308594 90.128906 275.328125 90.148438 275.34375 90.183594 C 275.328125 90.164062 275.308594 90.148438 275.292969 90.128906 C 272.542969 93.25 270.921875 96.984375 269.351562 100.757812 C 268.839844 101.710938 268.257812 102.625 267.851562 103.613281 C 261.472656 119.175781 259.410156 135.511719 260.042969 152.148438 C 260.976562 176.839844 266.8125 200.628906 274.289062 224.070312 C 273.757812 226.078125 271.167969 226.183594 270.53125 228.105469 C 269.949219 227.980469 269.632812 228.316406 269.371094 228.773438 C 268.964844 229.109375 268.558594 229.460938 268.152344 229.796875 C 265.367188 232.195312 262.757812 234.765625 261.101562 238.152344 C 261.082031 238.167969 261.066406 238.203125 261.066406 238.222656 C 260.695312 238.257812 260.535156 238.484375 260.5 238.839844 C 260.34375 239.03125 260.203125 239.207031 260.042969 239.402344 C 257.628906 242.664062 255.917969 246.328125 254.453125 250.082031 C 251.085938 258.664062 248.621094 267.601562 244.28125 275.8125 C 243.367188 277.117188 242.46875 278.4375 241.550781 279.742188 C 237.441406 283.761719 232.488281 286.386719 227.164062 288.394531 C 221.328125 290.597656 215.351562 292.34375 209.359375 294.089844 C 201.320312 296.414062 193.933594 299.976562 188.363281 306.371094 C 181.734375 313.984375 178.277344 322.816406 179.476562 333.105469 C 179.476562 333.140625 179.476562 333.175781 179.476562 333.210938 C 179.546875 334.253906 179.476562 335.292969 179.652344 336.3125 C 179.652344 336.351562 179.652344 336.402344 179.671875 336.4375 C 179.742188 336.808594 179.847656 337.160156 180.007812 337.511719 C 180.078125 339.417969 180.570312 341.214844 181.132812 343.011719 C 184.148438 352.667969 189.085938 361.25 195.539062 369.007812 C 194.199219 371.210938 191.851562 372.160156 189.894531 373.589844 C 183.8125 378.046875 177.433594 382.117188 171.808594 387.195312 C 168.019531 389.589844 164.371094 392.144531 161.476562 395.652344 C 158.289062 397.117188 155.925781 399.617188 153.472656 402.015625 C 150.285156 404.519531 147.039062 406.96875 144.519531 410.191406 C 143.195312 410.757812 142.332031 411.882812 141.328125 412.820312 C 131.136719 422.371094 121.652344 432.574219 112.664062 443.253906 C 98.3125 460.332031 86.042969 478.660156 78.496094 499.84375 C 75.886719 507.175781 73.277344 514.523438 72.574219 522.382812 C 71.992188 523.511719 71.972656 524.710938 72.078125 525.945312 C 72.0625 526.347656 72.042969 526.738281 72.042969 527.144531 C 72.027344 528.429688 72.007812 529.699219 71.992188 530.984375 C 71.761719 535.742188 71.921875 540.464844 72.960938 545.136719 C 74.953125 554.140625 77.667969 562.902344 81.6875 571.21875 C 76.0625 574.742188 71.320312 579.324219 66.878906 584.191406 C 65.34375 585.863281 63.6875 587.609375 63.496094 590.113281 C 58.574219 595.839844 52.777344 600.703125 46.957031 605.390625 C 38.125 612.492188 30.722656 620.460938 25.257812 630.558594 C 14.871094 649.765625 15.4375 668.660156 27.988281 684.46875 C 33.082031 690.867188 39.746094 694.371094 48.085938 694.144531 C 55.191406 693.949219 61.007812 690.582031 66.316406 686.300781 C 76.152344 678.351562 84.207031 668.675781 92.246094 658.984375 C 101.945312 647.316406 111.796875 635.84375 124.386719 627.050781 C 127.3125 625.007812 129.796875 623.753906 133.164062 626.117188 C 135 627.402344 137.253906 628.089844 139.351562 628.988281 C 148.625 632.972656 158.003906 636.671875 167.738281 639.386719 C 168.28125 639.617188 168.8125 639.878906 169.359375 640.058594 C 183.585938 644.585938 198.113281 647.828125 212.851562 650.136719 C 212.304688 650.949219 212.144531 651.828125 212.25 652.78125 C 210.558594 653.449219 208.988281 654.351562 207.542969 655.460938 C 202.289062 658.597656 196.949219 661.644531 191.78125 664.921875 C 180.199219 672.253906 168.476562 679.003906 154.460938 680.835938 C 142.4375 682.425781 133.835938 689.351562 128.125 699.941406 C 125.917969 704.03125 123.558594 708.046875 120.808594 711.800781 C 114.621094 720.28125 108.539062 728.808594 102.296875 737.234375 C 92.230469 750.839844 86.128906 765.675781 87.417969 783 C 88.738281 800.75 104.445312 809.71875 120.242188 801.613281 C 123.433594 799.992188 126.449219 798.070312 129.199219 795.8125 C 140.183594 786.859375 150.070312 776.691406 160.085938 766.699219 C 170.011719 756.796875 180.730469 747.84375 192.734375 740.652344 C 204.300781 733.726562 216.851562 729.375 230.550781 729.019531 C 235.980469 728.878906 241.410156 728.507812 246.839844 728.246094 C 247.933594 728.261719 249.007812 728.332031 250.101562 728.28125 C 260.078125 727.769531 270.023438 726.871094 279.929688 725.601562 C 297.804688 723.328125 315.46875 720.050781 332.746094 714.851562 C 372.484375 702.902344 399.386719 676.378906 416.996094 639.828125 C 425.566406 622.0625 421.984375 604.984375 410.863281 589.210938 C 411.074219 588.171875 411.285156 587.117188 411.496094 586.074219 C 411.796875 584.613281 411.496094 583.519531 409.734375 583.398438 C 409.734375 581.316406 409.785156 579.238281 409.699219 577.175781 C 409.082031 562.335938 404.109375 549.03125 395.417969 537.046875 C 395.542969 536.675781 395.558594 536.183594 395.804688 535.972656 C 400.054688 532.484375 403.808594 528.429688 408.324219 525.257812 C 414.722656 518.296875 421.085938 511.265625 427.996094 504.953125 C 421.085938 511.265625 414.722656 518.296875 408.324219 525.257812 C 409.167969 527.160156 410.175781 528.992188 410.84375 530.949219 C 413.839844 539.742188 416.644531 548.609375 419.730469 557.367188 C 425.917969 575.007812 434.765625 590.941406 449.558594 602.960938 C 457.28125 609.234375 465.582031 614.539062 474.925781 618.097656 C 476.019531 618.910156 477.21875 619.453125 478.558594 619.703125 C 496.328125 627.140625 514.804688 630.382812 534.039062 628.882812 C 539.519531 628.460938 545.039062 628.003906 550.328125 626.292969 C 550.734375 625.605469 551.066406 624.917969 551.386719 624.230469 C 551.386719 624.230469 551.386719 624.25 551.386719 624.25 C 551.066406 624.9375 550.734375 625.625 550.328125 626.292969 C 552.671875 626.238281 554.859375 625.589844 556.992188 624.671875 C 565.804688 622.328125 573.703125 618.152344 580.96875 612.742188 C 589.941406 606.0625 597.644531 597.902344 606.054688 590.570312 C 613.863281 583.765625 622.148438 578.710938 633.132812 581.195312 C 634.753906 581.898438 636.515625 581.917969 638.226562 582.164062 C 649.792969 584.507812 660.597656 583.503906 669.960938 575.378906 C 676.484375 569.722656 680.007812 562.335938 682.582031 554.351562 C 686.53125 542.175781 684.855469 531.003906 676.625 521.007812 C 682.246094 518.628906 688.171875 517.042969 693.617188 514.171875 C 705.871094 507.703125 718.085938 501.199219 729.527344 493.375 C 746.488281 481.796875 764.117188 471.0625 777.199219 454.65625 C 781.957031 448.699219 786.824219 442.847656 790.175781 435.941406 C 791.691406 432.820312 792.90625 429.597656 792.941406 426.054688 C 793.59375 423.5 794.953125 421.136719 794.863281 418.386719 C 794.953125 416.449219 794.121094 416.167969 792.625 417.257812 Z M 553.058594 609.691406 C 552.972656 609.003906 552.867188 608.316406 552.742188 607.613281 C 552.867188 608.300781 552.972656 608.988281 553.058594 609.691406 Z M 553.414062 614.414062 C 553.394531 613.023438 553.289062 611.613281 553.113281 610.21875 C 553.308594 611.613281 553.414062 613.023438 553.414062 614.414062 Z M 284.6875 102.835938 C 284.902344 103.171875 285.128906 103.523438 285.339844 103.878906 C 285.128906 103.523438 284.902344 103.191406 284.6875 102.835938 Z M 281.992188 98.75 C 281.992188 98.75 282.007812 98.765625 282.007812 98.765625 C 281.992188 98.765625 281.992188 98.75 281.992188 98.75 Z M 278.429688 93.902344 C 278.675781 94.238281 278.941406 94.554688 279.1875 94.890625 C 279.1875 94.890625 279.1875 94.890625 279.1875 94.871094 C 278.941406 94.554688 278.695312 94.21875 278.429688 93.902344 Z M 551.703125 623.753906 C 551.703125 623.753906 551.703125 623.773438 551.703125 623.773438 C 552.285156 622.398438 552.707031 621.007812 552.972656 619.613281 C 552.972656 619.613281 552.972656 619.613281 552.972656 619.632812 C 552.691406 621.007812 552.285156 622.378906 551.703125 623.753906 Z M 553.058594 619.101562 C 553.058594 619.101562 553.058594 619.121094 553.058594 619.101562 C 553.308594 617.726562 553.414062 616.335938 553.429688 614.925781 C 553.414062 616.335938 553.308594 617.726562 553.058594 619.101562 Z M 553.058594 619.101562 " fill-opacity="1" fill-rule="nonzero"/></g><path fill="#99543c" d="M 294.96875 490.238281 C 298.226562 490.449219 301.207031 492.089844 304.503906 492.105469 C 307.394531 493.851562 310.746094 494.257812 313.917969 495.171875 C 320.019531 496.9375 325.816406 499.632812 332.078125 500.867188 C 338.476562 503.472656 344.875 506.046875 351.257812 508.691406 C 365.132812 514.472656 377.191406 522.949219 387.75 533.574219 C 388.789062 534.613281 389.582031 535.902344 390.484375 537.066406 C 392.367188 539.515625 393.460938 539.515625 395.507812 537.046875 C 404.199219 549.03125 409.167969 562.335938 409.785156 577.175781 C 409.875 579.253906 409.804688 581.335938 409.820312 583.398438 C 408.550781 584.121094 407.882812 585.351562 407.285156 586.605469 C 402.292969 596.949219 394.359375 604.757812 385.511719 611.734375 C 372.21875 622.222656 357.074219 629.269531 341.191406 634.699219 C 314.605469 643.8125 287.085938 647.863281 259.089844 648.746094 C 246.328125 649.152344 233.546875 648.867188 220.765625 648.851562 C 218.066406 648.851562 215.457031 649.257812 212.902344 650.121094 C 198.164062 647.8125 183.636719 644.570312 169.410156 640.039062 C 168.847656 639.863281 168.316406 639.597656 167.789062 639.371094 C 167.261719 638.101562 166.730469 636.832031 166.183594 635.5625 C 162.484375 627.121094 160.101562 618.292969 159.539062 609.109375 C 158.867188 598.148438 159.734375 587.273438 163.101562 576.734375 C 165.761719 568.382812 168.757812 560.152344 173.183594 552.539062 C 174.257812 552.46875 175.371094 552.519531 176.425781 552.34375 C 190.761719 549.894531 205.234375 548.625 219.742188 547.972656 C 231.996094 547.425781 244.28125 547.605469 256.554688 548.308594 C 269.210938 549.046875 281.710938 550.601562 294.15625 552.960938 C 304.238281 554.882812 314.375 556.625 324.707031 556.222656 C 325.464844 556.1875 326.648438 557.277344 326.945312 555.867188 C 327.195312 554.722656 325.890625 554.28125 325.078125 553.859375 C 321.535156 551.992188 317.601562 551.429688 313.777344 550.457031 C 291.351562 544.765625 268.539062 542.105469 245.445312 541.433594 C 230.375 540.996094 215.40625 542.085938 200.472656 544.007812 C 199.785156 544.097656 198.957031 544.519531 198.480469 544.007812 C 197.8125 543.269531 198.660156 542.546875 198.976562 541.910156 C 202.007812 535.902344 205.320312 530.050781 209.375 524.640625 C 218.789062 512.144531 230.039062 502.1875 245.339844 497.21875 C 257.855469 493.148438 270.65625 492.105469 283.648438 491.964844 C 287.511719 491.929688 291.300781 491.5625 294.96875 490.238281 Z M 449.011719 471.207031 C 453.277344 474.253906 455.570312 478.871094 458.480469 482.996094 C 459.078125 483.859375 458.972656 484.847656 458.847656 485.832031 C 462.675781 488.6875 465.285156 492.707031 468.6875 495.984375 C 475.472656 502.523438 482.15625 509.203125 488.871094 515.8125 C 490.632812 516.5 492.257812 517.34375 492.925781 519.28125 C 494.867188 519.421875 496.046875 520.9375 497.441406 521.960938 C 511.984375 532.765625 528.46875 538.949219 546.0625 542.476562 C 549.921875 543.25 553.816406 543.816406 557.785156 543.707031 C 559.863281 543.726562 561.960938 543.671875 563.777344 544.925781 C 566.632812 543.460938 569.824219 543.992188 572.75 543.886719 C 591.050781 543.214844 608.820312 539.671875 626.414062 534.96875 C 627.066406 534.792969 627.773438 534.84375 628.460938 534.792969 C 630.136719 534.050781 631.632812 532.640625 633.695312 533.609375 C 635.53125 531.476562 638.316406 531.546875 640.675781 530.878906 C 652.664062 527.441406 664.722656 524.269531 676.746094 521.007812 C 682.371094 518.628906 688.292969 517.042969 693.742188 514.171875 C 705.992188 507.703125 718.210938 501.199219 729.652344 493.375 C 746.613281 481.796875 764.242188 471.066406 777.320312 454.65625 C 782.082031 448.699219 786.949219 442.847656 790.296875 435.941406 C 791.8125 432.820312 793.03125 429.597656 793.066406 426.054688 C 789.34375 432.679688 785.871094 439.484375 780.582031 445.085938 C 777.375 448.488281 773.691406 451.308594 769.496094 453.40625 C 768.632812 453.828125 767.539062 454.550781 766.746094 453.722656 C 765.828125 452.769531 766.9375 451.871094 767.519531 451.203125 C 771.382812 446.707031 775.472656 442.410156 779.191406 437.792969 C 784.339844 431.410156 789.222656 424.820312 792.605469 417.257812 C 791.742188 413.46875 790.683594 409.753906 788.585938 406.421875 C 784.601562 422.441406 775.71875 435.128906 762.496094 444.859375 C 761.210938 445.808594 759.480469 447.378906 758.070312 445.703125 C 756.871094 444.277344 758.582031 442.796875 759.5 441.652344 C 764.082031 435.957031 768.824219 430.390625 773.410156 424.679688 C 777.074219 420.113281 780.144531 415.164062 782.609375 409.839844 C 783.652344 407.621094 784.550781 405.277344 786.242188 403.40625 C 784.65625 400.851562 782.328125 399.179688 779.613281 397.960938 C 774.679688 408.21875 769.035156 418.054688 761.632812 426.757812 C 758.6875 430.230469 755.019531 432.960938 751.320312 435.605469 C 750.507812 436.1875 749.449219 437.140625 748.410156 436.132812 C 747.300781 435.058594 748.09375 433.84375 748.78125 432.945312 C 752.183594 428.589844 755.53125 424.1875 759.144531 420.007812 C 765.386719 412.820312 770.605469 404.941406 775.804688 397.027344 C 773.320312 396.851562 771.539062 398.71875 769.320312 399.300781 C 769.320312 399.300781 769.371094 399.285156 769.371094 399.285156 C 769.195312 399.425781 769.019531 399.582031 768.824219 399.722656 C 764.628906 402.96875 760.804688 406.722656 756.203125 409.453125 C 757.296875 411.089844 755.886719 411.777344 754.949219 412.535156 C 746.753906 419.269531 739.3125 426.757812 732.773438 435.113281 C 730.289062 438.285156 728.332031 441.863281 726.089844 445.246094 C 725.632812 445.933594 725.421875 447.148438 724.242188 446.726562 C 723.183594 446.339844 723.429688 445.210938 723.5 444.382812 C 723.921875 438.742188 726.726562 434.039062 729.847656 429.613281 C 734.042969 423.65625 740.070312 419.515625 745.570312 414.878906 C 745.554688 413.292969 745.785156 411.671875 745.484375 410.140625 C 744.988281 407.671875 744.691406 404.746094 741.851562 403.8125 C 739.15625 402.933594 736.546875 403.265625 734.21875 405.488281 C 730.941406 408.605469 727.378906 411.425781 723.90625 414.300781 C 713.398438 422.988281 706.257812 433.4375 707 447.730469 C 707.175781 451.132812 705.710938 452.066406 702.855469 452.839844 C 694.5 455.097656 686.054688 457 677.539062 458.464844 C 668.9375 459.945312 660.28125 461.230469 651.539062 461.6875 C 648.417969 461.882812 645.296875 462.09375 642.175781 462.289062 C 640.34375 462.289062 638.492188 462.289062 636.65625 462.289062 C 628.320312 463.0625 619.964844 462.800781 611.605469 462.921875 C 608.925781 462.957031 606.230469 464.402344 603.566406 462.835938 C 602.476562 465.265625 600.34375 463.628906 598.738281 464.085938 C 593.75 465.8125 588.441406 466.007812 583.3125 467.046875 C 579.117188 467.910156 574.886719 468.648438 570.671875 469.441406 C 574.460938 475.539062 578.761719 481.390625 580.773438 488.441406 C 581.25 490.097656 583.242188 492.230469 581.230469 493.464844 C 579.046875 494.804688 577.882812 492.230469 576.71875 490.75 C 569.683594 481.710938 565.734375 470.941406 560.269531 461.019531 C 559.792969 460.136719 559.425781 459.203125 560.21875 458.269531 C 559.566406 457.054688 558.929688 455.835938 558.277344 454.605469 C 556.550781 451.90625 554.558594 449.351562 553.519531 446.269531 C 549.992188 442.25 547.664062 437.4375 544.757812 433.015625 C 536.839844 420.996094 527.992188 409.679688 519.546875 398.03125 C 514.382812 402.226562 508.847656 400.5 503.082031 398.648438 C 503.433594 400.253906 503.699219 401.378906 503.925781 402.527344 C 506.132812 413.101562 499.148438 420.273438 488.5 418.441406 C 485.453125 417.910156 482.929688 416.113281 480.023438 415.128906 C 479.28125 424.273438 478.347656 426.863281 474.378906 430.707031 C 472.863281 432.558594 470.976562 433.71875 468.527344 433.824219 C 459.359375 436.804688 451.550781 434.089844 444.621094 427.941406 C 444.410156 428.308594 444.289062 428.46875 444.234375 428.644531 C 441.679688 438.003906 439.210938 440.101562 429.480469 440.875 C 427.046875 441.070312 428.175781 442.195312 428.757812 443.167969 C 432.210938 448.824219 435.964844 454.285156 439.84375 459.660156 C 441.148438 461.476562 443.019531 462.941406 443.617188 465.25 C 445.996094 466.730469 447.726562 468.773438 449.011719 471.207031 Z M 216.570312 693.351562 C 220.625 701.105469 226.335938 707.609375 232.964844 713.40625 C 238.078125 717.882812 243.046875 722.589844 246.890625 728.28125 C 247.984375 728.296875 249.058594 728.367188 250.152344 728.316406 C 260.132812 727.804688 270.074219 726.90625 279.980469 725.636719 C 297.859375 723.363281 315.523438 720.085938 332.800781 714.886719 C 372.535156 702.9375 399.4375 676.414062 417.050781 639.863281 C 425.617188 622.097656 422.039062 605.019531 410.914062 589.25 C 403.300781 608.300781 388.15625 619.929688 370.894531 629.289062 C 350.691406 640.25 328.9375 646.648438 306.410156 650.703125 C 291.988281 653.292969 277.496094 654.964844 262.828125 655.566406 C 249.167969 656.128906 235.519531 655.988281 221.875 655.355469 C 218.527344 655.195312 215.140625 654.878906 212.269531 652.78125 C 210.574219 653.449219 209.007812 654.351562 207.5625 655.460938 C 207.03125 668.941406 210.382812 681.542969 216.570312 693.351562 Z M 600.570312 265.222656 C 596.886719 267.496094 592.917969 269.292969 589.09375 271.355469 C 588.089844 271.898438 586.765625 272.058594 586.292969 273.34375 C 597.660156 270.859375 606.28125 275.6875 613.667969 283.707031 C 614.640625 284.765625 615.503906 286.070312 614.515625 287.425781 C 613.527344 288.765625 612.136719 287.972656 611.007812 287.390625 C 608.628906 286.175781 606.246094 284.960938 604.203125 283.195312 C 599.214844 278.84375 593.625 275.972656 586.765625 276.078125 C 585.78125 276.09375 583.152344 276.78125 584.546875 273.910156 C 581.265625 274.386719 578.480469 276.183594 575.449219 277.292969 C 565.683594 280.886719 555.703125 283.195312 545.285156 284.097656 C 531.585938 285.292969 518.648438 283.179688 506.21875 277.238281 C 498.425781 273.523438 493.15625 268.128906 491.5 259.316406 C 489.910156 250.875 482.207031 246.207031 473.640625 247.914062 C 469.636719 248.707031 465.792969 249.871094 462.390625 252.230469 C 461.582031 252.796875 460.683594 253.273438 459.625 253.078125 C 459.625 253.078125 459.660156 253.0625 459.660156 253.0625 C 459.449219 253.273438 459.238281 253.484375 459.042969 253.675781 C 459.042969 253.675781 459.078125 253.640625 459.078125 253.640625 C 458.8125 253.855469 458.566406 254.066406 458.300781 254.277344 C 452.976562 257.800781 449.734375 263.054688 446.597656 268.375 C 446.386719 268.621094 446.171875 268.886719 445.960938 269.132812 C 445.960938 269.132812 445.996094 269.082031 445.996094 269.082031 C 445.980469 269.589844 445.925781 270.066406 445.378906 270.3125 C 445.378906 270.3125 445.398438 270.277344 445.398438 270.277344 C 445.449219 272.113281 444.535156 273.699219 443.988281 275.371094 C 441.695312 282.367188 441.765625 289.3125 444.234375 296.238281 C 448.253906 307.464844 459.855469 314.550781 471.242188 312.664062 C 472.898438 312.382812 473.515625 312.929688 473.304688 314.460938 C 472.6875 318.777344 473.144531 323.078125 473.289062 327.378906 C 474.308594 331.027344 474.714844 334.746094 474.609375 338.515625 C 474.539062 340.949219 475.332031 342.730469 477.394531 344.28125 C 484.851562 349.867188 491.867188 355.984375 497.6875 363.3125 C 499.855469 366.046875 502.394531 367.949219 505.636719 369.148438 C 507.578125 369.871094 509.496094 370.804688 511.171875 371.984375 C 518.875 377.449219 521.734375 385.21875 521.519531 394.367188 C 527.058594 395.054688 532.503906 396.324219 538.164062 396.339844 C 546.695312 396.375 554.683594 394.367188 562.402344 390.964844 C 563.019531 390.683594 563.691406 390.523438 564.34375 390.296875 C 566.140625 389.308594 567.9375 388.320312 569.738281 387.351562 C 579.75 381.203125 588.953125 373.976562 597.714844 366.152344 C 603.902344 360.617188 609.71875 354.730469 615.519531 348.808594 C 618.957031 345.300781 621.832031 341.285156 625.535156 338.023438 L 625.515625 338.042969 C 625.726562 337.832031 625.921875 337.636719 626.132812 337.425781 L 626.117188 337.460938 C 626.117188 336.914062 626.238281 336.457031 626.804688 336.226562 C 628.953125 333.265625 631.121094 330.324219 633.238281 327.328125 C 633.714844 326.640625 634.226562 326.144531 635.070312 326.09375 C 635.441406 325.546875 635.707031 324.984375 635.601562 324.3125 C 633.589844 325.054688 632.214844 324.402344 631.40625 322.445312 C 629.535156 317.96875 629.695312 313 628.019531 308.453125 C 627.492188 307.007812 629.269531 306.125 630.804688 306.988281 C 632.144531 307.746094 632.957031 308.980469 633.625 310.320312 C 635.6875 314.355469 636.605469 318.621094 636.128906 323.167969 C 646.054688 309.542969 654.023438 295.074219 656.527344 278.070312 C 656.984375 274.894531 656.773438 271.582031 658.128906 268.570312 C 657.019531 263.8125 656.949219 258.945312 656.421875 254.117188 C 654.621094 248.003906 651.007812 242.890625 647.359375 237.796875 C 646.777344 236.988281 646.089844 236.300781 646.300781 235.207031 C 646.300781 235.207031 646.320312 235.242188 646.320312 235.242188 C 645.824219 235.261719 645.367188 235.191406 645.136719 234.660156 C 644.1875 234.027344 643.285156 233.234375 642.265625 232.757812 C 640.359375 231.878906 638.773438 229.746094 636.234375 231.03125 C 635.882812 231.59375 637.257812 232.742188 635.601562 232.847656 C 635.546875 233.992188 634.84375 234.679688 633.890625 235.171875 C 632.410156 238.398438 629.992188 240.828125 627.261719 242.980469 C 626.734375 244.8125 625.535156 245.992188 623.699219 246.523438 C 617.230469 254.292969 609.066406 259.988281 600.570312 265.222656 Z M 464.753906 286.914062 C 463.097656 287.796875 461.40625 288.609375 459.710938 289.382812 C 458.832031 289.789062 457.863281 290.335938 457.070312 289.207031 C 456.378906 288.21875 456.855469 287.304688 457.351562 286.441406 C 458.195312 284.960938 459.414062 283.761719 460.71875 282.722656 C 465.214844 279.160156 469.425781 275.285156 474.433594 272.375 C 476.847656 270.964844 478.046875 265.078125 476.40625 262.878906 C 475.136719 261.148438 473.304688 261.785156 471.789062 262.3125 C 469.550781 263.089844 467.488281 264.304688 465.6875 265.890625 C 465.105469 266.402344 464.457031 267.195312 463.660156 266.507812 C 462.832031 265.785156 463.1875 264.832031 463.820312 264.128906 C 467.222656 260.375 471.136719 257.414062 476.335938 256.902344 C 479.527344 256.585938 482.789062 259.492188 483.917969 263.335938 C 484.800781 266.332031 484.957031 269.414062 484.429688 272.445312 C 483.53125 277.59375 482.332031 282.6875 480.832031 287.707031 C 479.597656 291.851562 477.183594 295.355469 474.839844 298.898438 C 473.976562 300.222656 472.898438 301.84375 471.101562 301.101562 C 469.160156 300.308594 469.550781 298.265625 469.886719 296.644531 C 470.714844 292.484375 471.3125 288.273438 472.96875 284.324219 C 473.234375 283.707031 473.269531 282.984375 473.394531 282.316406 L 473.199219 282.121094 C 470.167969 283.304688 467.628906 285.398438 464.753906 286.914062 Z M 562.632812 376.019531 C 563.902344 376.355469 565.347656 376.585938 565.417969 378.1875 C 565.472656 379.652344 564.148438 380.125 563.003906 380.390625 C 556.214844 381.925781 549.304688 382.910156 542.410156 381.855469 C 534.425781 380.621094 530.953125 374.257812 532.925781 365.183594 C 534.089844 359.824219 536.699219 355.242188 540.859375 351.578125 C 541.742188 350.820312 542.640625 350.097656 543.734375 350.800781 C 545.054688 351.648438 544.210938 352.757812 543.734375 353.671875 C 541.355469 358.238281 538.816406 362.730469 538.65625 368.070312 C 538.515625 372.882812 540.3125 375.035156 545.160156 375.457031 C 547.804688 375.6875 550.503906 375.492188 552.882812 375.492188 C 556.339844 375.757812 559.511719 375.210938 562.632812 376.019531 Z M 568.1875 361.691406 C 567.285156 360.566406 566.953125 359.296875 567.761719 357.851562 C 568.660156 356.246094 569.542969 357.128906 570.6875 357.460938 C 572.789062 358.097656 578.445312 355.367188 579.539062 353.496094 C 580.136719 352.492188 579.644531 351.875 579.046875 351.152344 C 577.140625 348.792969 577.671875 346.570312 579.558594 344.507812 C 583.648438 340.050781 588.8125 337.179688 594.292969 334.816406 C 595.863281 334.148438 597.484375 334.199219 598.402344 335.945312 C 599.320312 337.6875 598.03125 338.78125 596.851562 339.644531 C 593.730469 341.902344 590.539062 344.050781 587.367188 346.238281 C 586.027344 347.152344 585.375 347.910156 586.554688 349.761719 C 588.8125 353.304688 586.042969 360.070312 581.621094 362.660156 C 579.503906 363.894531 577.230469 364.390625 574.957031 364.246094 C 572.222656 364.390625 569.859375 363.824219 568.1875 361.691406 Z M 571.199219 313.757812 C 572.046875 314.039062 573 314.390625 573.015625 315.449219 C 573.035156 316.3125 572.257812 316.894531 571.535156 317.15625 C 566.492188 318.992188 561.328125 320.59375 555.933594 318.921875 C 551.261719 317.476562 549.058594 313.367188 550.082031 308.027344 C 550.75 304.558594 552.546875 301.578125 555.246094 299.234375 C 556.09375 298.496094 557.078125 297.878906 558.171875 298.707031 C 559.265625 299.535156 558.949219 300.589844 558.402344 301.632812 C 557.289062 303.746094 556.304688 305.914062 555.914062 308.277344 C 555.335938 311.730469 556.445312 313.070312 559.933594 313.226562 C 561.308594 313.296875 562.703125 313.246094 564.097656 313.246094 C 566.492188 313.351562 568.890625 312.980469 571.199219 313.757812 Z M 591.316406 352.140625 C 591.722656 348.105469 594.171875 345.320312 597.292969 343.046875 C 597.890625 342.605469 598.683594 342.183594 599.460938 342.851562 C 600.253906 343.558594 600.199219 344.507812 599.832031 345.300781 C 599.125 346.816406 598.207031 348.226562 597.414062 349.707031 C 596.9375 350.589844 596.464844 351.613281 597.167969 352.457031 C 597.820312 353.25 598.808594 352.722656 599.671875 352.546875 C 601.207031 352.230469 602.757812 351.929688 604.308594 351.71875 C 604.835938 351.648438 605.542969 351.558594 605.808594 352.300781 C 606.035156 352.914062 605.753906 353.445312 605.332031 353.902344 C 603.003906 356.386719 599.953125 357.410156 597.132812 358.167969 C 593.644531 358.292969 591 355.417969 591.316406 352.140625 Z M 448.941406 416.960938 C 446.613281 417.4375 447.109375 418.527344 447.972656 419.796875 C 449.398438 421.894531 451.023438 423.816406 453.101562 425.3125 C 456.59375 427.109375 460.328125 427.921875 464.242188 427.867188 C 466.90625 427.515625 469.054688 425.929688 471.382812 424.800781 C 473.289062 420.34375 473.691406 415.707031 473.304688 410.933594 C 473.039062 407.707031 472.96875 407.585938 470.113281 408.90625 C 465.371094 411.074219 460.628906 413.292969 455.570312 414.722656 C 453.367188 415.480469 451.214844 416.5 448.941406 416.960938 Z M 480.09375 402.28125 C 479.6875 403.019531 479.015625 403.601562 479.96875 404.554688 C 482.347656 406.949219 484.835938 409.207031 488.0625 410.332031 C 490.527344 411.195312 493.15625 411.8125 495.324219 409.804688 C 497.441406 407.847656 497.191406 405.257812 496.714844 402.632812 C 496.207031 399.882812 495.09375 397.292969 495.589844 394.261719 C 495.921875 392.199219 494.40625 390.367188 491.796875 390.367188 C 488.996094 395.441406 484.941406 399.265625 480.09375 402.28125 Z M 427.308594 431.480469 C 431.875 434.144531 435.382812 432.714844 436.902344 427.710938 C 437.535156 425.613281 437.625 423.445312 437.695312 421.277344 C 437.765625 419.566406 437.304688 419.199219 435.507812 419.339844 C 428.914062 419.832031 422.304688 419.886719 415.78125 418.511719 C 415.78125 418.511719 415.726562 418.722656 415.726562 418.722656 C 418.566406 423.921875 422.128906 428.46875 427.308594 431.480469 Z M 504.949219 377.09375 C 501 374.117188 500.261719 374.503906 499.21875 378.3125 C 498.972656 379.246094 498.285156 380.039062 497.828125 380.917969 C 496.789062 382.859375 494.707031 384.851562 498.851562 385.960938 C 500.242188 386.332031 501.265625 387.953125 502.535156 388.886719 C 505.039062 390.71875 507.789062 392.039062 510.871094 392.570312 C 512.371094 392.832031 513.5 392.515625 513.234375 390.59375 C 512.320312 384.972656 509.550781 380.585938 504.949219 377.09375 Z M 504.949219 377.09375 " fill-opacity="1" fill-rule="nonzero"/><path fill="#3e3d4a" d="M 244.300781 275.832031 C 248.65625 267.636719 251.121094 258.699219 254.472656 250.101562 C 255.9375 246.347656 257.644531 242.699219 260.0625 239.421875 C 260.21875 239.226562 260.378906 239.03125 260.535156 238.839844 C 260.535156 238.839844 260.519531 238.875 260.519531 238.875 C 260.871094 238.804688 261.117188 238.625 261.101562 238.238281 L 261.082031 238.257812 C 262.617188 238.519531 263.710938 237.5 264.925781 236.917969 C 274.113281 232.441406 283.808594 229.78125 293.996094 229.445312 C 309.300781 228.933594 323.136719 233.957031 336.324219 241.199219 C 344.734375 245.816406 352.878906 250.910156 361.730469 254.699219 C 372.007812 259.105469 382.726562 261.238281 393.867188 260.074219 C 408.976562 258.488281 423.097656 253.449219 436.777344 247.015625 C 456.785156 237.605469 475.28125 225.515625 494.390625 214.5 C 514.785156 202.746094 536.664062 197.703125 560.183594 200.136719 C 576.804688 201.847656 592.566406 206.515625 607.269531 214.339844 C 617.335938 219.679688 626.945312 225.796875 633.90625 235.207031 C 632.425781 238.433594 630.011719 240.863281 627.277344 243.015625 C 625.003906 241.65625 622.554688 241.148438 619.910156 241.148438 C 611.324219 241.128906 603.742188 244.566406 596.128906 247.898438 C 587.261719 251.773438 578.796875 256.671875 569.457031 259.421875 C 553.535156 264.09375 539.695312 261.027344 528.871094 247.367188 C 522.84375 239.773438 515.597656 233.570312 505.636719 232 C 495.394531 230.398438 485.644531 232.601562 476.195312 236.777344 C 459.570312 244.144531 447.917969 256.671875 438.664062 271.882812 C 434.875 278.121094 431.3125 284.570312 425.847656 289.628906 C 421.652344 293.488281 416.1875 295.585938 410.175781 292.027344 C 407.777344 290.617188 405.363281 289.257812 403.300781 287.390625 C 395.332031 280.164062 386.269531 277.0625 375.460938 279.179688 C 366.402344 280.941406 357.710938 283.847656 349.089844 287.019531 C 341.171875 289.929688 333.097656 292.238281 324.671875 292.820312 C 313.761719 293.578125 302.988281 292.449219 292.359375 289.648438 C 276.246094 285.382812 260.820312 278.71875 244.300781 275.832031 Z M 329.960938 217.40625 C 325.816406 216.828125 321.691406 216.226562 317.566406 215.644531 C 308.613281 214.851562 299.726562 215.242188 290.964844 217.425781 C 286.347656 218.570312 282.042969 220.492188 277.867188 222.710938 C 276.757812 223.3125 275.699219 224.121094 274.324219 224.070312 C 273.792969 226.097656 271.167969 226.183594 270.566406 228.125 C 274.992188 227.117188 279.363281 225.957031 283.824219 225.164062 C 299.304688 222.394531 314.058594 224.984375 328.375 231.136719 C 339.324219 235.84375 349.160156 242.609375 359.84375 247.792969 C 370.066406 252.742188 380.769531 255.738281 392.210938 254.789062 C 402.117188 253.976562 411.636719 251.28125 420.910156 247.792969 C 440.285156 240.496094 457.898438 229.851562 475.507812 219.1875 C 486.421875 212.578125 497.28125 205.847656 509.339844 201.386719 C 525.382812 195.46875 541.917969 193.652344 558.914062 195.359375 C 580.578125 197.527344 600.554688 204.4375 618.570312 216.6875 C 625.09375 221.125 631.617188 225.726562 635.617188 232.882812 C 637.273438 232.777344 635.898438 231.628906 636.253906 231.066406 C 636.429688 228.210938 635.476562 225.601562 634.3125 223.082031 C 629.234375 212.101562 621.53125 203.132812 612.347656 195.429688 C 600.058594 185.121094 586.0625 177.632812 571.746094 170.53125 C 561.382812 165.382812 550.75 163.003906 539.238281 163.214844 C 528.941406 163.410156 518.699219 163.78125 508.492188 165.152344 C 500.332031 166.246094 492.449219 168.042969 485.152344 172.257812 C 471.824219 179.976562 459.90625 189.5625 448.183594 199.449219 C 440.777344 205.6875 433.320312 211.875 424.664062 216.421875 C 409.875 224.191406 394.113281 226.132812 377.773438 223.769531 C 374.035156 223.222656 370.367188 222.75 366.613281 222.820312 C 358.554688 222.941406 350.710938 221.339844 342.882812 219.769531 C 338.582031 218.996094 334.28125 218.203125 329.960938 217.40625 Z M 474.855469 536.921875 C 469.972656 545.1875 469.019531 554.175781 470.113281 563.5 C 471.804688 577.917969 476.109375 591.820312 478.382812 606.113281 C 479.105469 610.625 478.683594 615.171875 478.664062 619.71875 C 496.433594 627.15625 514.910156 630.398438 534.144531 628.902344 C 539.625 628.476562 545.144531 628.019531 550.433594 626.308594 C 555.246094 618.167969 553.269531 609.726562 551.527344 601.285156 C 550.011719 593.953125 548.316406 586.65625 547.648438 579.167969 C 546.554688 566.8125 550.292969 555.78125 556.921875 545.542969 C 557.289062 544.976562 557.503906 544.324219 557.785156 543.707031 C 553.816406 543.816406 549.921875 543.25 546.0625 542.476562 C 528.46875 538.933594 511.984375 532.746094 497.441406 521.960938 C 496.046875 520.9375 494.867188 519.421875 492.925781 519.28125 C 485.855469 524.09375 479.28125 529.417969 474.855469 536.921875 Z M 389.371094 302.617188 C 390.113281 302.742188 390.835938 302.863281 391.574219 302.988281 C 393.089844 303.042969 394.609375 303.113281 396.125 303.164062 C 397.691406 303.339844 399.261719 303.515625 400.832031 303.691406 C 407.210938 304.363281 413.59375 305.015625 419.835938 306.601562 C 430.605469 308.167969 441.0625 310.953125 451.128906 315.058594 C 459.007812 318.269531 466.429688 322.320312 473.269531 327.414062 C 473.128906 323.113281 472.671875 318.796875 473.289062 314.496094 C 473.5 312.964844 472.882812 312.417969 471.226562 312.699219 C 459.835938 314.585938 448.21875 307.5 444.214844 296.273438 C 441.75 289.347656 441.679688 282.402344 443.96875 275.40625 C 444.515625 273.734375 445.433594 272.148438 445.378906 270.3125 C 443.160156 272.339844 441.925781 275.074219 440.285156 277.523438 C 436.355469 283.445312 432.953125 289.769531 427.167969 294.210938 C 421.261719 298.742188 414.988281 299.5 408.289062 296.0625 C 405.554688 294.652344 402.769531 293.191406 400.601562 291.058594 C 391.894531 282.457031 381.703125 281.328125 370.386719 284.289062 C 362.433594 286.371094 354.710938 289.117188 347.007812 291.902344 C 327.300781 299.039062 307.464844 298.636719 287.617188 292.855469 C 274.730469 289.101562 261.964844 284.890625 249.128906 280.90625 C 246.664062 280.148438 244.125 279.761719 241.550781 279.726562 C 237.441406 283.742188 232.488281 286.371094 227.164062 288.378906 C 221.328125 290.582031 215.351562 292.324219 209.359375 294.070312 C 201.320312 296.398438 193.933594 299.957031 188.363281 306.355469 C 181.734375 313.96875 178.277344 322.796875 179.476562 333.089844 C 185.71875 326.78125 192.648438 321.441406 201.125 318.460938 C 208.089844 316.011719 215.246094 315.289062 222.652344 315.78125 C 238.605469 316.875 253.042969 323.027344 267.660156 328.664062 C 268.398438 328.417969 269.191406 328.261719 269.898438 327.941406 C 288.445312 319.449219 307.660156 312.945312 327.5625 308.453125 C 345.617188 304.363281 363.828125 301.703125 382.410156 302.441406 C 384.734375 302.511719 387.0625 302.566406 389.371094 302.617188 Z M 408.410156 525.273438 C 409.257812 527.179688 410.261719 529.011719 410.933594 530.96875 C 413.929688 539.761719 416.734375 548.625 419.816406 557.386719 C 426.003906 575.027344 434.855469 590.957031 449.644531 602.976562 C 457.367188 609.25 465.671875 614.554688 475.015625 618.117188 C 475.050781 611.734375 473.128906 605.671875 471.824219 599.539062 C 469.375 587.980469 466.535156 576.488281 465.179688 564.75 C 463.078125 546.6875 468.4375 531.441406 483.210938 520.09375 C 485.082031 518.648438 486.984375 517.238281 488.871094 515.8125 C 482.15625 509.203125 475.472656 502.523438 468.6875 495.984375 C 465.285156 492.707031 462.675781 488.6875 458.847656 485.832031 C 437.445312 493.113281 423.0625 509.359375 408.410156 525.273438 Z M 554.1875 563.554688 C 551.457031 572.453125 552.691406 581.246094 554.433594 590.09375 C 556.003906 598.09375 558.613281 605.902344 558.453125 614.203125 C 558.382812 617.78125 558.207031 621.289062 557.078125 624.6875 C 565.894531 622.34375 573.792969 618.167969 581.054688 612.757812 C 590.027344 606.078125 597.734375 597.917969 606.140625 590.585938 C 613.953125 583.785156 622.238281 578.726562 633.21875 581.210938 C 640.042969 567.324219 637.558594 553.914062 631.140625 540.695312 C 630.1875 538.757812 629.34375 536.765625 628.441406 534.792969 C 627.753906 534.84375 627.050781 534.792969 626.398438 534.96875 C 608.804688 539.691406 591.035156 543.214844 572.734375 543.886719 C 569.808594 543.992188 566.597656 543.460938 563.761719 544.925781 C 560.058594 550.863281 556.269531 556.75 554.1875 563.554688 Z M 641.664062 553.667969 C 643.585938 562.40625 643.355469 570.902344 639.335938 579.097656 C 638.863281 580.046875 638.667969 581.160156 638.332031 582.179688 C 649.898438 584.523438 660.703125 583.519531 670.066406 575.394531 C 676.589844 569.738281 680.113281 562.355469 682.6875 554.371094 C 686.636719 542.191406 684.960938 531.019531 676.730469 521.027344 C 664.6875 524.289062 652.628906 527.476562 640.660156 530.894531 C 638.296875 531.566406 635.511719 531.496094 633.679688 533.628906 C 636.65625 540.183594 640.097656 546.546875 641.664062 553.667969 Z M 230.496094 321.828125 C 210.699219 317.597656 193.722656 322.214844 180.042969 337.53125 C 180.113281 339.433594 180.605469 341.230469 181.167969 343.027344 C 184.183594 352.6875 189.121094 361.269531 195.574219 369.023438 C 196.894531 369.128906 197.757812 368.214844 198.730469 367.578125 C 214.488281 357.304688 230.53125 347.558594 247.28125 338.976562 C 251.933594 336.597656 256.570312 334.148438 261.207031 331.730469 C 251.105469 328.03125 241.09375 324.082031 230.496094 321.828125 Z M 664.792969 279.847656 C 667.28125 297.03125 662.625 312.839844 655.980469 328.402344 C 650.902344 340.296875 644.945312 351.824219 641.242188 364.28125 C 637.398438 377.183594 634.523438 390.277344 634.542969 403.796875 C 634.542969 411.230469 636.640625 418.40625 638.210938 425.628906 C 640.835938 437.71875 642.882812 449.84375 642.230469 462.289062 C 645.347656 462.09375 648.46875 461.882812 651.589844 461.6875 C 651.183594 458.570312 650.777344 455.449219 650.355469 452.332031 C 648.945312 442.089844 648.503906 431.78125 650.074219 421.59375 C 652.929688 403.144531 657.195312 384.992188 663.753906 367.421875 C 669.820312 351.1875 672.515625 334.234375 672.972656 316.964844 C 673.222656 307.765625 671.597656 298.671875 670.734375 289.542969 C 669.660156 278.421875 667.652344 267.496094 665.429688 256.550781 C 663.191406 245.484375 655.398438 239.914062 646.320312 235.261719 C 646.105469 236.351562 646.792969 237.039062 647.375 237.851562 C 651.027344 242.945312 654.640625 248.054688 656.4375 254.171875 C 661.339844 262.03125 663.488281 270.789062 664.792969 279.847656 Z M 467.894531 177.542969 C 466.445312 177.542969 465.214844 178.214844 463.996094 178.832031 C 453.558594 184.257812 443.441406 190.214844 433.445312 196.4375 C 422.550781 203.222656 411.671875 210.078125 399.878906 215.277344 C 395.011719 217.425781 389.917969 218.960938 384.292969 220.914062 C 401.414062 221.796875 416.449219 217.671875 430.007812 208.296875 C 438.292969 202.550781 445.75 195.730469 453.542969 189.367188 C 458.355469 185.4375 463.203125 181.578125 468.050781 177.683594 Z M 637.609375 219.664062 C 635.210938 209.988281 630.664062 201.371094 624.40625 193.703125 C 620.140625 188.453125 616.242188 182.8125 609.878906 179.515625 C 601.574219 175.21875 592.917969 171.957031 583.980469 169.367188 C 581.425781 168.625 578.851562 167.710938 575.714844 167.585938 C 601.503906 180.679688 625.410156 195.253906 637.839844 223.277344 C 638.105469 221.777344 637.875 220.738281 637.609375 219.664062 Z M 659.398438 238.257812 C 658.414062 232.917969 655.539062 228.421875 652.894531 223.824219 C 652.472656 223.101562 651.90625 222.675781 650.9375 223.136719 C 648.328125 224.335938 645.878906 225.78125 643.675781 227.628906 C 642.617188 228.511719 642.632812 229.761719 642.953125 230.90625 C 643.285156 232.105469 644.433594 231.664062 645.226562 231.648438 C 648.011719 231.59375 650.355469 232.777344 652.683594 234.117188 C 654.957031 235.4375 656.824219 237.429688 659.398438 238.257812 Z M 642.988281 223.804688 C 645.136719 222.535156 646.988281 221.425781 648.839844 220.351562 C 649.652344 219.875 649.984375 219.382812 649.332031 218.484375 C 645.84375 213.761719 642.371094 209.019531 638.191406 204.773438 C 640.167969 210.976562 642.582031 217.019531 642.988281 223.804688 Z M 468.035156 177.683594 C 468.121094 177.5625 468.210938 177.4375 468.296875 177.316406 C 468.15625 177.386719 468.015625 177.472656 467.894531 177.542969 C 467.894531 177.542969 468.035156 177.683594 468.035156 177.683594 Z M 519.597656 397.996094 C 528.027344 409.628906 536.894531 420.960938 544.808594 432.980469 C 547.71875 437.402344 550.046875 442.214844 553.570312 446.234375 C 553.449219 434.054688 553.886719 421.964844 557.113281 410.085938 C 558.964844 403.285156 561.804688 396.886719 564.359375 390.367188 C 563.707031 390.59375 563.039062 390.753906 562.421875 391.035156 C 554.699219 394.453125 546.714844 396.445312 538.179688 396.410156 C 532.523438 396.394531 527.09375 395.125 521.539062 394.4375 C 520.886719 395.617188 520.25 396.816406 519.597656 397.996094 Z M 618.660156 359.558594 C 610.144531 373.128906 601.488281 386.613281 595.054688 401.363281 C 592.160156 408.007812 589.957031 414.828125 589.253906 422.089844 C 588.246094 432.292969 592.25 441.015625 596.992188 449.582031 C 599.390625 453.898438 602.121094 458.058594 603.621094 462.816406 C 606.28125 464.386719 608.980469 462.957031 611.660156 462.90625 C 620.015625 462.78125 628.371094 463.046875 636.710938 462.269531 C 637.996094 448.910156 635.652344 435.835938 632.410156 423.058594 C 627.472656 403.671875 629.996094 384.886719 634.949219 366.0625 C 638.246094 353.550781 644.097656 342.078125 649.035156 330.234375 C 653.386719 319.765625 658.042969 309.402344 659.71875 297.984375 C 661.058594 288.835938 660.421875 279.902344 658.554688 270.949219 C 658.394531 270.171875 658.289062 269.398438 658.164062 268.621094 C 656.789062 271.636719 657.019531 274.949219 656.5625 278.121094 C 654.058594 295.128906 646.089844 309.597656 636.164062 323.21875 L 636.21875 323.203125 C 636.21875 323.714844 636.148438 324.191406 635.601562 324.417969 L 635.617188 324.367188 C 635.722656 325.054688 635.460938 325.617188 635.089844 326.144531 C 631.546875 338.234375 625.269531 348.984375 618.660156 359.558594 Z M 562.105469 407.320312 C 558.703125 419.480469 557.042969 431.816406 558.207031 444.488281 C 558.507812 447.820312 558.3125 451.21875 558.347656 454.570312 C 559 455.785156 559.636719 457 560.289062 458.234375 C 562.613281 457.96875 563.445312 459.960938 564.554688 461.300781 C 566.742188 463.910156 568.695312 466.710938 570.742188 469.425781 C 574.957031 468.632812 579.1875 467.890625 583.382812 467.027344 C 588.511719 465.988281 593.800781 465.796875 598.808594 464.066406 C 595.792969 456.3125 591.175781 449.335938 588.019531 441.632812 C 583.734375 431.164062 584.050781 420.589844 587.226562 410.035156 C 591.246094 396.65625 598.296875 384.726562 605.382812 372.832031 C 611.660156 362.308594 618.835938 352.335938 624.457031 341.40625 C 624.988281 340.367188 625.78125 339.398438 625.550781 338.113281 C 621.847656 341.371094 618.976562 345.390625 615.539062 348.898438 C 609.738281 354.820312 603.921875 360.707031 597.734375 366.238281 C 588.972656 374.0625 579.769531 381.289062 569.753906 387.441406 C 567.164062 394.03125 564.023438 400.445312 562.105469 407.320312 Z M 611.203125 247.105469 C 601.964844 249.816406 593.449219 254.257812 584.738281 258.257812 C 577.210938 261.714844 569.71875 265.097656 561.203125 265.835938 C 549.128906 266.914062 538.410156 264.5 529.699219 255.632812 C 526.035156 251.898438 522.648438 247.863281 518.859375 244.25 C 512.953125 238.574219 505.621094 235.914062 497.546875 236.070312 C 491.621094 236.195312 485.855469 237.816406 480.339844 240.144531 C 472.742188 243.351562 465.601562 247.28125 459.640625 253.097656 C 460.699219 253.289062 461.597656 252.8125 462.410156 252.25 C 465.8125 249.886719 469.65625 248.726562 473.65625 247.933594 C 482.226562 246.222656 489.929688 250.894531 491.515625 259.335938 C 493.171875 268.164062 498.445312 273.539062 506.238281 277.257812 C 518.664062 283.179688 531.605469 285.292969 545.304688 284.113281 C 555.703125 283.214844 565.699219 280.90625 575.464844 277.3125 C 578.5 276.183594 581.285156 274.386719 584.5625 273.925781 L 584.511719 273.945312 C 584.933594 273.1875 585.65625 273.328125 586.34375 273.308594 L 586.308594 273.34375 C 586.800781 272.058594 588.105469 271.898438 589.113281 271.355469 C 592.9375 269.292969 596.902344 267.496094 600.589844 265.222656 C 609.085938 259.988281 617.25 254.292969 623.753906 246.574219 C 619.503906 245.269531 615.328125 245.886719 611.203125 247.105469 Z M 611.203125 247.105469 " fill-opacity="1" fill-rule="nonzero"/><path fill="#4b0372" d="M 153.527344 402.03125 C 155.976562 399.636719 158.339844 397.132812 161.53125 395.671875 C 162.835938 402.753906 168.175781 406.527344 173.113281 410.632812 C 171.703125 402.738281 170.328125 395.089844 171.84375 387.230469 C 177.449219 382.136719 183.832031 378.082031 189.933594 373.625 C 191.886719 372.195312 194.234375 371.226562 195.574219 369.042969 C 196.894531 369.148438 197.757812 368.230469 198.730469 367.597656 C 214.488281 357.320312 230.53125 347.574219 247.28125 338.992188 C 251.933594 336.613281 256.570312 334.164062 261.207031 331.75 C 263.5 331.046875 265.648438 330.023438 267.660156 328.699219 C 268.398438 328.453125 269.191406 328.296875 269.898438 327.980469 C 288.445312 319.484375 307.660156 312.980469 327.5625 308.488281 C 345.617188 304.398438 363.828125 301.738281 382.410156 302.476562 C 384.472656 303.550781 386.535156 304.628906 388.613281 305.683594 C 389.214844 305.984375 389.9375 306.40625 390.484375 305.773438 C 390.921875 305.261719 390.449219 304.679688 390.183594 304.167969 C 389.917969 303.65625 389.652344 303.148438 389.390625 302.617188 C 390.128906 302.742188 390.851562 302.863281 391.59375 302.988281 C 392.722656 307.394531 393.496094 311.976562 397.339844 315.113281 C 396.230469 311.148438 395.417969 307.253906 396.160156 303.164062 C 397.726562 303.339844 399.296875 303.515625 400.867188 303.691406 C 400.320312 304.804688 399.015625 305.894531 399.824219 307.164062 C 400.65625 308.46875 401.996094 307.289062 403.085938 307.164062 C 407.671875 306.636719 410.050781 307.765625 412.132812 311.78125 C 412.925781 313.296875 413.945312 313.722656 415.5 313.121094 C 418.371094 312.027344 419.90625 309.773438 419.871094 306.582031 C 430.640625 308.152344 441.097656 310.9375 451.164062 315.042969 C 459.042969 318.25 466.464844 322.304688 473.304688 327.398438 C 474.328125 331.046875 474.734375 334.761719 474.628906 338.535156 C 474.558594 340.96875 475.351562 342.746094 477.414062 344.296875 C 484.871094 349.882812 491.886719 356 497.703125 363.332031 C 499.871094 366.0625 502.410156 367.964844 505.65625 369.164062 C 507.59375 369.886719 509.515625 370.820312 511.191406 372.003906 C 518.894531 377.464844 521.75 385.238281 521.539062 394.382812 C 520.902344 395.566406 520.25 396.761719 519.617188 397.945312 C 514.453125 402.136719 508.917969 400.410156 503.152344 398.5625 C 503.503906 400.164062 503.769531 401.292969 503.996094 402.4375 C 506.203125 413.011719 499.21875 420.183594 488.570312 418.351562 C 485.523438 417.824219 483 416.027344 480.09375 415.039062 C 479.351562 424.1875 478.417969 426.777344 474.449219 430.617188 C 473.941406 428.398438 472.195312 426.828125 471.402344 424.765625 C 473.304688 420.324219 473.710938 415.671875 473.324219 410.898438 C 473.058594 407.671875 472.988281 407.550781 470.132812 408.871094 C 465.390625 411.039062 460.648438 413.257812 455.585938 414.6875 C 455.394531 411.039062 456.734375 408.007812 459.097656 405.277344 C 459.695312 404.570312 461.316406 403.917969 460.523438 402.753906 C 459.800781 401.699219 458.335938 401.664062 456.980469 401.855469 C 448.976562 403.039062 445.273438 406.738281 444.324219 414.597656 C 443.652344 420.148438 448.273438 425.789062 453.085938 425.296875 C 456.574219 427.09375 460.3125 427.90625 464.226562 427.851562 C 465.054688 430.265625 466.800781 432.027344 468.582031 433.753906 C 459.414062 436.734375 451.601562 434.019531 444.675781 427.867188 C 444.464844 428.238281 444.339844 428.398438 444.289062 428.574219 C 441.730469 437.933594 439.261719 440.03125 429.53125 440.804688 C 427.097656 441 428.226562 442.125 428.808594 443.097656 C 432.265625 448.753906 436.019531 454.214844 439.898438 459.589844 C 441.203125 461.40625 443.070312 462.871094 443.671875 465.179688 C 443.035156 466.058594 442.367188 466.90625 441.785156 467.804688 C 441.027344 468.984375 440.972656 470.21875 441.835938 471.382812 C 442.664062 472.507812 443.792969 472.507812 445.011719 472.175781 C 446.332031 471.824219 447.65625 471.503906 448.996094 471.171875 C 453.261719 474.21875 455.550781 478.835938 458.460938 482.960938 C 459.0625 483.824219 458.953125 484.8125 458.832031 485.796875 C 437.429688 493.078125 423.042969 509.324219 408.394531 525.238281 C 403.882812 528.410156 400.125 532.464844 395.878906 535.953125 C 395.628906 536.164062 395.613281 536.660156 395.488281 537.03125 C 393.445312 539.496094 392.351562 539.496094 390.464844 537.046875 C 389.566406 535.867188 388.773438 534.597656 387.734375 533.558594 C 377.171875 522.929688 365.113281 514.453125 351.238281 508.671875 C 344.859375 506.011719 338.457031 503.457031 332.058594 500.847656 C 331.617188 499.667969 330.507812 499.121094 329.695312 498.308594 C 328.234375 496.867188 325.925781 496.722656 324.691406 494.945312 C 325.816406 494.734375 326.683594 494.484375 326.207031 492.898438 C 324.390625 486.835938 323.613281 480.597656 322.980469 474.324219 C 322.734375 471.839844 320.707031 470.871094 318.660156 472.296875 C 317.601562 473.039062 316.933594 474.078125 316.316406 475.277344 C 313.902344 480.050781 316.40625 483.71875 318.765625 487.523438 C 320.460938 490.257812 323.542969 491.84375 324.707031 494.980469 C 322.980469 494.945312 321.535156 494.132812 320.054688 493.359375 C 315.046875 490.730469 309.847656 490.363281 304.488281 492.105469 C 301.191406 492.070312 298.210938 490.449219 294.949219 490.238281 C 294.597656 490.082031 294.246094 489.867188 293.875 489.78125 C 267.800781 483.648438 241.691406 483.332031 215.476562 488.882812 C 204.441406 491.207031 193.757812 494.644531 183.199219 498.539062 C 183.921875 493.183594 185.984375 488.898438 191.765625 487.4375 C 192.539062 487.242188 193.84375 487.472656 193.738281 486.167969 C 193.652344 484.882812 192.523438 484.511719 191.378906 484.335938 C 189.28125 484 187.359375 483.929688 185.1875 482.679688 C 181.277344 480.421875 176.605469 479.136719 171.808594 480.121094 C 167.207031 481.074219 162.871094 482.644531 159.664062 486.328125 C 158.269531 487.914062 158.164062 491.367188 159.574219 492.28125 C 161.320312 493.429688 163.03125 493.640625 164.863281 491.878906 C 167.578125 489.269531 170.734375 487.136719 174.507812 486.378906 C 177.625 485.746094 180.519531 483.875 184.5 484.441406 C 183.304688 484.96875 182.703125 485.285156 182.070312 485.515625 C 178.753906 486.730469 177.132812 488.6875 177.203125 492.601562 C 177.257812 495.402344 178.4375 497.730469 178.789062 500.320312 C 174.71875 501.800781 171.03125 504.089844 167.402344 506.363281 C 145.433594 520.214844 125.566406 536.273438 112.433594 559.304688 C 111.675781 560.644531 110.8125 561.808594 109.046875 561.71875 C 106.597656 559.921875 105.46875 562.25 103.9375 563.339844 C 96.515625 565.984375 89.109375 568.609375 81.6875 571.253906 C 77.667969 562.9375 74.953125 554.175781 72.960938 545.171875 C 71.921875 540.5 71.761719 535.777344 71.992188 531.019531 C 74.035156 534.492188 75.710938 538.140625 76.875 542.015625 C 77.15625 542.933594 77.210938 544.308594 78.761719 544.289062 C 80.226562 544.273438 81.035156 543.53125 81.671875 542.226562 C 83.222656 539.019531 82.992188 536.535156 80.648438 533.804688 C 78.25 531.003906 75.21875 528.976562 72.042969 527.179688 C 72.0625 526.773438 72.078125 526.382812 72.078125 525.980469 C 73.929688 526.261719 75.78125 526.542969 77.632812 526.824219 C 83.1875 527.652344 87.664062 525.222656 91.683594 521.855469 C 93.695312 520.164062 93.324219 518.71875 91.015625 517.503906 C 87.824219 515.8125 84.949219 516.023438 81.933594 518.277344 C 79.203125 520.339844 76.082031 521.910156 72.574219 522.4375 C 73.277344 514.59375 75.886719 507.246094 78.496094 499.894531 C 86.042969 478.714844 98.3125 460.382812 112.664062 443.308594 C 121.636719 432.628906 131.136719 422.421875 141.328125 412.871094 C 142.332031 411.9375 143.195312 410.808594 144.519531 410.246094 C 145.71875 410.84375 146.6875 411.847656 148.308594 411.320312 C 155.464844 408.992188 161.25 412.941406 167.753906 415.445312 C 166.183594 416.289062 165.164062 415.480469 164.246094 415.234375 C 157.492188 413.398438 154.566406 416.253906 151.375 422.457031 C 150.617188 423.9375 149.242188 426.300781 150.988281 427.585938 C 152.417969 428.625 153.792969 426.316406 155.289062 425.683594 C 155.644531 425.542969 155.871094 425.15625 156.1875 424.925781 C 161.300781 421.347656 166.730469 420.113281 172.601562 422.933594 C 173.5 423.355469 174.398438 423.726562 175 422.917969 C 175.722656 421.929688 174.945312 420.835938 174.1875 420.414062 C 170.34375 418.386719 169.09375 414.226562 166.46875 411.214844 C 162.886719 407.074219 159.273438 403.074219 153.527344 402.03125 Z M 336.027344 500.902344 C 336.078125 500.953125 336.132812 501.007812 336.183594 501.058594 C 336.113281 501.007812 336.0625 500.972656 335.992188 500.917969 C 333.664062 495.964844 332.921875 490.785156 333.628906 485.355469 C 333.804688 483.964844 334.070312 482.148438 331.902344 481.902344 C 329.996094 481.691406 329.113281 482.996094 328.550781 484.632812 C 326.894531 489.585938 330.773438 498.046875 336.027344 500.902344 Z M 395.472656 319.042969 C 395.507812 319.132812 395.507812 319.21875 395.558594 319.289062 C 395.59375 319.324219 395.683594 319.324219 395.734375 319.34375 C 395.628906 319.253906 395.542969 319.167969 395.4375 319.097656 C 393.796875 314.144531 390.023438 311.09375 385.847656 308.453125 C 383.34375 306.882812 380.539062 306.265625 377.613281 306.707031 C 375.746094 306.988281 374.105469 307.886719 374.070312 310.019531 C 374.035156 312.046875 375.761719 312.523438 377.347656 312.769531 C 379.289062 313.085938 381.261719 313.191406 383.21875 313.4375 C 387.890625 314.019531 391.488281 316.945312 395.472656 319.042969 Z M 475.738281 405.222656 C 475.753906 405.3125 475.753906 405.398438 475.808594 405.46875 C 475.824219 405.503906 475.914062 405.503906 475.96875 405.523438 C 475.878906 405.433594 475.773438 405.347656 475.683594 405.277344 C 475.683594 404.589844 475.824219 403.867188 475.683594 403.214844 C 474.222656 396.058594 475.351562 389.289062 478.488281 382.769531 C 479.035156 381.625 479.492188 380.425781 479.386719 379.070312 C 479.226562 376.636719 478.03125 375.667969 475.683594 376.230469 C 472.671875 376.9375 471.367188 379.402344 470.644531 381.925781 C 468.226562 390.523438 470.75 398.171875 475.738281 405.222656 Z M 480.09375 402.28125 C 479.6875 403.019531 479.015625 403.601562 479.96875 404.554688 C 482.347656 406.949219 484.835938 409.207031 488.0625 410.332031 C 490.527344 411.195312 493.15625 411.8125 495.324219 409.804688 C 497.441406 407.847656 497.191406 405.257812 496.714844 402.632812 C 496.207031 399.882812 495.09375 397.292969 495.589844 394.261719 C 495.921875 392.199219 494.40625 390.367188 491.796875 390.367188 C 484.5 388.285156 478.699219 394.171875 480.09375 402.28125 Z M 316.070312 432.273438 C 313.160156 428.734375 310.796875 425.03125 311.0625 420.097656 C 311.222656 417.136719 308.839844 416.027344 306.25 417.558594 C 303.90625 418.953125 302.777344 421.523438 303.585938 424.152344 C 304.664062 427.640625 306.761719 430.371094 309.722656 432.574219 C 313.902344 435.695312 319.4375 436.347656 323.246094 440.101562 C 323.753906 440.59375 324.8125 440.714844 325.414062 440.046875 C 326.03125 439.359375 325.253906 438.832031 324.902344 438.265625 C 322.488281 434.496094 321.535156 430.511719 323.175781 426.175781 C 323.773438 424.609375 324.515625 423.109375 325.148438 421.558594 C 325.429688 420.855469 325.996094 420.097656 325.289062 419.355469 C 324.441406 418.457031 323.597656 419.199219 322.855469 419.53125 C 317.621094 421.914062 315.328125 426.386719 316.527344 431.851562 C 316.367188 431.992188 316.226562 432.132812 316.070312 432.273438 Z M 405.835938 502.398438 C 402.929688 498.855469 400.566406 495.15625 400.832031 490.222656 C 400.988281 487.261719 398.609375 486.148438 396.019531 487.683594 C 393.671875 489.074219 392.546875 491.648438 393.355469 494.273438 C 394.429688 497.765625 396.53125 500.496094 399.492188 502.699219 C 403.667969 505.816406 409.203125 506.46875 413.011719 510.222656 C 413.523438 510.71875 414.582031 510.839844 415.179688 510.171875 C 415.796875 509.484375 415.023438 508.957031 414.671875 508.390625 C 412.253906 504.621094 411.304688 500.636719 412.941406 496.300781 C 413.542969 494.734375 414.28125 493.234375 414.917969 491.683594 C 415.199219 490.980469 415.761719 490.222656 415.058594 489.480469 C 414.210938 488.582031 413.367188 489.324219 412.625 489.65625 C 407.390625 492.035156 405.097656 496.511719 406.296875 501.976562 C 406.136719 502.117188 405.996094 502.257812 405.835938 502.398438 Z M 415.746094 418.722656 C 418.566406 423.921875 422.128906 428.46875 427.308594 431.5 C 431.875 434.160156 435.382812 432.734375 436.902344 427.726562 C 437.535156 425.628906 437.625 423.464844 437.695312 421.296875 C 437.765625 419.585938 437.304688 419.214844 435.507812 419.355469 C 428.914062 419.851562 422.304688 419.902344 415.78125 418.527344 C 415.867188 417.046875 415.058594 415.886719 414.335938 414.722656 C 412.519531 411.777344 410.667969 408.851562 408.886719 405.875 C 398.117188 387.898438 392.722656 368.511719 394.34375 347.503906 C 395.136719 337.25 399.84375 328.4375 406.367188 320.59375 C 409.273438 321.441406 411.410156 323.289062 412.820312 325.898438 C 413.824219 327.75 414.828125 328.613281 416.996094 327.328125 C 419.148438 326.058594 419.730469 324.683594 418.335938 322.550781 C 417.578125 321.40625 416.960938 320.152344 416.1875 319.027344 C 414.195312 316.1875 408.410156 314.515625 405.21875 315.78125 C 403.757812 316.363281 402.71875 317.121094 403.898438 318.847656 C 403.300781 319.378906 402.683594 319.871094 402.117188 320.417969 C 395.191406 327.328125 389.355469 334.957031 388.402344 345.054688 C 386.464844 365.429688 390.570312 384.621094 400.691406 402.421875 C 403.667969 407.65625 406.808594 412.855469 410.933594 417.292969 C 412.183594 418.632812 413.558594 420.238281 415.746094 418.722656 Z M 470.238281 404.375 C 469.832031 402.03125 469.921875 401.980469 468.617188 400.234375 C 463.625 393.609375 457.316406 388.355469 450.476562 383.808594 C 443.105469 378.910156 434.835938 378.824219 426.5 380.390625 C 423.308594 380.992188 422.480469 383.15625 423.730469 386.1875 C 425.566406 390.628906 431.453125 394.808594 436.214844 394.332031 C 440.585938 393.875 444.867188 393.980469 449.207031 394.507812 C 456.503906 395.40625 463.378906 397.1875 468.421875 403.089844 C 468.863281 403.617188 469.214844 404.234375 470.238281 404.375 Z M 309.847656 352.597656 C 309.847656 352.898438 309.863281 353.179688 309.863281 353.480469 C 308.292969 353.480469 306.707031 353.53125 305.140625 353.460938 C 303.234375 353.375 301.773438 354.21875 300.941406 355.753906 C 298.96875 359.347656 298.015625 363.261719 298.105469 367.367188 C 298.121094 368.125 298.246094 369.042969 299.179688 369.289062 C 299.9375 369.480469 300.449219 368.902344 300.90625 368.355469 C 302.671875 366.238281 304.347656 364.035156 306.179688 361.992188 C 308.648438 359.226562 311.875 358.46875 315.433594 359.011719 C 316.296875 359.15625 317.269531 359.808594 317.832031 358.820312 C 318.429688 357.761719 317.585938 357.039062 316.773438 356.386719 C 314.921875 354.871094 312.949219 353.726562 311.203125 351.824219 C 303.394531 343.3125 296.414062 341.707031 286.011719 344.808594 C 284.460938 345.265625 282.804688 348.421875 283.207031 349.957031 C 283.683594 351.804688 286.046875 352.949219 288.234375 352.386719 C 289.097656 352.15625 289.941406 351.894531 290.789062 351.648438 C 297.292969 349.796875 303.535156 351.71875 309.847656 352.597656 Z M 247.753906 416.132812 C 245.710938 412.835938 242.800781 410.105469 242.203125 406.105469 C 241.355469 400.550781 240.546875 395.019531 241.585938 389.363281 C 242.433594 384.726562 239.980469 380.179688 235.839844 378.066406 C 233.828125 377.042969 232.277344 377.273438 231.378906 379.652344 C 229.597656 384.339844 229.773438 389.167969 230.566406 393.945312 C 231.605469 400.128906 235.945312 404.589844 239.46875 409.417969 C 241.621094 412.378906 244.035156 415.039062 247.753906 416.132812 Z M 464.492188 391.882812 C 465.125 391.246094 464.914062 390.402344 464.914062 389.660156 C 464.914062 380.355469 465.902344 371.175781 468.050781 362.117188 C 468.386719 360.742188 469.234375 359.261719 467.539062 358.097656 C 465.757812 356.898438 463.714844 356.386719 461.953125 357.515625 C 458.109375 359.984375 454.933594 363.332031 454.917969 368.179688 C 454.898438 376.550781 458.742188 383.757812 462.851562 390.769531 C 463.167969 391.316406 463.625 391.953125 464.492188 391.882812 Z M 383.132812 418.210938 C 382.65625 412.5 382.882812 406.828125 385.953125 401.664062 C 386.957031 399.953125 386.902344 398.207031 385.210938 397.257812 C 383.464844 396.289062 381.316406 396.515625 380.222656 398.402344 C 377.4375 403.109375 376.714844 408.21875 378.140625 413.523438 C 379.339844 418 383.519531 420.890625 384.648438 425.453125 C 384.824219 426.140625 385.511719 426.636719 386.269531 426.425781 C 386.902344 426.246094 387.0625 425.59375 387.042969 424.960938 C 386.816406 419.9375 390.058594 417.628906 394.0625 415.777344 C 395.472656 415.128906 397.992188 414.984375 397.726562 412.976562 C 397.445312 410.792969 394.925781 411.742188 393.445312 411.460938 C 387.449219 410.351562 384.472656 412.414062 383.132812 418.210938 Z M 450.15625 399.652344 C 448.058594 399.265625 446.472656 398.277344 444.761719 397.539062 C 442.875 396.710938 440.921875 395.757812 438.804688 395.96875 C 432.40625 396.605469 426.394531 400.675781 424.71875 408.289062 C 424.136719 410.898438 425.566406 412.5 427.644531 413.453125 C 429.988281 414.511719 432.953125 413.46875 433.761719 411.496094 C 436.300781 405.207031 441.394531 402.386719 447.691406 401.132812 C 448.535156 400.941406 449.488281 401.046875 450.15625 399.652344 Z M 238.289062 410.6875 C 233.492188 406.507812 228.347656 403.425781 222.050781 402.136719 C 217.222656 401.152344 214.117188 403.109375 211.332031 406.472656 C 210.082031 407.988281 210.257812 409.59375 211.15625 411.160156 C 211.984375 412.625 213.324219 412.167969 214.59375 411.917969 C 218.191406 411.214844 221.839844 411.109375 225.507812 411.089844 C 229.703125 411.039062 233.898438 410.457031 238.289062 410.6875 Z M 513.21875 390.59375 C 512.300781 384.972656 509.550781 380.585938 504.949219 377.09375 C 501 374.117188 500.261719 374.503906 499.21875 378.3125 C 498.972656 379.246094 498.285156 380.039062 497.828125 380.917969 C 496.789062 382.859375 494.707031 384.851562 498.851562 385.960938 C 500.242188 386.332031 501.265625 387.953125 502.535156 388.886719 C 505.039062 390.71875 507.789062 392.039062 510.871094 392.570312 C 512.371094 392.832031 513.480469 392.515625 513.21875 390.59375 Z M 265.402344 402.542969 C 265.332031 400.324219 265.121094 399.882812 263.410156 398.507812 C 257.082031 393.398438 248.285156 396.605469 246.734375 404.589844 C 246.503906 405.734375 245.710938 407.074219 246.785156 407.9375 C 248.019531 408.921875 248.882812 407.496094 249.820312 406.898438 C 253.554688 404.5 256.429688 404.625 259.992188 407.460938 C 261.066406 408.308594 262.160156 408.605469 263.128906 407.53125 C 264.398438 406.105469 265.332031 404.5 265.402344 402.542969 Z M 305.597656 327.609375 C 305.597656 327.113281 305.578125 326.621094 305.597656 326.128906 C 305.648438 324.964844 306.019531 323.660156 304.769531 322.902344 C 303.480469 322.128906 302.335938 322.761719 301.207031 323.503906 C 297.347656 325.96875 296.273438 329.246094 297.753906 333.671875 C 299.425781 338.730469 303.851562 341.195312 307.605469 344.296875 C 307.976562 344.597656 308.558594 344.792969 308.964844 344.4375 C 309.546875 343.910156 309 343.398438 308.804688 342.851562 C 307.007812 337.917969 305.808594 332.859375 305.597656 327.609375 Z M 245.761719 400.183594 C 246.203125 398.789062 246.414062 397.820312 246.804688 396.957031 C 248.53125 393.167969 250.433594 389.539062 254.71875 387.96875 C 257.277344 387.035156 258.351562 385.027344 257.433594 382.753906 C 256.515625 380.480469 254.703125 379.898438 252.355469 380.425781 C 244.96875 382.117188 239.679688 390.011719 245.761719 400.183594 Z M 314.921875 441.050781 C 315.0625 440.433594 314.589844 440.011719 314.128906 439.675781 C 310.851562 437.351562 307.554688 435.007812 303.621094 433.984375 C 298.246094 432.574219 293.679688 435.289062 292.429688 440.363281 C 292.128906 441.542969 292.289062 442.515625 293.132812 443.34375 C 293.960938 444.171875 294.96875 444.046875 295.882812 443.625 C 301.984375 440.894531 308.472656 441.226562 314.921875 441.050781 Z M 404.9375 511.191406 C 404.585938 510.683594 404.410156 510.207031 404.058594 509.941406 C 400.742188 507.492188 397.339844 505.128906 393.320312 504.074219 C 388.226562 502.75 384.101562 505.007812 382.445312 509.695312 C 382.003906 510.945312 381.703125 512.179688 382.742188 513.289062 C 383.855469 514.472656 385.015625 513.941406 386.25 513.449219 C 392.140625 511.121094 398.328125 511.230469 404.9375 511.191406 Z M 163.46875 465.566406 C 163.558594 466.253906 163.523438 466.976562 163.734375 467.609375 C 165.285156 472.367188 174.171875 477.867188 179.160156 477.164062 C 179.511719 477.109375 179.988281 476.96875 180.128906 476.703125 C 180.429688 476.140625 179.847656 475.875 179.511719 475.539062 C 175.371094 471.152344 171.597656 466.554688 169.585938 460.71875 C 168.988281 458.957031 166.890625 458.535156 165.867188 459.980469 C 164.6875 461.617188 163.222656 463.257812 163.46875 465.566406 Z M 378.40625 326.144531 C 378.601562 328.824219 380.117188 330.003906 382.285156 330.179688 C 385.777344 330.464844 391.171875 326.023438 391.839844 322.515625 C 392 321.6875 391.910156 320.929688 391.117188 320.4375 C 388.824219 318.992188 386.550781 317.617188 383.75 319.359375 C 381.035156 321.050781 379.023438 323.183594 378.40625 326.144531 Z M 316.878906 347.242188 C 316.878906 347.929688 316.933594 348.617188 316.863281 349.304688 C 316.652344 351.3125 317.515625 352.914062 319.226562 353.671875 C 320.863281 354.414062 321.074219 352.386719 321.957031 351.648438 C 322.769531 350.941406 323.5625 350.183594 324.285156 349.390625 C 326.136719 347.398438 326.875 345.109375 326.292969 342.359375 C 325.835938 340.210938 324.917969 338.730469 322.503906 338.625 C 319.984375 338.5 318.429688 339.785156 317.566406 342.007812 C 316.949219 343.679688 316.933594 345.460938 316.878906 347.242188 Z M 196.347656 472.226562 C 196.488281 470.378906 195.433594 468.5625 194.023438 467.027344 C 192.207031 465.054688 188.203125 466.042969 187.464844 468.632812 C 186.246094 472.898438 188.0625 476.5625 190.300781 479.945312 C 190.8125 480.722656 192.945312 482.433594 193.863281 480.40625 C 194.9375 477.957031 196.347656 475.488281 196.347656 472.226562 Z M 241.867188 423.074219 C 239.59375 422.527344 237.902344 423.921875 237 425.824219 C 235.820312 428.308594 233.863281 430.828125 235.574219 433.878906 C 236.808594 436.082031 238.976562 436.238281 240.6875 435.164062 C 243.578125 433.367188 245.65625 430.8125 245.710938 427.023438 C 245.761719 423.320312 245.800781 423.234375 241.867188 423.074219 Z M 313.902344 335.378906 C 313.671875 336.578125 314.464844 338.234375 315.59375 339.804688 C 316.105469 340.527344 316.84375 340.753906 317.128906 339.804688 C 318.042969 336.648438 320.636719 334.941406 322.769531 332.789062 C 324.300781 331.222656 324.390625 329.054688 323.632812 326.9375 C 323.066406 325.335938 321.78125 324.488281 320.265625 324.472656 C 318.078125 324.4375 316.757812 325.933594 315.75 327.765625 C 314.570312 329.882812 314.113281 332.171875 313.902344 335.378906 Z M 376.363281 416.871094 C 375.128906 412.820312 373.683594 408.941406 370.085938 406.351562 C 366.507812 403.761719 363.316406 404.128906 360.355469 407.300781 C 359.753906 407.953125 359.03125 408.554688 359.277344 409.59375 C 359.5625 410.84375 360.742188 410.984375 361.625 411.019531 C 364.390625 411.125 366.71875 412.378906 369.152344 413.46875 C 371.546875 414.527344 373.929688 415.585938 376.363281 416.871094 Z M 262.105469 411.214844 C 259.777344 411.109375 257.820312 411.8125 256.007812 412.800781 C 255 413.347656 253.910156 414.351562 254.207031 415.621094 C 254.507812 416.925781 255.8125 417.136719 257.082031 417.207031 C 260.429688 417.417969 263.761719 417.683594 266.496094 420.0625 C 267.710938 421.136719 269.015625 421.066406 270.039062 419.605469 C 270.957031 418.28125 271.996094 416.90625 270.445312 415.410156 C 268.066406 413.117188 265.472656 411.179688 262.105469 411.214844 Z M 248.089844 420.554688 C 246.453125 418.40625 244.105469 417.507812 241.902344 416.554688 C 236.984375 414.441406 231.90625 413.347656 226.863281 416.359375 C 225.242188 417.332031 224.363281 418.808594 225.03125 420.589844 C 225.773438 422.582031 227.710938 422.210938 229.121094 421.664062 C 235.328125 419.355469 241.566406 418.703125 248.089844 420.554688 Z M 188.082031 459.714844 C 188.027344 457.019531 186.707031 454.867188 184.855469 454.339844 C 182.933594 453.792969 181.644531 454.78125 180.660156 456.277344 C 178.5625 459.433594 179.972656 467.117188 183.074219 469.300781 C 183.691406 469.726562 184.289062 470.589844 185.101562 470.289062 C 186.054688 469.9375 185.578125 468.933594 185.628906 468.210938 C 185.753906 466.324219 186.210938 464.542969 187.109375 462.886719 C 187.675781 461.828125 188.257812 460.789062 188.082031 459.714844 Z M 339.058594 359.191406 C 339.179688 357.957031 338.898438 356.828125 338.140625 355.839844 C 336.5 353.746094 334.421875 352.703125 331.6875 353.355469 C 328.550781 354.113281 326.542969 356.160156 325.414062 359.050781 C 324.847656 360.492188 326.011719 360.601562 327.050781 360.6875 C 329.414062 360.898438 331.6875 361.359375 333.875 362.398438 C 336.714844 363.789062 338.988281 362.328125 339.058594 359.191406 Z M 208.582031 474.746094 C 203.71875 474.695312 199.628906 479.875 200.402344 483.824219 C 200.667969 485.179688 201.355469 484.652344 202.097656 484.457031 C 204.742188 483.734375 207.367188 483.082031 210.1875 483.136719 C 212.445312 483.171875 213.820312 480.988281 213.183594 478.800781 C 212.390625 476.085938 210.453125 474.851562 208.582031 474.746094 Z M 374.316406 430.882812 C 376.785156 430.863281 382.089844 428.082031 381.84375 426.777344 C 381.15625 423.144531 377.929688 423.902344 375.460938 423.375 C 375.269531 423.339844 375.074219 423.285156 374.878906 423.269531 C 371.53125 422.863281 369.414062 424.1875 369.203125 426.828125 C 368.992188 429.667969 370.527344 430.898438 374.316406 430.882812 Z M 343.835938 488.316406 C 341.066406 488.28125 337.769531 490.539062 336.925781 493.058594 C 336.148438 495.332031 337.558594 498.503906 339.324219 498.488281 C 342.441406 498.453125 346.320312 495.066406 346.832031 491.949219 C 347.21875 489.550781 346.214844 488.351562 343.835938 488.316406 Z M 74.863281 518.488281 C 82.445312 519.96875 86.324219 513.183594 85.003906 508.089844 C 84.578125 506.433594 83.449219 505.570312 81.777344 505.730469 C 80.402344 505.871094 79.132812 506.753906 79.308594 508.144531 C 79.855469 512.355469 77.757812 515.371094 74.863281 518.488281 Z M 362.242188 426.546875 C 363.5625 426.601562 364.566406 426.195312 365.34375 425.382812 C 366.613281 424.042969 368.214844 423.394531 369.945312 422.882812 C 370.527344 422.707031 371.582031 422.777344 371.476562 421.859375 C 371.40625 421.277344 370.789062 420.695312 370.296875 420.273438 C 368.199219 418.511719 362.453125 418.371094 360.160156 420.097656 C 358.925781 421.03125 357.5 422.070312 358.097656 423.992188 C 358.765625 426.070312 360.671875 426.210938 362.242188 426.546875 Z M 386.65625 432.203125 C 383.660156 432.328125 381.757812 433.683594 380.222656 435.570312 C 378.035156 438.25 379.007812 442.25 382.054688 443.535156 C 384.578125 444.59375 386.851562 443.167969 386.550781 440.453125 C 386.269531 437.808594 386.039062 435.199219 386.65625 432.203125 Z M 405.835938 502.398438 C 406.050781 502.644531 406.121094 503.28125 406.558594 502.945312 C 406.894531 502.699219 406.632812 502.242188 406.296875 501.992188 C 406.136719 502.117188 405.996094 502.257812 405.835938 502.398438 Z M 316.070312 432.273438 C 316.28125 432.523438 316.351562 433.15625 316.792969 432.820312 C 317.128906 432.574219 316.863281 432.117188 316.527344 431.871094 C 316.367188 431.992188 316.226562 432.132812 316.070312 432.273438 Z M 383.203125 419.816406 L 383.359375 419.832031 L 383.308594 419.640625 Z M 383.203125 419.816406 " fill-opacity="1" fill-rule="nonzero"/><g clip-path="url(#id2)"><path fill="#54376c" d="M 636.515625 24.289062 C 658.253906 48.628906 670.71875 78.074219 682.546875 107.84375 C 689.386719 125.042969 695.417969 142.542969 699.964844 160.5 C 700.125 161.152344 700.476562 161.789062 700.089844 162.808594 C 697.761719 161.59375 695.503906 160.414062 693.285156 159.234375 C 676.90625 150.5625 659.929688 143.210938 642.597656 136.675781 C 640.535156 135.898438 639.53125 134.839844 639.019531 132.585938 C 632.390625 103.769531 623.523438 75.679688 610.480469 49.066406 C 605.332031 38.5625 599.546875 28.414062 592.019531 19.371094 C 591.402344 18.632812 590.945312 17.734375 590.417969 16.90625 C 604.730469 17.910156 618.90625 19.917969 632.902344 23.074219 C 634.121094 23.371094 635.300781 23.882812 636.515625 24.289062 Z M 176.410156 552.34375 C 190.742188 549.894531 205.214844 548.625 219.726562 547.972656 C 231.976562 547.425781 244.265625 547.605469 256.535156 548.308594 C 269.191406 549.046875 281.691406 550.601562 294.136719 552.960938 C 304.222656 554.882812 314.359375 556.625 324.691406 556.222656 C 325.449219 556.1875 326.628906 557.277344 326.929688 555.867188 C 327.175781 554.722656 325.871094 554.28125 325.058594 553.859375 C 321.515625 551.992188 317.585938 551.429688 313.761719 550.457031 C 291.335938 544.765625 268.523438 542.105469 245.429688 541.433594 C 230.355469 540.996094 215.386719 542.085938 200.457031 544.007812 C 199.769531 544.097656 198.941406 544.519531 198.464844 544.007812 C 197.792969 543.269531 198.640625 542.546875 198.957031 541.910156 C 201.988281 535.902344 205.304688 530.050781 209.359375 524.640625 C 218.773438 512.144531 230.019531 502.1875 245.324219 497.21875 C 257.839844 493.148438 270.636719 492.105469 283.632812 491.964844 C 287.492188 491.929688 291.300781 491.542969 294.949219 490.222656 C 294.597656 490.0625 294.246094 489.851562 293.875 489.761719 C 267.800781 483.628906 241.691406 483.3125 215.476562 488.863281 C 204.441406 491.191406 193.757812 494.628906 183.195312 498.523438 C 181.804688 499.28125 180.445312 500.109375 178.84375 500.300781 C 174.769531 501.78125 171.085938 504.074219 167.453125 506.347656 C 145.488281 520.199219 125.621094 536.253906 112.484375 559.289062 C 111.726562 560.628906 110.863281 561.789062 109.101562 561.703125 C 107.496094 562.546875 105.804688 563.148438 103.988281 563.324219 C 96.566406 565.96875 89.144531 568.59375 81.742188 571.238281 C 76.117188 574.761719 71.375 579.34375 66.933594 584.207031 C 65.398438 585.882812 63.742188 587.625 63.546875 590.128906 C 64.921875 590.359375 65.378906 589.140625 66.121094 588.4375 C 72.519531 582.515625 79.078125 576.859375 87.292969 573.476562 C 114.019531 562.476562 141.855469 555.726562 170.363281 551.535156 C 171.492188 551.375 172.550781 551.339844 173.167969 552.554688 C 174.242188 552.484375 175.351562 552.539062 176.410156 552.34375 Z M 747.882812 143.636719 C 738.308594 90.675781 709.679688 52.609375 659.503906 31.601562 C 658.535156 31.199219 657.601562 30.476562 656.421875 30.828125 C 658.925781 34.597656 661.53125 38.316406 663.894531 42.175781 C 687.835938 81.582031 704.476562 123.933594 714.527344 168.871094 C 714.984375 170.917969 715.882812 172.152344 717.542969 173.277344 C 727.167969 179.871094 737.128906 185.984375 746.382812 193.140625 C 747.617188 194.09375 748.640625 195.394531 750.277344 195.765625 C 751.089844 178.300781 751 160.855469 747.882812 143.636719 Z M 358.132812 188.683594 C 359.367188 186.496094 359.542969 184.664062 358.820312 182.300781 C 349.847656 152.765625 337.894531 124.480469 323.351562 97.285156 C 317.128906 85.652344 310.339844 74.375 300.238281 65.546875 C 299.285156 65.597656 298.632812 66.234375 297.929688 66.761719 C 290.769531 72.03125 284.230469 77.96875 278.710938 84.96875 C 277.445312 86.570312 275.925781 88.035156 275.34375 90.113281 C 281.746094 97.480469 286.679688 105.796875 291.457031 114.238281 C 306.390625 140.726562 317.957031 168.609375 325.835938 197.988281 C 327.546875 204.382812 328.972656 210.851562 329.960938 217.40625 C 334.261719 218.203125 338.582031 218.996094 342.902344 219.789062 C 347.238281 209.054688 352.457031 198.746094 358.132812 188.683594 Z M 569.015625 15.511719 C 556.957031 15.089844 544.914062 14.71875 532.839844 14.984375 C 530.582031 15.035156 528.289062 14.71875 526.070312 15.371094 C 531.359375 21.273438 536.542969 27.25 541.105469 33.734375 C 557.308594 56.769531 568.152344 82.21875 575.21875 109.359375 C 575.820312 111.648438 576.929688 112.777344 579.132812 113.550781 C 593.5 118.59375 607.835938 123.773438 622.183594 128.867188 C 623.332031 129.273438 624.40625 130.136719 626.011719 129.820312 C 621.019531 115.4375 616.207031 101.214844 611.148438 87.082031 C 605.578125 71.503906 599.265625 56.242188 591.175781 41.773438 C 585.921875 32.378906 579.328125 24.023438 572.207031 16.003906 C 571.148438 15.847656 570.089844 15.546875 569.015625 15.511719 Z M 382.160156 31.496094 C 372.976562 33.628906 363.757812 35.746094 354.925781 39.164062 C 376.308594 64.664062 392.511719 93.160156 404.285156 124.230469 C 405.148438 126.488281 405.695312 126.734375 407.546875 125.042969 C 418.230469 115.246094 429.65625 106.449219 442.753906 100.050781 C 446.71875 98.113281 446.648438 98.925781 444.535156 94.5 C 432.933594 70.144531 418.707031 47.550781 399.808594 28.09375 C 393.816406 28.605469 387.996094 30.15625 382.160156 31.496094 Z M 329.328125 48.734375 C 322.523438 51.800781 315.699219 54.847656 309.617188 59.273438 C 317.285156 65.527344 323.492188 73.070312 328.867188 81.335938 C 344.453125 105.285156 355.929688 131.210938 365.695312 157.964844 C 367.054688 161.699219 368.324219 165.472656 369.820312 169.773438 C 376.871094 158.40625 384.929688 148.640625 393.375 139.210938 C 394.609375 137.835938 394.34375 136.621094 393.796875 135.160156 C 386.074219 114.011719 376.871094 93.550781 365.429688 74.144531 C 359.101562 63.394531 352.140625 53.050781 345.226562 42.671875 C 339.621094 43.832031 334.507812 46.40625 329.328125 48.734375 Z M 273.089844 106.484375 C 271.976562 104.511719 270.636719 102.660156 269.40625 100.757812 C 268.894531 101.710938 268.3125 102.625 267.90625 103.613281 C 261.523438 119.175781 259.460938 135.511719 260.097656 152.148438 C 261.03125 176.839844 266.867188 200.628906 274.339844 224.070312 C 275.714844 224.121094 276.757812 223.3125 277.882812 222.710938 C 282.0625 220.476562 286.363281 218.570312 290.984375 217.425781 C 299.746094 215.257812 308.628906 214.851562 317.585938 215.644531 C 306.265625 177.824219 292.515625 140.992188 273.089844 106.484375 Z M 455.816406 19.988281 C 441.679688 21.398438 427.59375 23.089844 413.59375 25.558594 C 417.472656 29.894531 421.511719 34.121094 425.230469 38.617188 C 438.523438 54.726562 449.398438 72.367188 458.214844 91.277344 C 458.847656 92.652344 459.429688 93.566406 461.300781 93.054688 C 474.1875 89.550781 487.265625 89.550781 500.402344 91.222656 C 501.898438 91.417969 502.761719 91.433594 502.003906 89.496094 C 495.695312 73.210938 488.132812 57.597656 477.816406 43.394531 C 471.753906 35.039062 464.632812 27.621094 457.597656 20.128906 C 456.980469 20.058594 456.398438 19.917969 455.816406 19.988281 Z M 472.6875 18.457031 C 480.601562 26.261719 487.847656 34.632812 494.109375 43.832031 C 504.136719 58.601562 511.507812 74.65625 517.429688 91.433594 C 518.011719 93.074219 518.542969 94.429688 520.570312 94.890625 C 531.957031 97.515625 543.046875 101.144531 554.171875 104.671875 C 556.269531 105.339844 558.261719 106.414062 560.621094 106.644531 C 560.570312 106.078125 560.585938 105.78125 560.5 105.5 C 553.113281 83.152344 543.855469 61.667969 531.09375 41.773438 C 525.1875 32.570312 518.207031 24.234375 511.066406 16.003906 C 498.214844 15.828125 485.453125 17.082031 472.6875 18.457031 Z M 411.566406 586.109375 C 411.867188 584.648438 411.566406 583.554688 409.804688 583.433594 C 408.535156 584.15625 407.863281 585.386719 407.265625 586.640625 C 402.277344 596.984375 394.34375 604.792969 385.492188 611.769531 C 372.199219 622.257812 357.058594 629.308594 341.171875 634.734375 C 314.589844 643.847656 287.070312 647.898438 259.074219 648.78125 C 246.308594 649.1875 233.527344 648.902344 220.746094 648.886719 C 218.050781 648.886719 215.441406 649.292969 212.886719 650.15625 C 212.339844 650.964844 212.179688 651.847656 212.285156 652.800781 C 215.140625 654.894531 218.542969 655.214844 221.894531 655.371094 C 235.539062 656.007812 249.183594 656.148438 262.847656 655.582031 C 277.496094 654.964844 292.003906 653.308594 306.425781 650.71875 C 328.957031 646.664062 350.710938 640.269531 370.914062 629.304688 C 388.171875 619.929688 403.316406 608.316406 410.933594 589.265625 C 411.144531 588.207031 411.355469 587.152344 411.566406 586.109375 Z M 786.261719 403.40625 C 784.566406 405.277344 783.652344 407.601562 782.628906 409.839844 C 780.160156 415.164062 777.09375 420.113281 773.425781 424.679688 C 768.859375 430.390625 764.117188 435.957031 759.515625 441.652344 C 758.582031 442.796875 756.871094 444.277344 758.089844 445.703125 C 759.5 447.378906 761.226562 445.808594 762.511719 444.859375 C 775.734375 435.128906 784.621094 422.441406 788.605469 406.421875 C 788.726562 404.730469 788.199219 403.53125 786.261719 403.40625 Z M 775.859375 397.027344 C 770.660156 404.941406 765.421875 412.835938 759.199219 420.007812 C 755.585938 424.1875 752.234375 428.574219 748.832031 432.945312 C 748.128906 433.84375 747.351562 435.058594 748.464844 436.132812 C 749.503906 437.140625 750.5625 436.1875 751.371094 435.605469 C 755.074219 432.980469 758.742188 430.230469 761.683594 426.757812 C 769.089844 418.050781 774.714844 408.21875 779.667969 397.960938 C 779.050781 394.929688 777.515625 395.6875 775.859375 397.027344 Z M 795.003906 418.386719 C 794.953125 416.429688 794.121094 416.167969 792.625 417.242188 C 789.238281 424.800781 784.355469 431.394531 779.207031 437.773438 C 775.488281 442.390625 771.398438 446.691406 767.539062 451.183594 C 766.957031 451.855469 765.863281 452.753906 766.761719 453.707031 C 767.539062 454.535156 768.648438 453.8125 769.511719 453.386719 C 773.707031 451.289062 777.394531 448.472656 780.601562 445.070312 C 785.890625 439.464844 789.34375 432.664062 793.082031 426.035156 C 793.734375 423.5 795.074219 421.136719 795.003906 418.386719 Z M 655.820312 30.316406 C 656.03125 30.492188 656.261719 30.6875 656.472656 30.863281 C 656.492188 30.402344 656.15625 30.351562 655.820312 30.316406 Z M 753.222656 410.367188 C 750.683594 411.867188 748.144531 413.363281 745.605469 414.863281 C 740.105469 419.496094 734.09375 423.640625 729.882812 429.597656 C 726.761719 434.019531 723.957031 438.726562 723.535156 444.363281 C 723.464844 445.191406 723.21875 446.320312 724.277344 446.707031 C 725.457031 447.148438 725.6875 445.914062 726.125 445.226562 C 728.367188 441.84375 730.324219 438.265625 732.808594 435.09375 C 739.332031 426.742188 746.769531 419.25 754.984375 412.519531 C 755.921875 411.761719 757.332031 411.074219 756.238281 409.433594 C 755.074219 409.207031 754.15625 409.824219 753.222656 410.367188 Z M 408.871094 317.863281 C 408.253906 316.753906 406.3125 318.019531 405.007812 318.445312 C 404.640625 318.566406 404.269531 318.691406 403.878906 318.8125 C 403.28125 319.34375 402.664062 319.835938 402.101562 320.382812 C 395.171875 327.292969 389.335938 334.921875 388.382812 345.019531 C 386.445312 365.394531 390.554688 384.585938 400.671875 402.386719 C 403.652344 407.621094 406.789062 412.820312 410.914062 417.257812 C 412.167969 418.597656 413.523438 420.203125 415.726562 418.6875 C 415.726562 418.6875 415.78125 418.476562 415.78125 418.476562 C 415.867188 416.996094 415.058594 415.832031 414.335938 414.667969 C 412.519531 411.726562 410.667969 408.800781 408.886719 405.820312 C 398.117188 387.847656 392.722656 368.460938 394.34375 347.453125 C 395.136719 337.195312 399.84375 328.382812 406.367188 320.542969 C 406.949219 319.34375 409.574219 319.148438 408.871094 317.863281 Z M 560.324219 460.964844 C 565.789062 470.886719 569.738281 481.65625 576.769531 490.695312 C 577.933594 492.195312 579.097656 494.75 581.285156 493.410156 C 583.292969 492.175781 581.300781 490.046875 580.824219 488.386719 C 578.816406 481.355469 574.515625 475.503906 570.722656 469.390625 C 568.679688 466.675781 566.722656 463.875 564.535156 461.265625 C 563.425781 459.925781 562.597656 457.933594 560.269531 458.199219 C 559.476562 459.152344 559.847656 460.101562 560.324219 460.964844 Z M 40.046875 684.46875 C 40.59375 684.980469 41.386719 685.683594 42.09375 684.960938 C 42.796875 684.257812 42.09375 683.445312 41.632812 682.863281 C 40.207031 680.980469 38.726562 679.144531 37.191406 677.347656 C 33.699219 673.242188 31.515625 668.695312 31.585938 663.160156 C 31.621094 661.0625 32.253906 659.089844 32.21875 657.011719 C 32.203125 656.410156 32.238281 655.742188 31.496094 655.582031 C 30.738281 655.40625 30.476562 656.042969 30.246094 656.589844 C 29.328125 658.789062 28.921875 661.097656 28.695312 663.425781 C 29.398438 672.113281 33.878906 678.742188 40.046875 684.46875 Z M 112.363281 579.21875 C 112.378906 575.519531 114.546875 573.722656 117.898438 572.945312 C 118.710938 572.769531 119.46875 572.523438 119.554688 571.535156 C 119.625 570.726562 119.113281 570.25 118.445312 569.949219 C 116.328125 569 112.503906 570.585938 111.023438 573.015625 C 109.046875 576.257812 109.382812 579.097656 112.34375 581.300781 C 112.363281 580.367188 112.363281 579.800781 112.363281 579.21875 Z M 101.839844 777.945312 C 101.804688 776.957031 101.398438 776.179688 100.285156 776.109375 C 99.351562 776.058594 98.789062 776.710938 98.59375 777.503906 C 98.257812 778.84375 98.101562 780.21875 97.890625 781.574219 C 96.601562 789.46875 100.023438 794.84375 107.742188 797.117188 C 108.414062 797.3125 109.242188 797.769531 109.648438 797.136719 C 110.335938 796.0625 109.011719 795.9375 108.519531 795.496094 C 104.464844 791.9375 100.832031 788.183594 101.855469 782.648438 C 101.855469 780.710938 101.890625 779.320312 101.839844 777.945312 Z M 164.667969 699.710938 C 165.796875 694.882812 168.476562 691.976562 173.765625 692.222656 C 174.664062 692.257812 175.335938 691.851562 175.441406 690.917969 C 175.546875 690.003906 174.910156 689.472656 174.207031 689.050781 C 171.71875 687.535156 167.453125 688.363281 165.214844 690.761719 C 162.359375 693.84375 161.9375 697.175781 164.050781 700.3125 C 164.28125 700.101562 164.617188 699.941406 164.667969 699.710938 Z M 545.179688 375.4375 C 540.347656 375.015625 538.535156 372.867188 538.675781 368.054688 C 538.832031 362.714844 541.371094 358.21875 543.75 353.65625 C 544.226562 352.738281 545.054688 351.628906 543.75 350.785156 C 542.640625 350.078125 541.742188 350.800781 540.878906 351.558594 C 536.699219 355.207031 534.109375 359.808594 532.945312 365.164062 C 530.96875 374.242188 534.445312 380.601562 542.429688 381.835938 C 549.324219 382.894531 556.234375 381.90625 563.019531 380.375 C 564.183594 380.109375 565.507812 379.632812 565.4375 378.171875 C 565.363281 376.566406 563.9375 376.335938 562.648438 376.003906 C 559.53125 375.191406 556.339844 375.738281 552.902344 375.457031 C 550.503906 375.472656 547.824219 375.667969 545.179688 375.4375 Z M 581.621094 362.660156 C 586.042969 360.054688 588.8125 353.304688 586.554688 349.761719 C 585.375 347.910156 586.042969 347.171875 587.367188 346.238281 C 590.539062 344.050781 593.730469 341.902344 596.851562 339.644531 C 598.03125 338.78125 599.320312 337.6875 598.402344 335.945312 C 597.484375 334.199219 595.847656 334.148438 594.292969 334.816406 C 588.828125 337.179688 583.664062 340.050781 579.558594 344.507812 C 577.671875 346.570312 577.140625 348.792969 579.046875 351.152344 C 579.628906 351.875 580.121094 352.492188 579.539062 353.496094 C 578.445312 355.367188 572.789062 358.097656 570.6875 357.460938 C 569.542969 357.128906 568.660156 356.246094 567.761719 357.851562 C 566.953125 359.296875 567.285156 360.546875 568.1875 361.691406 C 569.878906 363.808594 572.222656 364.371094 574.957031 364.246094 C 577.246094 364.40625 579.523438 363.914062 581.621094 362.660156 Z M 559.96875 313.210938 C 556.460938 313.050781 555.351562 311.730469 555.949219 308.257812 C 556.355469 305.894531 557.34375 303.726562 558.4375 301.613281 C 558.984375 300.574219 559.300781 299.515625 558.207031 298.6875 C 557.113281 297.84375 556.128906 298.476562 555.28125 299.21875 C 552.582031 301.5625 550.769531 304.539062 550.117188 308.011719 C 549.09375 313.351562 551.296875 317.476562 555.96875 318.902344 C 561.363281 320.558594 566.511719 318.972656 571.570312 317.140625 C 572.277344 316.875 573.070312 316.3125 573.050781 315.429688 C 573.035156 314.390625 572.082031 314.039062 571.234375 313.738281 C 568.925781 312.964844 566.527344 313.316406 564.167969 313.191406 C 562.738281 313.210938 561.363281 313.261719 559.96875 313.210938 Z M 586.308594 273.308594 C 585.851562 273.960938 585.144531 273.890625 584.476562 273.945312 C 584.476562 273.945312 584.527344 273.925781 584.527344 273.925781 C 583.136719 276.78125 585.78125 276.113281 586.75 276.09375 C 593.605469 275.988281 599.195312 278.863281 604.183594 283.214844 C 606.230469 284.996094 608.609375 286.210938 610.988281 287.410156 C 612.101562 287.972656 613.511719 288.785156 614.496094 287.445312 C 615.484375 286.085938 614.621094 284.78125 613.652344 283.726562 C 606.265625 275.6875 597.644531 270.859375 586.273438 273.363281 Z M 605.3125 353.921875 C 605.734375 353.460938 606.019531 352.949219 605.789062 352.316406 C 605.523438 351.578125 604.820312 351.664062 604.289062 351.734375 C 602.738281 351.945312 601.207031 352.246094 599.652344 352.5625 C 598.789062 352.738281 597.804688 353.25 597.152344 352.476562 C 596.445312 351.613281 596.921875 350.589844 597.398438 349.726562 C 598.191406 348.246094 599.109375 346.835938 599.8125 345.320312 C 600.183594 344.527344 600.253906 343.558594 599.441406 342.871094 C 598.683594 342.199219 597.875 342.625 597.273438 343.0625 C 594.152344 345.335938 591.703125 348.105469 591.296875 352.15625 C 590.960938 355.417969 593.625 358.308594 597.097656 358.203125 C 599.9375 357.425781 603.003906 356.40625 605.3125 353.921875 Z M 635.601562 324.417969 C 635.496094 323.855469 635.636719 323.414062 636.21875 323.203125 C 636.21875 323.203125 636.164062 323.21875 636.164062 323.21875 C 636.640625 318.691406 635.722656 314.425781 633.660156 310.371094 C 632.992188 309.050781 632.164062 307.800781 630.839844 307.042969 C 629.289062 306.160156 627.507812 307.042969 628.054688 308.503906 C 629.730469 313.050781 629.570312 318.019531 631.441406 322.496094 C 632.25 324.453125 633.625 325.105469 635.636719 324.367188 Z M 473.621094 281.910156 C 473.550781 282.050781 473.5 282.175781 473.429688 282.316406 C 473.289062 282.984375 473.253906 283.707031 473.003906 284.324219 C 471.347656 288.273438 470.75 292.503906 469.921875 296.644531 C 469.601562 298.265625 469.214844 300.292969 471.136719 301.101562 C 472.933594 301.84375 473.992188 300.222656 474.875 298.898438 C 477.21875 295.355469 479.617188 291.851562 480.867188 287.707031 C 482.367188 282.6875 483.546875 277.59375 484.464844 272.445312 C 484.992188 269.414062 484.851562 266.332031 483.953125 263.335938 C 482.808594 259.511719 479.5625 256.585938 476.371094 256.902344 C 471.152344 257.414062 467.242188 260.375 463.855469 264.128906 C 463.222656 264.832031 462.867188 265.785156 463.695312 266.507812 C 464.492188 267.195312 465.125 266.402344 465.722656 265.890625 C 467.539062 264.320312 469.585938 263.089844 471.824219 262.3125 C 473.339844 261.785156 475.171875 261.148438 476.441406 262.878906 C 478.066406 265.078125 476.882812 270.984375 474.46875 272.375 C 469.480469 275.265625 465.25 279.160156 460.753906 282.722656 C 459.429688 283.761719 458.230469 284.960938 457.386719 286.441406 C 456.890625 287.304688 456.417969 288.21875 457.105469 289.207031 C 457.898438 290.335938 458.867188 289.789062 459.75 289.382812 C 461.441406 288.609375 463.132812 287.777344 464.789062 286.914062 C 467.664062 285.398438 470.21875 283.304688 473.269531 282.121094 C 473.359375 282.050781 473.480469 281.980469 473.621094 281.910156 Z M 473.621094 281.910156 " fill-opacity="1" fill-rule="nonzero"/></g></svg>