<svg xmlns="http://www.w3.org/2000/svg" xmlns:xlink="http://www.w3.org/1999/xlink" width="1080" zoomAndPan="magnify" viewBox="0 0 810 809.999993" height="1080" preserveAspectRatio="xMidYMid meet" version="1.0"><path fill="#99543c" d="M 637.03125 614.828125 C 636.46875 614.1875 635.828125 613.625 635.238281 613.011719 C 631.46875 608.972656 627.621094 605.011719 626.015625 599.5 C 625.882812 598.992188 625.402344 598.59375 625.082031 598.136719 C 625.082031 596.855469 625.054688 595.597656 625.054688 594.3125 C 625.027344 581.257812 625.507812 568.230469 625.425781 555.203125 C 625.320312 540.652344 624.707031 526.070312 623.503906 511.546875 C 622.539062 499.855469 621.472656 488.21875 619.972656 476.585938 C 616.445312 449.058594 610.507812 422.039062 603.210938 395.289062 C 593.507812 359.792969 581.234375 325.070312 570.460938 289.894531 C 570.351562 289.0625 570.378906 288.207031 570.140625 287.433594 C 567.734375 279.566406 565.273438 271.703125 562.867188 263.8125 C 562.441406 262.421875 561.851562 261.21875 560.59375 260.441406 C 557.601562 250.410156 554.339844 240.457031 551.023438 230.535156 C 546.667969 217.507812 540.785156 205.015625 534.316406 192.871094 C 530.917969 186.503906 527.230469 180.242188 524.128906 173.71875 C 518.59375 162 512.203125 150.84375 504.128906 140.679688 C 508.917969 137.09375 513.140625 132.921875 516.882812 128.242188 C 523.886719 119.492188 526.402344 109.542969 524.878906 98.414062 C 523.59375 89.023438 518.886719 81.640625 511.722656 75.863281 C 505.65625 70.941406 502.953125 64.761719 502.257812 57.164062 C 500.894531 41.917969 492.875 32.636719 478.117188 28.410156 C 472.316406 26.75 466.40625 26.511719 460.472656 26.214844 C 451.972656 25.789062 444.003906 23.753906 436.757812 19.179688 C 432.453125 16.453125 428.175781 13.695312 423.953125 10.835938 C 414.996094 4.789062 405.34375 0.800781 394.355469 0.375 C 382.859375 -0.078125 371.980469 1.285156 363.128906 9.628906 C 362.941406 9.789062 362.59375 9.789062 362.300781 9.84375 C 359.761719 9.015625 357.273438 8.023438 354.546875 7.890625 C 348.800781 7.652344 343.640625 9.253906 338.988281 12.574219 C 330.511719 18.617188 323.132812 25.8125 316.90625 34.1875 C 311.933594 40.902344 306.773438 47.457031 300.785156 53.339844 C 300.277344 52.109375 299.527344 51.148438 298.296875 50.71875 C 296.585938 50.746094 295.597656 52.214844 294.152344 52.566406 C 290.519531 49.835938 289.15625 49.808594 286.054688 52.777344 C 284.957031 53.847656 284.183594 55.265625 283.246094 56.523438 C 281.882812 55.746094 281.777344 55.105469 281.402344 54.703125 C 278.515625 51.519531 277.363281 51.519531 274.050781 54.464844 C 272.605469 55.746094 271.027344 56.898438 269.316406 58.234375 C 269.261719 58.128906 269.15625 57.914062 268.96875 57.753906 C 266.164062 54.730469 264.664062 54.8125 261.539062 57.539062 C 259.558594 59.253906 258.703125 61.6875 257.152344 63.585938 C 250.601562 61.445312 250.175781 61.6875 246.191406 68.910156 C 245.253906 69.285156 244.535156 68.640625 243.730469 68.480469 C 240.203125 67.8125 238.917969 68.453125 237.234375 71.691406 C 236.59375 72.949219 235.871094 74.179688 235.925781 75.675781 C 235.976562 76.855469 235.550781 77.898438 234.75 78.753906 C 228.8125 74.367188 224.347656 74.6875 222.558594 84.90625 C 218.441406 83.78125 218.441406 83.78125 216.382812 85.867188 C 217.664062 89.695312 220.875 92.234375 223.09375 95.445312 C 220.285156 102.425781 221.007812 109.675781 221.996094 116.765625 C 223.546875 127.839844 227.476562 138.324219 231.488281 148.730469 C 234.375 156.25 237.664062 163.578125 241.886719 170.480469 C 244.105469 174.066406 246.941406 177.246094 248.542969 181.207031 C 251.886719 184.230469 254.640625 187.789062 258.0625 190.757812 C 254.613281 187.789062 251.886719 184.230469 248.542969 181.207031 C 242.664062 180.457031 236.808594 179.734375 230.980469 178.640625 C 226.355469 177.78125 222.691406 180.109375 222.210938 183.800781 C 221.808594 186.878906 222.636719 189.390625 225.550781 190.917969 C 225.605469 191.183594 225.660156 191.480469 225.738281 191.746094 C 221.40625 194.046875 217.984375 197.445312 214.671875 200.921875 C 212.71875 202.980469 211.4375 205.390625 212.558594 208.25 C 214.027344 212.023438 213.84375 215.714844 212.800781 219.488281 C 210.980469 226.199219 212.71875 232.328125 215.6875 238.320312 C 217.425781 241.851562 220.125 244.125 223.894531 245.140625 C 227.316406 246.050781 230.710938 246.984375 234.160156 247.816406 C 240.417969 249.3125 246.699219 249.394531 253.035156 248.214844 C 255.789062 247.707031 258.621094 247.519531 261.429688 247.199219 C 261.539062 248.082031 261.109375 248.859375 260.789062 249.632812 C 257.632812 257.527344 254.878906 265.550781 252.421875 273.683594 C 248.917969 285.320312 244.882812 296.820312 242.207031 308.699219 C 240.070312 318.222656 238.546875 327.824219 237.824219 337.535156 C 229.75 343.394531 221.007812 347.96875 211.410156 350.589844 C 206.542969 351.925781 202 353.773438 198.042969 356.796875 C 187.75 364.660156 179.566406 374.585938 171.574219 384.671875 C 170.078125 386.542969 169.648438 388.921875 170.636719 391.089844 C 171.761719 393.578125 174.273438 392.640625 176.304688 392.695312 C 176.277344 393.578125 176.894531 393.953125 177.507812 394.355469 C 177.855469 399.648438 179.78125 401.28125 185.664062 401.203125 C 186.199219 401.253906 186.707031 401.308594 187.242188 401.363281 C 188.335938 402.457031 189.140625 403.796875 189.96875 405.105469 C 192.054688 408.425781 194.992188 409.84375 198.949219 409.199219 C 201.4375 408.796875 203.976562 408.636719 206.542969 408.90625 C 212.371094 409.519531 216.941406 407.113281 220.6875 402.753906 C 224.910156 397.804688 227.957031 392.292969 228.867188 385.792969 C 229.132812 383.867188 229.667969 382.53125 231.726562 382.207031 C 231.675781 383.894531 231.835938 385.660156 231.488281 387.292969 C 230.148438 393.285156 230.3125 399.4375 230.203125 405.429688 C 229.777344 430.601562 229.160156 455.800781 232.371094 480.890625 C 233.597656 490.414062 234.800781 499.910156 236.59375 509.351562 C 238.597656 519.894531 240.789062 530.40625 242.664062 540.972656 C 244.960938 553.945312 248.757812 566.519531 252.234375 579.199219 C 252.660156 580.777344 253.304688 582.195312 255.386719 581.820312 C 255.414062 583.371094 255.601562 584.949219 255.46875 586.472656 C 254.34375 599.554688 253.167969 612.664062 252.046875 625.742188 C 250.683594 641.632812 249.347656 657.550781 247.957031 673.441406 C 247.074219 683.578125 246.136719 693.691406 245.253906 703.828125 C 245.121094 705.378906 244.988281 706.796875 243.890625 708.160156 C 240.175781 712.816406 236.753906 717.710938 233.039062 722.339844 C 218.546875 740.34375 203.335938 757.730469 188.335938 775.332031 C 184.648438 779.636719 181.117188 784.078125 177.695312 788.601562 C 176.117188 790.6875 174.59375 793.09375 176.304688 795.929688 C 176.304688 795.929688 176.332031 795.957031 176.332031 795.957031 C 176.011719 798.148438 176.894531 799.941406 178.203125 801.601562 C 178.203125 802.457031 178.710938 802.964844 179.433594 803.3125 C 182.1875 807.859375 186.867188 808.664062 191.519531 809.089844 C 198.65625 809.734375 205.527344 808.449219 212.292969 806.015625 C 220.875 802.910156 228.546875 798.148438 236.433594 793.710938 C 242.339844 790.367188 248.035156 786.648438 254.398438 784.210938 C 256.511719 782.660156 259.023438 781.859375 261.375 780.707031 C 259.050781 781.859375 256.539062 782.6875 254.398438 784.210938 C 254.691406 784.507812 255.121094 784.746094 255.253906 785.121094 C 256.859375 789.375 258.140625 790.015625 262.5 789.082031 C 264.558594 788.652344 266.484375 787.742188 268.382812 787.207031 C 268.730469 787.554688 268.96875 787.71875 269.128906 787.957031 C 272.363281 793.121094 275.519531 793.523438 280.039062 789.320312 C 280.945312 788.492188 281.589844 787.234375 283.058594 787.234375 C 290.4375 792.90625 294.3125 790.550781 298.914062 785.765625 C 299.660156 784.960938 300.304688 783.945312 301.585938 783.8125 C 303.191406 784.160156 304.285156 785.28125 305.515625 786.21875 C 310.113281 789.695312 313.777344 789.402344 318 785.363281 C 318.804688 784.585938 319.527344 783.679688 320.195312 782.796875 C 322.464844 779.773438 322.464844 779.746094 325.914062 781.726562 C 330.21875 784.210938 332.519531 784 336.261719 780.707031 C 337.4375 779.691406 338.480469 778.515625 339.578125 777.417969 C 342.25 774.769531 342.277344 774.769531 345.539062 776.640625 C 350.75 779.613281 353.453125 778.917969 357.007812 773.941406 C 357.945312 772.628906 358.425781 770.8125 360.136719 770.167969 C 365.964844 772.628906 369.652344 773.246094 371.175781 764.042969 C 371.847656 759.976562 370.75 758.503906 366.390625 757.996094 C 365.910156 755.882812 365.402344 753.796875 364.921875 751.683594 C 365.722656 750.347656 365.160156 749.0625 364.949219 747.699219 C 364.414062 744.300781 362.59375 741.25 362.433594 737.773438 C 364.253906 736.4375 364.039062 734.296875 364.414062 732.449219 C 368.128906 714.796875 373.742188 697.675781 378.957031 680.421875 C 379.945312 680.527344 380.9375 680.554688 381.765625 681.25 C 389.117188 687.242188 397.539062 691.761719 405.15625 697.40625 C 410.128906 701.097656 412.992188 705.753906 413.980469 711.773438 C 416.144531 724.878906 418.125 738.015625 421.519531 750.882812 C 424.78125 763.320312 427.855469 775.785156 430.261719 788.4375 C 431.011719 792.453125 432.105469 796.4375 434.21875 800.023438 C 437.722656 805.933594 442.667969 806.441406 447.265625 801.304688 C 447.90625 800.582031 448.761719 799.96875 448.683594 798.820312 C 451.542969 796.089844 453.46875 792.878906 453.949219 788.894531 C 453.949219 788.894531 453.976562 788.867188 453.976562 788.867188 C 455.472656 788.089844 455.394531 786.566406 455.742188 785.230469 C 459.109375 772.441406 459.136719 759.386719 457.851562 746.386719 C 456.675781 734.539062 457.53125 722.953125 460.417969 711.425781 C 462.71875 702.222656 465.472656 693.128906 467.023438 683.738281 C 469.507812 668.625 463.789062 655.167969 447.105469 650.007812 C 444.40625 649.175781 441.757812 648.1875 439.109375 647.117188 C 431.492188 644.042969 426.171875 638.050781 420.824219 632.21875 C 412.589844 623.257812 404.835938 613.785156 395.238281 606.164062 C 394.785156 604.210938 394.945312 602.203125 395.1875 600.25 C 395.855469 594.820312 396.46875 589.363281 397.003906 583.90625 C 397.992188 573.820312 398.847656 563.738281 398.5 553.570312 C 400.71875 553.117188 402.671875 554.214844 404.757812 554.640625 C 406.308594 555.578125 406.867188 557.261719 407.804688 558.652344 C 409.863281 561.730469 412.75 563.710938 415.957031 565.207031 C 417.75 566.035156 419.675781 566.546875 421.574219 567.132812 C 427.453125 568.953125 432.347656 571.976562 435.261719 577.671875 C 436.089844 579.304688 437.292969 580.75 438.363281 582.246094 C 441.007812 585.964844 444.296875 589.097656 447.855469 591.878906 C 453.148438 596.023438 459.617188 596.34375 465.898438 596.960938 C 468.867188 597.253906 471.78125 597.65625 474.617188 598.511719 C 480.203125 600.195312 484 604.023438 486.699219 609.105469 C 489.746094 614.828125 494.023438 619.242188 500.574219 620.6875 C 508.433594 622.425781 516.347656 623.65625 524.449219 623.523438 C 528.808594 623.441406 533.191406 623.925781 537.496094 624.566406 C 544.152344 625.554688 550.195312 628.152344 555.757812 632.058594 C 562.171875 636.550781 569.152344 638.398438 576.984375 635.667969 C 579.363281 634.839844 581.875 634.304688 584.28125 633.476562 C 590.777344 631.199219 597.515625 631.335938 603.984375 632.457031 C 608.53125 633.261719 612.96875 633.984375 617.300781 632.699219 C 622.273438 631.226562 628.234375 631.253906 630.640625 625.316406 C 631.441406 625.261719 632.003906 625.128906 632.566406 625.183594 C 635.800781 625.554688 637.539062 623.738281 638.820312 621.117188 C 640.160156 618.574219 638.714844 616.648438 637.03125 614.828125 Z M 214.699219 782.660156 C 214.75 782.421875 214.699219 782.152344 214.5625 781.886719 C 214.699219 782.152344 214.75 782.421875 214.699219 782.660156 Z M 439.726562 803.152344 C 438.09375 800.769531 436.304688 786.621094 436.089844 777.523438 C 436.304688 786.621094 438.09375 800.746094 439.726562 803.152344 Z M 439.726562 803.152344 " fill-opacity="1" fill-rule="nonzero"/><path fill="#e8e6e7" d="M 344.84375 453.339844 C 343.960938 446.410156 346.367188 441.167969 351.632812 438.382812 C 354.039062 437.101562 356.339844 436.726562 358.878906 438.035156 C 362.433594 439.882812 366.179688 440.980469 370.242188 440.605469 C 370.402344 441.433594 371.125 441.488281 371.738281 441.703125 C 371.847656 443.761719 372.753906 445.472656 373.851562 447.160156 C 385.214844 464.679688 398.019531 481.105469 411.441406 497.074219 C 426.039062 514.460938 441.730469 530.859375 458.121094 546.5625 C 469.722656 557.664062 482.15625 567.777344 496.242188 575.613281 C 513.730469 585.324219 532.308594 592.144531 552.253906 594.472656 C 565.195312 595.996094 578.160156 597.175781 591.234375 597.308594 C 599.601562 597.386719 607.941406 597.789062 616.257812 598.804688 C 619.277344 599.179688 622.140625 598.085938 625.105469 598.136719 C 625.425781 598.59375 625.910156 598.992188 626.042969 599.5 C 627.648438 605.011719 631.496094 609 635.265625 613.011719 C 635.855469 613.625 636.496094 614.1875 637.058594 614.828125 C 638.742188 616.675781 640.183594 618.574219 638.875 621.277344 C 637.617188 623.898438 635.855469 625.71875 632.621094 625.34375 C 632.058594 625.289062 631.496094 625.394531 630.695312 625.476562 C 628.289062 631.414062 622.328125 631.386719 617.355469 632.859375 C 613.023438 634.144531 608.609375 633.421875 604.039062 632.617188 C 597.570312 631.496094 590.832031 631.363281 584.335938 633.636719 C 581.957031 634.464844 579.417969 635 577.039062 635.828125 C 569.203125 638.558594 562.226562 636.710938 555.808594 632.21875 C 550.25 628.3125 544.207031 625.742188 537.550781 624.726562 C 533.246094 624.085938 528.832031 623.605469 524.503906 623.683594 C 516.375 623.816406 508.460938 622.585938 500.628906 620.847656 C 494.078125 619.402344 489.800781 614.988281 486.753906 609.265625 C 484.054688 604.183594 480.257812 600.359375 474.667969 598.671875 C 471.835938 597.816406 468.921875 597.414062 465.953125 597.121094 C 459.671875 596.503906 453.199219 596.210938 447.90625 592.039062 C 444.351562 589.230469 441.0625 586.125 438.417969 582.410156 C 437.347656 580.910156 436.144531 579.464844 435.316406 577.832031 C 432.402344 572.109375 427.507812 569.085938 421.625 567.292969 C 419.726562 566.707031 417.804688 566.199219 416.011719 565.367188 C 412.777344 563.871094 409.917969 561.863281 407.859375 558.816406 C 406.921875 557.421875 406.359375 555.738281 404.808594 554.800781 C 403.5 550.039062 402.191406 545.253906 400.878906 540.492188 C 399.996094 537.359375 398.125 534.980469 395.398438 533.1875 C 390.667969 530.085938 386.070312 526.769531 381.285156 523.71875 C 374.519531 519.382812 370.507812 513.578125 370.269531 505.261719 C 370.082031 498.171875 366.765625 492.847656 360.003906 489.984375 C 359.09375 489.613281 358.238281 489.050781 357.410156 488.542969 C 351.3125 484.769531 348.613281 479.207031 350.351562 472.277344 C 351.472656 467.730469 350.511719 463.929688 348.398438 460.105469 C 347.117188 457.886719 346.019531 455.613281 344.84375 453.339844 Z M 474.027344 280.796875 C 469.507812 285.183594 465.015625 289.574219 460.527344 293.960938 C 462.503906 294.226562 464.484375 293.90625 466.433594 293.613281 C 479.855469 291.738281 493.328125 290.617188 506.882812 290.589844 C 526.535156 290.5625 546.160156 290.402344 565.808594 290.320312 C 567.359375 290.320312 568.910156 290.242188 570.433594 289.839844 C 570.328125 289.011719 570.351562 288.15625 570.113281 287.378906 C 567.707031 279.515625 565.246094 271.648438 562.839844 263.757812 C 562.414062 262.367188 561.824219 261.164062 560.570312 260.386719 C 558.457031 260.523438 556.34375 260.761719 554.230469 260.816406 C 544.847656 260.976562 535.570312 262.207031 526.402344 263.890625 C 511.507812 266.621094 496.671875 269.671875 481.808594 272.585938 C 478.785156 274.914062 476.753906 278.175781 474.027344 280.796875 Z M 264.105469 779.15625 C 261.136719 781.429688 257.394531 782.152344 254.398438 784.320312 C 254.691406 784.613281 255.121094 784.855469 255.253906 785.230469 C 256.859375 789.484375 258.140625 790.125 262.5 789.1875 C 264.558594 788.761719 266.484375 787.851562 268.382812 787.316406 C 268.730469 787.664062 268.96875 787.824219 269.128906 788.066406 C 272.363281 793.226562 275.519531 793.628906 280.039062 789.429688 C 280.945312 788.601562 281.589844 787.34375 283.058594 787.34375 C 290.4375 793.015625 294.3125 790.660156 298.914062 785.871094 C 299.660156 785.070312 300.304688 784.050781 301.585938 783.917969 C 303.191406 784.265625 304.285156 785.390625 305.515625 786.324219 C 310.113281 789.804688 313.777344 789.507812 318 785.46875 C 318.804688 784.695312 319.527344 783.785156 320.195312 782.902344 C 322.464844 779.878906 322.464844 779.851562 325.914062 781.832031 C 330.21875 784.320312 332.519531 784.105469 336.261719 780.816406 C 337.4375 779.800781 338.480469 778.621094 339.578125 777.523438 C 342.25 774.878906 342.277344 774.878906 345.539062 776.75 C 350.75 779.71875 353.453125 779.023438 357.007812 774.046875 C 357.945312 772.738281 358.425781 770.917969 360.136719 770.277344 C 365.964844 772.738281 369.652344 773.351562 371.175781 764.148438 C 371.847656 760.082031 370.75 758.613281 366.390625 758.105469 C 366.125 758.613281 365.777344 759.09375 365.617188 759.601562 C 364.441406 763.214844 364.441406 763.1875 360.457031 762.652344 C 357.515625 762.277344 355.296875 763.640625 353.453125 765.808594 C 352.382812 767.09375 351.820312 768.777344 350.03125 770.035156 C 346.847656 768.109375 343.292969 766.796875 339.363281 767.574219 C 335.324219 768.375 333.667969 772.523438 330.140625 774.421875 C 328.214844 773.671875 326.636719 772.09375 324.472656 771.746094 C 319.527344 770.972656 316.476562 773.699219 313.75 777.203125 C 311.636719 779.933594 311.453125 780.066406 308.617188 778.195312 C 303.617188 774.902344 298.429688 775.359375 293.433594 779.558594 C 292.363281 780.441406 291.667969 781.832031 289.582031 782.019531 C 285.117188 777.792969 280.410156 778.835938 275.652344 783.328125 C 274.101562 779.824219 270.949219 779.773438 268.246094 778.78125 C 266.832031 778.515625 265.226562 778.300781 264.105469 779.15625 Z M 300.785156 53.367188 C 300.277344 52.136719 299.527344 51.171875 298.296875 50.746094 C 296.585938 50.773438 295.597656 52.242188 294.152344 52.589844 C 290.519531 49.863281 289.15625 49.835938 286.054688 52.804688 C 284.957031 53.875 284.183594 55.292969 283.246094 56.550781 C 281.882812 55.773438 281.777344 55.132812 281.402344 54.730469 C 278.515625 51.546875 277.363281 51.546875 274.050781 54.492188 C 272.605469 55.773438 271 56.925781 269.289062 58.289062 C 269.398438 58.476562 269.238281 58.074219 268.96875 57.78125 C 266.164062 54.757812 264.664062 54.839844 261.539062 57.566406 C 259.558594 59.277344 258.703125 61.714844 257.152344 63.613281 C 250.601562 61.472656 250.175781 61.714844 246.191406 68.9375 C 245.253906 69.308594 244.535156 68.667969 243.730469 68.507812 C 240.203125 67.839844 238.917969 68.480469 237.234375 71.71875 C 236.59375 72.976562 235.871094 74.207031 235.925781 75.703125 C 235.976562 76.878906 235.550781 77.925781 234.75 78.78125 C 228.8125 74.394531 224.347656 74.714844 222.558594 84.933594 C 218.441406 83.808594 218.441406 83.808594 216.382812 85.894531 C 217.664062 89.722656 220.875 92.261719 223.09375 95.472656 C 229.160156 95.738281 229.292969 95.632812 232.128906 88.410156 C 238.25 89 239.988281 89.105469 242.5 80.625 C 248.464844 82.363281 248.570312 82.335938 253.140625 75.890625 C 259.664062 77.628906 261.375 72.628906 263.113281 67.410156 C 265.253906 69.335938 267.097656 70.539062 269.558594 69.980469 C 271.992188 69.417969 272.660156 66.796875 274.746094 65.644531 C 281.132812 70.03125 283.59375 63.53125 287.417969 60.964844 C 289.101562 61.738281 290.625 62.515625 292.417969 62.410156 C 295.597656 59.761719 298.859375 57.164062 300.785156 53.367188 Z M 317.628906 352.917969 C 318.507812 357.894531 321.636719 359.175781 325.726562 356.207031 C 327.652344 354.816406 329.523438 353.34375 331.421875 351.925781 C 330.886719 349.761719 330.460938 347.566406 329.84375 345.425781 C 327.652344 337.804688 325.941406 330.074219 324.472656 322.289062 C 322.441406 311.535156 319.445312 301.101562 314.792969 291.152344 C 314.070312 289.597656 313.242188 288.128906 311.746094 287.191406 C 309.179688 286.601562 306.613281 285.960938 304.019531 285.425781 C 300.996094 284.785156 298.566406 285.71875 297.09375 287.96875 C 295.863281 289.894531 296.132812 292.703125 297.921875 295.003906 C 299.046875 296.421875 300.328125 297.703125 301.53125 299.070312 C 303.296875 300.835938 301.667969 302.144531 300.890625 303.535156 C 298.859375 307.226562 299.234375 309.6875 302.894531 311.75 C 306.90625 313.996094 307.148438 316.082031 305.675781 320.203125 C 305.4375 320.871094 305.167969 321.511719 304.953125 322.179688 C 303.402344 326.941406 304.179688 329.324219 308.699219 331.542969 C 311.316406 332.828125 312.253906 334.566406 311.824219 337.242188 C 311.636719 338.5 311.34375 339.730469 311.128906 340.988281 C 310.648438 344.035156 311.265625 345.347656 314.042969 346.792969 C 314.925781 347.246094 315.890625 347.511719 316.210938 348.609375 C 317.09375 349.894531 317.359375 351.390625 317.628906 352.917969 Z M 372.195312 201.484375 C 374.277344 200.144531 375.402344 198.007812 376.738281 196.054688 C 374.574219 196.640625 372.863281 197.980469 371.230469 199.425781 C 371.523438 200.09375 371.847656 200.789062 372.195312 201.484375 Z M 372.195312 201.484375 " fill-opacity="1" fill-rule="nonzero"/><path fill="#4b0372" d="M 570.433594 289.867188 C 581.207031 325.042969 593.480469 359.765625 603.183594 395.261719 C 610.507812 422.011719 616.417969 449.03125 619.945312 476.558594 C 621.445312 488.167969 622.511719 499.828125 623.476562 511.519531 C 624.679688 526.070312 625.292969 540.625 625.402344 555.175781 C 625.480469 568.203125 625 581.257812 625.027344 594.285156 C 625.027344 595.570312 625.054688 596.828125 625.054688 598.109375 C 622.085938 598.058594 619.226562 599.152344 616.203125 598.78125 C 607.890625 597.761719 599.546875 597.363281 591.179688 597.28125 C 578.132812 597.148438 565.140625 595.972656 552.199219 594.445312 C 532.28125 592.117188 513.675781 585.296875 496.191406 575.585938 C 482.101562 567.75 469.667969 557.636719 458.066406 546.535156 C 441.679688 530.832031 425.984375 514.4375 411.386719 497.046875 C 397.964844 481.078125 385.160156 464.652344 373.796875 447.132812 C 372.703125 445.445312 371.792969 443.734375 371.683594 441.675781 C 377.433594 439.402344 383.128906 437.046875 389.0625 435.308594 C 392.859375 434.480469 396.816406 434.238281 400.210938 432.019531 C 406.628906 429.769531 413.339844 428.621094 419.941406 427.148438 C 444.566406 421.691406 469.589844 419.230469 494.746094 418.480469 C 508.035156 418.082031 521.375 418.269531 534.664062 419.203125 C 536.933594 419.363281 539.234375 419.097656 541.453125 419.417969 C 546.667969 420.140625 551.90625 420.035156 557.121094 420.0625 C 557.679688 420.0625 558.242188 419.925781 558.347656 419.152344 C 558.164062 417.8125 557.039062 417.921875 556.105469 417.867188 C 551.15625 417.546875 546.210938 417.226562 541.292969 417.011719 C 537.335938 416.824219 533.351562 416.902344 529.394531 416.582031 C 520.921875 415.914062 512.417969 415.648438 503.945312 415.941406 C 496.886719 416.183594 489.800781 416.128906 482.742188 416.554688 C 471.007812 417.277344 459.324219 418.054688 447.691406 419.738281 C 431.707031 422.039062 415.933594 425.410156 400.292969 429.289062 C 399.972656 418.855469 400.398438 408.398438 399.570312 397.964844 C 398.875 388.976562 398.5 379.960938 397.804688 370.972656 C 397.296875 364.5 396.363281 358.105469 395.210938 351.714844 C 394.304688 346.710938 393.261719 341.761719 392.269531 336.785156 C 399.597656 334.484375 406.226562 330.742188 412.882812 326.996094 C 429.78125 317.472656 445.449219 306.132812 460.5 293.933594 C 462.476562 294.199219 464.457031 293.878906 466.40625 293.585938 C 479.828125 291.710938 493.304688 290.589844 506.859375 290.5625 C 526.507812 290.535156 546.132812 290.375 565.78125 290.292969 C 567.386719 290.320312 568.9375 290.269531 570.433594 289.867188 Z M 414.570312 414.65625 C 416.546875 412.492188 418.472656 410.269531 420.53125 408.183594 C 436.8125 391.757812 455.527344 378.570312 475.175781 366.558594 C 487.5 359.042969 500.226562 352.167969 512.3125 344.25 C 513.730469 343.3125 515.253906 342.511719 516.320312 341.121094 C 516.9375 340.316406 517.339844 339.433594 516.160156 338.5 C 510.039062 343.609375 503.089844 347.433594 496.296875 351.445312 C 480.070312 360.996094 463.734375 370.386719 448.546875 381.59375 C 437.347656 389.859375 426.707031 398.714844 417.214844 408.960938 C 415.796875 410.484375 414.195312 411.902344 414.570312 414.65625 Z M 504.105469 140.652344 C 512.179688 150.820312 518.539062 161.972656 524.101562 173.691406 C 527.203125 180.21875 530.890625 186.449219 534.289062 192.84375 C 540.757812 204.988281 546.640625 217.453125 550.996094 230.507812 C 554.3125 240.433594 557.601562 250.382812 560.570312 260.414062 C 558.457031 260.546875 556.34375 260.789062 554.230469 260.84375 C 544.847656 261.003906 535.570312 262.234375 526.402344 263.917969 C 511.507812 266.648438 496.671875 269.695312 481.808594 272.613281 C 482.527344 270.765625 484.160156 269.832031 485.65625 268.761719 C 491.433594 264.585938 496.726562 259.90625 501.539062 254.636719 C 502.367188 253.726562 503.835938 252.84375 502.660156 251 C 499.132812 252.578125 497.820312 256.832031 493.410156 258.140625 C 494.878906 253.511719 498.917969 251 499.640625 246.933594 C 498.4375 245.941406 497.769531 246.53125 497.234375 247.226562 C 496.21875 248.589844 495.226562 249.980469 494.265625 251.371094 C 486.324219 262.984375 477.664062 274.003906 467.53125 283.847656 C 453.121094 297.839844 436.945312 309.554688 419.941406 320.175781 C 410.691406 325.953125 401.441406 331.785156 390.960938 335.207031 C 390.292969 335.421875 389.703125 335.878906 389.4375 336.597656 C 387.511719 337.480469 385.613281 338.417969 383.664062 339.222656 C 372.941406 343.582031 361.738281 346.46875 350.617188 349.628906 C 344.335938 351.417969 338 352.515625 331.421875 351.980469 C 330.886719 349.8125 330.460938 347.621094 329.84375 345.480469 C 327.652344 337.855469 325.941406 330.125 324.472656 322.339844 C 322.441406 311.589844 319.445312 301.15625 314.792969 291.203125 C 314.070312 289.652344 313.242188 288.179688 311.746094 287.246094 C 313.136719 281.761719 316.636719 277.375 319.792969 272.933594 C 333.855469 252.925781 348.347656 233.210938 363.210938 213.789062 C 366.285156 209.777344 369.839844 206.085938 372.195312 201.539062 C 374.277344 200.199219 375.402344 198.058594 376.738281 196.105469 C 378.824219 193.457031 380.960938 190.835938 382.96875 188.136719 C 390.105469 178.476562 396.921875 168.609375 405.851562 160.449219 C 410.023438 156.648438 414.273438 152.933594 418.605469 149.320312 C 425.957031 143.167969 433.683594 137.550781 442.773438 134.179688 C 450.445312 131.453125 457.960938 128.429688 466.300781 127.761719 C 480.898438 126.449219 494.078125 128.75 504.105469 140.652344 Z M 478.492188 180.539062 C 479.773438 177.863281 478.492188 176.710938 477.691406 175.480469 C 473.492188 169.089844 468.785156 163.070312 463.707031 157.371094 C 458.519531 151.515625 452.640625 146.457031 445.609375 142.902344 C 444.429688 142.3125 443.308594 141.054688 441.195312 142.417969 C 444.992188 144.933594 448.949219 146.777344 452.265625 149.507812 C 455.765625 152.398438 459.1875 155.339844 462.101562 158.816406 C 464.910156 162.1875 467.664062 165.585938 470.3125 169.089844 C 472.984375 172.621094 475.472656 176.3125 478.492188 180.539062 Z M 490.441406 261.617188 C 491.59375 261.832031 492.019531 261.003906 492.449219 260.199219 C 492.207031 259.988281 491.964844 259.773438 491.726562 259.53125 C 491.109375 260.121094 490.335938 260.628906 490.523438 261.671875 Z M 492.449219 260.199219 C 493.007812 259.71875 494.132812 259.238281 493.089844 258.433594 C 492.472656 257.953125 492.074219 259.023438 491.726562 259.53125 C 491.941406 259.773438 492.207031 259.988281 492.449219 260.199219 Z M 490.496094 261.699219 C 490.230469 261.777344 489.535156 261.671875 490.203125 262.234375 C 490.308594 262.339844 490.550781 261.914062 490.414062 261.617188 C 490.441406 261.617188 490.496094 261.699219 490.496094 261.699219 Z M 490.496094 261.699219 " fill-opacity="1" fill-rule="nonzero"/><path fill="#987da6" d="M 344.84375 453.339844 C 337.195312 453.3125 329.523438 452.910156 321.90625 453.390625 C 310.648438 454.113281 299.367188 455.078125 288.886719 459.917969 C 279.207031 464.386719 272.175781 471.367188 268.195312 481.320312 C 263.96875 491.886719 261.75 502.878906 260.46875 514.195312 C 259.640625 521.363281 259.15625 528.507812 258.703125 535.703125 C 258.382812 540.492188 258.328125 545.304688 258.007812 550.066406 C 257.285156 560.207031 256.589844 570.34375 256.269531 580.507812 C 256.242188 581.097656 255.921875 581.550781 255.441406 581.925781 C 253.355469 582.300781 252.714844 580.882812 252.285156 579.304688 C 248.8125 566.625 245.015625 554.054688 242.714844 541.078125 C 240.84375 530.511719 238.652344 520 236.648438 509.460938 C 234.855469 500.042969 233.652344 490.519531 232.421875 480.996094 C 229.214844 455.90625 229.855469 430.707031 230.257812 405.535156 C 230.363281 399.542969 230.203125 393.390625 231.539062 387.398438 C 231.914062 385.765625 231.726562 384 231.78125 382.316406 C 234.105469 380.628906 236.996094 380.257812 239.5625 379.132812 C 256.402344 371.855469 272.980469 363.9375 290.25 357.625 C 298.859375 354.46875 307.46875 351.3125 316.210938 348.609375 C 317.09375 349.921875 317.359375 351.417969 317.628906 352.945312 C 318.507812 357.917969 321.636719 359.203125 325.726562 356.234375 C 327.652344 354.84375 329.523438 353.371094 331.421875 351.953125 C 337.972656 352.488281 344.308594 351.390625 350.617188 349.601562 C 361.738281 346.445312 372.941406 343.582031 383.664062 339.195312 C 385.613281 338.390625 387.511719 337.457031 389.4375 336.574219 C 390.320312 337.480469 391.363281 336.597656 392.324219 336.839844 C 393.3125 341.816406 394.355469 346.792969 395.265625 351.765625 C 396.414062 358.132812 397.351562 364.527344 397.859375 371.027344 C 398.554688 380.015625 398.902344 389.03125 399.625 398.019531 C 400.453125 408.476562 400.023438 418.910156 400.34375 429.34375 C 399.140625 429.71875 397.914062 430.09375 396.710938 430.464844 C 387.699219 433.300781 378.714844 436.269531 370.296875 440.632812 C 366.230469 441.03125 362.460938 439.910156 358.933594 438.0625 C 356.394531 436.753906 354.09375 437.128906 351.6875 438.410156 C 346.394531 441.167969 343.960938 446.382812 344.84375 453.339844 Z M 375.5625 353.15625 C 373.636719 354.066406 373.449219 355.859375 372.886719 357.382812 C 368.128906 370.199219 362.085938 382.34375 354.121094 393.472656 C 350.75 398.207031 347.195312 402.804688 343.71875 407.460938 C 343.050781 408.371094 342.355469 409.28125 341.796875 410.242188 C 341.289062 411.179688 341.609375 411.875 342.757812 412.089844 C 357.167969 394.355469 369.707031 375.574219 375.5625 353.15625 Z M 349.816406 421.664062 C 352.917969 420.78125 352.972656 420.808594 353.292969 420.328125 C 358.476562 412.4375 364.144531 404.8125 367.460938 395.851562 C 367.730469 395.128906 368.398438 394.378906 367.515625 393.605469 C 367.246094 393.683594 366.820312 393.710938 366.738281 393.871094 C 362.273438 403.449219 356.472656 412.222656 349.816406 421.664062 Z M 292.441406 62.433594 C 290.011719 66.046875 287.46875 69.605469 285.199219 73.324219 C 281.507812 79.394531 278.699219 85.816406 277.925781 92.957031 C 277.042969 101.222656 279.769531 112.269531 288.886719 117.355469 C 289.101562 118.023438 289.476562 118.691406 289.503906 119.359375 C 290.0625 129.847656 292.175781 140.066406 294.6875 150.203125 C 298.9375 167.324219 306.53125 182.652344 319.925781 194.527344 C 330.886719 204.238281 343.480469 208.089844 358.050781 204.183594 C 362.59375 202.980469 366.792969 200.921875 371.175781 199.425781 C 371.5 200.121094 371.847656 200.789062 372.167969 201.484375 C 369.8125 206.03125 366.257812 209.722656 363.183594 213.734375 C 348.320312 233.15625 333.828125 252.871094 319.765625 272.878906 C 316.636719 277.347656 313.136719 281.707031 311.71875 287.191406 C 309.152344 286.601562 306.585938 285.960938 303.992188 285.425781 C 300.972656 284.785156 298.539062 285.71875 297.066406 287.96875 C 295.839844 289.894531 296.105469 292.703125 297.898438 295.003906 C 299.019531 296.421875 300.304688 297.703125 301.507812 299.070312 C 299.660156 298.882812 298.296875 299.953125 296.828125 300.808594 C 283.488281 308.804688 270.601562 317.554688 257.472656 325.898438 C 251.03125 329.992188 244.746094 334.324219 237.824219 337.617188 C 238.570312 327.90625 240.09375 318.300781 242.207031 308.777344 C 244.855469 296.875 248.917969 285.398438 252.421875 273.761719 C 254.878906 265.628906 257.632812 257.605469 260.789062 249.714844 C 261.109375 248.9375 261.539062 248.164062 261.429688 247.28125 C 261.832031 246.71875 262.394531 246.238281 262.660156 245.621094 C 265.601562 238.507812 268.808594 231.496094 270.867188 224.0625 C 272.605469 223.5 273.007812 222.027344 273.488281 220.503906 C 274.824219 216.328125 276.054688 212.128906 277.710938 208.089844 C 282.015625 197.550781 288.246094 188.109375 294.984375 178.988281 C 295.410156 178.398438 296.535156 178.023438 295.8125 176.925781 C 291.265625 179.09375 281.722656 193.644531 275.464844 207.851562 C 274.183594 205.496094 272.6875 203.328125 270.574219 201.617188 C 266.296875 198.167969 262.257812 194.449219 258.089844 190.863281 C 254.640625 187.894531 251.914062 184.335938 248.570312 181.3125 C 246.964844 177.355469 244.132812 174.171875 241.914062 170.585938 C 237.664062 163.710938 234.402344 156.382812 231.511719 148.839844 C 227.503906 138.433594 223.574219 127.945312 222.023438 116.871094 C 221.035156 109.785156 220.3125 102.535156 223.117188 95.550781 C 229.1875 95.820312 229.320312 95.710938 232.15625 88.488281 C 238.277344 89.078125 240.015625 89.1875 242.527344 80.707031 C 248.492188 82.445312 248.597656 82.417969 253.167969 75.972656 C 259.691406 77.710938 261.402344 72.707031 263.140625 67.492188 C 265.28125 69.417969 267.125 70.621094 269.585938 70.058594 C 272.015625 69.496094 272.6875 66.875 274.769531 65.726562 C 281.160156 70.113281 283.621094 63.613281 287.445312 61.042969 C 289.128906 61.765625 290.652344 62.542969 292.441406 62.433594 Z M 336.207031 236.875 C 337.972656 237.703125 338.5625 236.820312 339.015625 235.964844 C 343.320312 227.992188 347.328125 219.914062 348.988281 210.898438 C 349.148438 210.070312 349.574219 208.894531 347.730469 208.304688 C 345.914062 218.605469 341.261719 227.699219 336.207031 236.875 Z M 286.507812 142.390625 C 283.808594 137.84375 268.382812 131.425781 262.339844 132.253906 C 264.824219 134.527344 267.953125 134.5 270.628906 135.464844 C 273.300781 136.425781 275.894531 137.46875 278.460938 138.648438 C 281.054688 139.851562 283.164062 142.125 286.507812 142.390625 Z M 288.433594 125.914062 C 284.046875 122.515625 279.261719 119.734375 274.074219 117.621094 C 273.59375 117.40625 272.980469 117.753906 272.792969 118.796875 C 277.578125 121.417969 282.46875 124.09375 287.363281 126.714844 C 287.710938 126.902344 288.136719 126.554688 288.433594 125.914062 Z M 268.246094 778.78125 C 273.703125 777.257812 279.234375 776.132812 284.796875 775.226562 C 289.449219 774.476562 293.832031 772.871094 298.03125 770.863281 C 300.488281 769.6875 302.363281 767.65625 303.539062 765.140625 C 308.269531 755.109375 312.308594 744.863281 311.664062 733.441406 C 311.53125 731.167969 311.71875 728.894531 311.636719 726.644531 C 311.128906 714.742188 313.351562 703.265625 317.121094 692.085938 C 321.449219 679.21875 326.128906 666.457031 330.433594 653.5625 C 334.710938 640.804688 337.410156 627.695312 339.09375 614.347656 C 340.191406 605.707031 340.058594 597.066406 339.601562 588.480469 C 339.121094 579.785156 337.492188 571.144531 336.609375 562.453125 C 335.914062 555.578125 334.683594 548.757812 333.910156 541.882812 C 333.5625 538.671875 332.570312 535.570312 332.199219 532.011719 C 334.445312 531.929688 336.128906 533.105469 337.839844 533.777344 C 351.152344 538.992188 364.816406 543.085938 378.554688 547.070312 C 383.984375 548.648438 389.382812 550.28125 394.8125 551.886719 C 396.148438 552.289062 397.589844 552.527344 398.527344 553.757812 C 398.875 563.898438 398.019531 573.980469 397.03125 584.09375 C 396.496094 589.550781 395.878906 594.980469 395.210938 600.4375 C 394.972656 602.390625 394.8125 604.371094 395.265625 606.351562 C 393.742188 607.742188 393.820312 609.746094 393.582031 611.460938 C 391.578125 626.171875 388.289062 640.617188 385.054688 655.089844 C 383.128906 663.621094 380.988281 672.128906 378.957031 680.636719 C 373.742188 697.863281 368.128906 715.007812 364.414062 732.664062 C 364.039062 734.484375 364.253906 736.652344 362.433594 737.988281 C 362.113281 737.371094 361.738281 736.785156 361.472656 736.140625 C 358.183594 728.972656 354.949219 721.75 351.632812 714.609375 C 351.074219 713.378906 350.726562 711.613281 348.265625 711.828125 C 349.066406 714.957031 350.644531 717.417969 351.902344 720.011719 C 356.472656 729.535156 361.230469 739.003906 363.503906 749.4375 C 363.71875 750.425781 364.066406 751.308594 364.949219 751.898438 C 365.429688 754.011719 365.9375 756.097656 366.417969 758.210938 C 366.152344 758.71875 365.804688 759.199219 365.644531 759.710938 C 364.46875 763.320312 364.46875 763.292969 360.484375 762.757812 C 357.542969 762.382812 355.324219 763.75 353.480469 765.914062 C 352.410156 767.199219 351.847656 768.882812 350.058594 770.140625 C 346.875 768.214844 343.320312 766.90625 339.390625 767.679688 C 335.351562 768.484375 333.695312 772.628906 330.164062 774.527344 C 328.242188 773.78125 326.664062 772.203125 324.5 771.855469 C 319.550781 771.078125 316.503906 773.808594 313.777344 777.3125 C 311.664062 780.039062 311.476562 780.171875 308.644531 778.300781 C 303.644531 775.011719 298.457031 775.464844 293.457031 779.664062 C 292.390625 780.546875 291.695312 781.9375 289.609375 782.125 C 285.144531 777.898438 280.4375 778.941406 275.679688 783.4375 C 274.101562 779.824219 270.949219 779.746094 268.246094 778.78125 Z M 370.429688 584.386719 C 372.621094 583.398438 371.710938 582.300781 371.257812 581.363281 C 368.691406 576.015625 366.203125 570.613281 363.476562 565.339844 C 360.671875 559.882812 356.875 555.121094 352.300781 551.003906 C 348.828125 547.875 345.21875 544.929688 341.636719 541.933594 C 340.941406 541.347656 340.21875 540.515625 338.480469 541.292969 C 345.085938 547.738281 352.648438 552.796875 357.863281 560.230469 C 363.101562 567.640625 366.070312 576.253906 370.429688 584.386719 Z M 329.472656 671.78125 C 329.472656 673.789062 330.378906 674.027344 331.046875 674.484375 C 334.121094 676.488281 337.25 678.46875 340.296875 680.527344 C 345.511719 684.03125 350.058594 688.257812 354.175781 692.996094 C 354.949219 693.902344 355.671875 695.480469 357.890625 694.386719 C 350.324219 684.460938 340.644531 677.691406 329.472656 671.78125 Z M 353.773438 670.445312 C 349.550781 666.804688 337.652344 665.148438 333.5625 667.421875 C 340.164062 667.3125 346.449219 669.75 353.773438 670.445312 Z M 400.265625 432.042969 C 396.363281 432.5 392.671875 433.730469 389.117188 435.335938 C 392.914062 434.503906 396.898438 434.265625 400.265625 432.042969 Z M 389.171875 134.125 C 389.0625 140.734375 384.707031 146.511719 379.359375 148.679688 C 376.65625 149.773438 374.253906 149.105469 372.113281 147.742188 C 363.265625 142.152344 363.289062 130.890625 372.03125 124.949219 C 372.140625 124.871094 372.246094 124.789062 372.378906 124.683594 C 375.640625 122.382812 379.039062 120.804688 383.019531 122.785156 C 386.84375 124.710938 389.222656 129.203125 389.171875 134.125 Z M 320.941406 188.644531 C 322.894531 190.382812 325.140625 191.503906 327.894531 190.542969 C 333.5625 188.5625 337.171875 182.703125 336.316406 176.847656 C 335.671875 172.433594 332.707031 169.917969 328.269531 169.675781 C 322.464844 169.355469 317.253906 174.089844 317.679688 180.242188 C 317.652344 183.667969 318.722656 186.664062 320.941406 188.644531 Z M 320.941406 188.644531 " fill-opacity="1" fill-rule="nonzero"/><path fill="#3e3d4a" d="M 504.105469 140.652344 C 494.078125 128.75 480.898438 126.449219 466.273438 127.679688 C 457.960938 128.375 450.421875 131.371094 442.746094 134.097656 C 440.796875 134.285156 439.832031 133.164062 439.566406 131.453125 C 439.164062 128.804688 438.949219 126.128906 438.601562 123.453125 C 438.070312 119.601562 439.457031 116.84375 442.453125 114.25 C 453.199219 104.941406 453.574219 90.898438 447.050781 79.421875 C 445.261719 76.265625 442.480469 74.019531 439.03125 72.789062 C 432.507812 70.433594 426.785156 72.464844 421.546875 76.34375 C 415.71875 80.652344 413.632812 86.886719 413.285156 93.785156 C 413.152344 96.515625 414.195312 99.03125 416.546875 100.820312 C 417.992188 101.917969 419.703125 102.722656 420.558594 104.40625 C 420.074219 106.734375 418.417969 107.777344 416.628906 108.714844 C 409.195312 112.671875 400.265625 110.90625 394.304688 104.246094 C 392.21875 101.917969 390.453125 99.351562 388.929688 96.621094 C 383.875 87.5 376.285156 81.988281 365.910156 80.25 C 360.910156 79.394531 355.886719 78.40625 350.992188 77.042969 C 341.074219 74.257812 332.917969 69.070312 328.453125 59.253906 C 327.972656 58.183594 327.546875 56.84375 325.914062 56.628906 C 324.980469 57.808594 324.710938 59.171875 324.632812 60.5625 C 324.042969 69.953125 318.992188 76.667969 311.664062 81.964844 C 308.324219 84.371094 304.742188 86.429688 301.585938 89.023438 C 293.886719 95.390625 289.582031 103.550781 289.5 113.714844 C 289.5 114.972656 289.929688 116.285156 288.914062 117.355469 C 279.796875 112.269531 277.070312 101.222656 277.925781 92.957031 C 278.675781 85.789062 281.507812 79.367188 285.199219 73.324219 C 287.46875 69.605469 290.011719 66.074219 292.441406 62.433594 C 295.597656 59.761719 298.859375 57.191406 300.785156 53.367188 C 306.773438 47.480469 311.933594 40.929688 316.90625 34.214844 C 323.132812 25.839844 330.511719 18.644531 338.988281 12.597656 C 343.640625 9.28125 348.800781 7.652344 354.546875 7.917969 C 357.300781 8.023438 359.761719 9.042969 362.300781 9.871094 C 362.59375 9.789062 362.941406 9.816406 363.128906 9.65625 C 371.980469 1.285156 382.859375 -0.0820312 394.355469 0.402344 C 405.316406 0.828125 414.96875 4.816406 423.953125 10.859375 C 428.175781 13.722656 432.453125 16.476562 436.757812 19.207031 C 444.003906 23.78125 451.972656 25.789062 460.472656 26.242188 C 466.382812 26.535156 472.316406 26.777344 478.117188 28.4375 C 492.875 32.664062 500.894531 41.917969 502.257812 57.191406 C 502.925781 64.789062 505.628906 70.996094 511.722656 75.890625 C 518.886719 81.667969 523.59375 89.050781 524.878906 98.441406 C 526.402344 109.570312 523.886719 119.519531 516.882812 128.269531 C 513.113281 132.894531 508.890625 137.070312 504.105469 140.652344 Z M 364.949219 747.804688 C 364.414062 744.410156 362.59375 741.359375 362.433594 737.882812 C 362.113281 737.265625 361.738281 736.675781 361.472656 736.035156 C 358.183594 728.867188 354.949219 721.644531 351.632812 714.5 C 351.074219 713.269531 350.726562 711.503906 348.265625 711.71875 C 349.066406 714.847656 350.644531 717.308594 351.902344 719.90625 C 356.472656 729.429688 361.230469 738.898438 363.503906 749.332031 C 363.71875 750.320312 364.066406 751.203125 364.949219 751.792969 C 365.722656 750.480469 365.160156 749.167969 364.949219 747.804688 Z M 225.765625 191.828125 C 233.597656 194.046875 241.699219 195.277344 249.238281 198.515625 C 249.613281 198.675781 250.066406 198.675781 250.496094 198.753906 C 251.351562 198.941406 252.179688 199.128906 252.609375 197.925781 C 252.394531 197.660156 252.179688 197.203125 251.859375 197.070312 C 243.730469 193.859375 235.285156 191.773438 226.648438 190.382812 C 226.328125 190.328125 225.925781 190.785156 225.578125 190.996094 C 225.632812 191.265625 225.683594 191.558594 225.765625 191.828125 Z M 179.460938 803.417969 C 185.53125 798.898438 190.875 793.628906 196.195312 787.636719 C 193.710938 786.835938 192.960938 788.304688 192.027344 789.1875 C 187.453125 793.414062 183.550781 798.308594 178.230469 801.707031 C 178.230469 802.589844 178.738281 803.070312 179.460938 803.417969 Z M 177.535156 394.40625 C 179.378906 392.292969 181.304688 390.289062 183.042969 388.09375 C 184.648438 386.085938 187.5625 385.070312 188.203125 381.539062 C 182.855469 384.429688 179.726562 388.761719 176.332031 392.773438 C 176.304688 393.632812 176.894531 394.003906 177.535156 394.40625 Z M 176.359375 796.0625 C 177.242188 796.195312 178.097656 796.0625 178.738281 795.476562 C 182.105469 792.480469 185.449219 789.484375 188.738281 786.40625 C 189.246094 785.925781 189.351562 785.148438 188.230469 784.507812 C 184.058594 788.039062 179.539062 791.328125 176.332031 796.007812 C 176.359375 796.007812 176.359375 796.0625 176.359375 796.0625 Z M 187.265625 401.414062 C 188.628906 396.386719 192.453125 392.640625 194.804688 387.988281 C 192.773438 387.480469 192.132812 388.761719 191.464844 389.726562 C 189.859375 392.054688 188.390625 394.460938 186.867188 396.839844 C 186.011719 398.179688 185.421875 399.597656 185.714844 401.226562 C 186.222656 401.308594 186.734375 401.363281 187.265625 401.414062 Z M 389.117188 435.335938 C 392.699219 433.757812 396.363281 432.527344 400.265625 432.042969 C 406.679688 429.796875 413.390625 428.648438 419.996094 427.175781 C 444.617188 421.71875 469.644531 419.257812 494.800781 418.507812 C 508.085938 418.109375 521.429688 418.296875 534.714844 419.230469 C 536.988281 419.390625 539.289062 419.125 541.507812 419.445312 C 546.71875 420.167969 551.960938 420.0625 557.171875 420.085938 C 557.734375 420.085938 558.296875 419.953125 558.402344 419.179688 C 558.214844 417.839844 557.09375 417.949219 556.15625 417.894531 C 551.210938 417.574219 546.265625 417.25 541.347656 417.039062 C 537.390625 416.851562 533.40625 416.929688 529.449219 416.609375 C 520.972656 415.941406 512.472656 415.671875 503.996094 415.96875 C 496.9375 416.207031 489.855469 416.15625 482.796875 416.582031 C 471.058594 417.304688 459.375 418.082031 447.746094 419.765625 C 431.757812 422.066406 415.984375 425.4375 400.34375 429.316406 C 399.140625 429.691406 397.914062 430.066406 396.710938 430.441406 C 387.699219 433.273438 378.714844 436.246094 370.296875 440.605469 C 370.457031 441.433594 371.175781 441.488281 371.792969 441.703125 C 377.488281 439.429688 383.179688 437.074219 389.117188 435.335938 Z M 485.628906 268.734375 C 491.40625 264.5625 496.699219 259.878906 501.511719 254.609375 C 502.339844 253.699219 503.808594 252.816406 502.632812 250.972656 C 499.105469 252.550781 497.792969 256.804688 493.382812 258.113281 C 494.855469 253.484375 498.890625 250.972656 499.613281 246.90625 C 498.410156 245.914062 497.742188 246.503906 497.207031 247.199219 C 496.191406 248.5625 495.203125 249.957031 494.238281 251.347656 C 486.296875 262.957031 477.636719 273.976562 467.503906 283.820312 C 453.09375 297.8125 436.917969 309.527344 419.914062 320.148438 C 410.664062 325.925781 401.414062 331.757812 390.933594 335.183594 C 390.265625 335.394531 389.679688 335.851562 389.410156 336.574219 C 390.292969 337.480469 391.335938 336.597656 392.296875 336.839844 C 399.625 334.539062 406.253906 330.792969 412.910156 327.050781 C 429.808594 317.527344 445.472656 306.183594 460.527344 293.984375 C 465.015625 289.597656 469.535156 285.210938 474.027344 280.824219 C 476.726562 278.203125 478.757812 274.941406 481.78125 272.613281 C 482.527344 270.738281 484.132812 269.804688 485.628906 268.734375 Z M 493.089844 258.460938 C 494.132812 259.238281 493.007812 259.746094 492.449219 260.226562 C 492.019531 261.03125 491.617188 261.859375 490.441406 261.644531 C 490.574219 261.9375 490.335938 262.339844 490.230469 262.261719 C 489.558594 261.726562 490.253906 261.804688 490.523438 261.726562 C 490.335938 260.683594 491.109375 260.175781 491.726562 259.585938 C 492.074219 259.023438 492.449219 257.980469 493.089844 258.460938 Z M 420.53125 408.183594 C 436.8125 391.757812 455.527344 378.570312 475.175781 366.558594 C 487.5 359.042969 500.226562 352.167969 512.3125 344.25 C 513.730469 343.3125 515.253906 342.511719 516.320312 341.121094 C 516.9375 340.316406 517.339844 339.433594 516.160156 338.5 C 510.039062 343.609375 503.089844 347.433594 496.296875 351.445312 C 480.070312 360.996094 463.734375 370.386719 448.546875 381.59375 C 437.347656 389.859375 426.707031 398.714844 417.214844 408.960938 C 415.824219 410.457031 414.222656 411.902344 414.59375 414.628906 C 416.546875 412.492188 418.472656 410.242188 420.53125 408.183594 Z M 477.691406 175.480469 C 473.492188 169.089844 468.785156 163.070312 463.707031 157.371094 C 458.519531 151.515625 452.640625 146.457031 445.609375 142.902344 C 444.429688 142.3125 443.308594 141.054688 441.195312 142.417969 C 444.992188 144.933594 448.949219 146.777344 452.265625 149.507812 C 455.765625 152.398438 459.1875 155.339844 462.101562 158.816406 C 464.910156 162.1875 467.664062 165.585938 470.3125 169.089844 C 472.984375 172.648438 475.496094 176.339844 478.492188 180.539062 C 479.75 177.863281 478.492188 176.710938 477.691406 175.480469 Z M 212.773438 782.019531 C 204.886719 789.5625 197 797.105469 189.113281 804.648438 C 188.523438 805.210938 187.828125 805.855469 188.925781 807.109375 C 198.015625 799.675781 206.410156 791.542969 214.484375 783.0625 C 214.859375 782.660156 214.75 781.992188 214.269531 781.539062 C 213.65625 781.351562 213.199219 781.617188 212.773438 782.019531 Z M 372.886719 357.359375 C 368.128906 370.171875 362.085938 382.316406 354.121094 393.445312 C 350.75 398.179688 347.195312 402.78125 343.71875 407.433594 C 343.050781 408.34375 342.355469 409.253906 341.796875 410.214844 C 341.289062 411.152344 341.609375 411.847656 342.757812 412.0625 C 357.167969 394.328125 369.679688 375.546875 375.5625 353.132812 C 373.664062 354.066406 373.449219 355.832031 372.886719 357.359375 Z M 353.292969 420.328125 C 358.476562 412.4375 364.144531 404.8125 367.460938 395.851562 C 367.730469 395.128906 368.398438 394.378906 367.515625 393.605469 C 367.246094 393.683594 366.820312 393.710938 366.738281 393.871094 C 362.300781 403.449219 356.5 412.25 349.84375 421.664062 C 352.917969 420.78125 352.972656 420.808594 353.292969 420.328125 Z M 273.515625 220.476562 C 274.851562 216.304688 276.082031 212.101562 277.738281 208.0625 C 282.042969 197.523438 288.273438 188.082031 295.007812 178.960938 C 295.4375 178.371094 296.558594 177.996094 295.839844 176.898438 C 291.292969 179.066406 281.75 193.617188 275.492188 207.824219 C 274.449219 210.898438 273.378906 213.976562 272.390625 217.078125 C 271.644531 219.351562 270.441406 221.519531 270.894531 224.035156 C 272.632812 223.472656 273.03125 221.972656 273.515625 220.476562 Z M 339.015625 235.964844 C 343.320312 227.992188 347.328125 219.914062 348.988281 210.898438 C 349.148438 210.070312 349.574219 208.894531 347.730469 208.304688 C 345.914062 218.578125 341.261719 227.671875 336.207031 236.847656 C 337.972656 237.703125 338.5625 236.820312 339.015625 235.964844 Z M 262.339844 132.253906 C 264.824219 134.527344 267.953125 134.5 270.628906 135.464844 C 273.300781 136.425781 275.894531 137.46875 278.460938 138.648438 C 281.027344 139.851562 283.164062 142.125 286.480469 142.390625 C 283.808594 137.84375 268.355469 131.425781 262.339844 132.253906 Z M 274.074219 117.621094 C 273.59375 117.40625 272.980469 117.753906 272.792969 118.796875 C 277.578125 121.417969 282.46875 124.09375 287.363281 126.714844 C 287.710938 126.902344 288.136719 126.554688 288.433594 125.914062 C 284.019531 122.515625 279.234375 119.734375 274.074219 117.621094 Z M 371.257812 581.363281 C 368.691406 576.015625 366.203125 570.613281 363.476562 565.339844 C 360.671875 559.882812 356.875 555.121094 352.300781 551.003906 C 348.828125 547.875 345.21875 544.929688 341.636719 541.933594 C 340.941406 541.347656 340.21875 540.515625 338.480469 541.292969 C 345.085938 547.738281 352.648438 552.796875 357.863281 560.230469 C 363.078125 567.667969 366.070312 576.28125 370.429688 584.414062 C 372.621094 583.398438 371.710938 582.300781 371.257812 581.363281 Z M 331.046875 674.484375 C 334.121094 676.488281 337.25 678.46875 340.296875 680.527344 C 345.511719 684.03125 350.058594 688.257812 354.175781 692.996094 C 354.949219 693.902344 355.671875 695.480469 357.890625 694.386719 C 350.296875 684.460938 340.621094 677.691406 329.472656 671.78125 C 329.472656 673.789062 330.378906 674.054688 331.046875 674.484375 Z M 333.535156 667.421875 C 340.164062 667.3125 346.449219 669.773438 353.746094 670.445312 C 349.523438 666.832031 337.652344 665.148438 333.535156 667.421875 Z M 436.332031 771.425781 C 435.261719 777.738281 437.640625 800.074219 439.726562 803.152344 C 440.339844 803.019531 440.820312 802.644531 440.769531 802.027344 C 439.644531 791.78125 438.46875 781.566406 437.292969 771.320312 C 436.972656 771.371094 436.652344 771.398438 436.332031 771.425781 Z M 448.65625 798.953125 C 447.507812 791.703125 446.355469 784.425781 445.179688 777.175781 C 444.914062 775.492188 445.101562 773.539062 443.28125 772.203125 C 442.535156 773.378906 442.773438 774.367188 442.90625 775.304688 C 443.816406 782.472656 444.832031 789.617188 445.714844 796.757812 C 445.957031 798.683594 447.132812 798.980469 448.65625 798.953125 C 448.683594 798.925781 448.65625 798.953125 448.65625 798.953125 Z M 453.976562 788.972656 C 453.734375 781.457031 451.890625 772.683594 450.097656 770.464844 C 449.539062 770.835938 449.617188 771.425781 449.644531 771.960938 C 449.886719 776.9375 451.140625 781.75 451.835938 786.671875 C 452.023438 787.902344 452.71875 788.734375 453.949219 789.027344 C 453.949219 789.027344 453.976562 788.972656 453.976562 788.972656 Z M 204.726562 391.597656 C 201.652344 393.175781 196.597656 399.835938 194.511719 405.320312 C 197.238281 404.171875 203.921875 394.863281 204.726562 391.597656 Z M 237.34375 209.777344 C 239.347656 209.695312 241.296875 209.375 243.0625 208.4375 C 245.253906 207.261719 246.269531 204.347656 244.828125 202.660156 C 242.957031 200.46875 240.496094 199.050781 236.914062 199.101562 C 238.089844 201.054688 239.800781 201.214844 241.003906 202.046875 C 242.046875 202.742188 243.519531 203.25 243.277344 204.773438 C 243.007812 206.621094 241.433594 207.128906 239.800781 207.289062 C 238.546875 207.394531 237.261719 207.421875 235.976562 207.421875 C 233.707031 207.421875 231.433594 207.234375 229.1875 207.421875 C 227.796875 207.527344 226.675781 207.554688 225.285156 206.859375 C 222.421875 205.441406 219.296875 205.09375 216.113281 205.816406 C 216.195312 206.914062 216.808594 207.019531 217.34375 207.074219 C 220.019531 207.316406 222.585938 208.199219 225.230469 208.652344 C 228.386719 209.1875 229.964844 211.515625 231.515625 213.789062 C 232.316406 214.9375 232.234375 216.703125 230.898438 217.640625 C 228.921875 219.003906 226.78125 220.128906 224.214844 219.726562 C 222.128906 219.40625 220.019531 219.140625 217.933594 218.84375 C 217.128906 218.738281 216.542969 218.871094 216.488281 219.859375 C 217.183594 221.066406 218.441406 220.769531 219.507812 220.878906 C 222.289062 221.117188 224.5625 222.402344 226.648438 224.140625 C 229.054688 226.148438 229.292969 228.234375 227.34375 230.722656 C 226.726562 231.496094 225.925781 232.140625 225.445312 232.996094 C 224.402344 234.839844 225.042969 236.179688 227.824219 237.515625 C 226.996094 234.574219 228.574219 232.835938 230.148438 230.882812 C 231.59375 229.117188 231.273438 226.84375 230.285156 224.835938 C 229.800781 223.847656 229.082031 222.992188 228.464844 222.082031 C 235.46875 217.027344 235.46875 217.027344 232.34375 209.9375 C 233.972656 209.269531 235.65625 209.828125 237.34375 209.777344 Z M 245.308594 225.316406 C 246.21875 222.347656 247.152344 219.40625 247.875 216.410156 C 248.542969 213.65625 250.65625 211.40625 250.46875 208.332031 C 247.367188 211.300781 245.84375 215.207031 244.773438 219.164062 C 243.542969 223.738281 241.832031 228.3125 242.714844 233.261719 C 244.960938 231.015625 244.507812 227.964844 245.308594 225.316406 Z M 353.667969 135.492188 C 358.503906 130.382812 360.457031 123.882812 361.980469 117.21875 C 362.222656 116.175781 361.792969 115.1875 360.671875 114.839844 C 359.519531 114.492188 358.71875 115.242188 358.292969 116.148438 C 357.648438 117.542969 357.140625 119.039062 356.6875 120.511719 C 355.777344 123.480469 354.949219 126.503906 353.265625 129.152344 C 350.671875 133.214844 347.167969 134.261719 342.703125 132.28125 C 342.332031 132.121094 341.984375 131.800781 341.582031 131.691406 C 340.484375 131.34375 339.28125 131.050781 338.480469 132.148438 C 337.730469 133.136719 337.917969 134.367188 338.5625 135.355469 C 340.246094 137.953125 342.679688 139.128906 345.539062 139.023438 C 348.558594 138.996094 351.261719 138.003906 353.667969 135.492188 Z M 327.359375 104.164062 C 326.609375 104.996094 325.753906 105.769531 325.488281 106.949219 C 325.167969 108.5 326.183594 109.542969 327.652344 109.007812 C 328.695312 108.632812 329.632812 107.964844 330.621094 107.402344 C 334.445312 105.210938 338.398438 103.523438 342.890625 102.933594 C 345.859375 102.5625 348.828125 102.667969 351.769531 102.320312 C 353.15625 102.160156 354.226562 101.542969 354.28125 99.964844 C 354.335938 98.414062 353.371094 97.640625 351.980469 97.398438 C 350.03125 97.078125 348.078125 96.863281 346.769531 96.675781 C 337.730469 96.890625 331.609375 99.40625 327.359375 104.164062 Z M 313.695312 167.910156 C 316.558594 169.167969 319.097656 168.445312 321.71875 167.003906 C 326.074219 164.621094 329.632812 154.617188 328.777344 149.214844 C 328.640625 148.304688 328.132812 147.636719 327.144531 147.554688 C 326.183594 147.476562 325.59375 147.984375 325.140625 148.8125 C 324.417969 150.121094 324.445312 151.539062 324.363281 152.933594 C 324.175781 156.167969 323.160156 159.03125 320.808594 161.304688 C 318.589844 163.417969 316.933594 163.578125 314.445312 161.785156 C 313.269531 160.929688 312.28125 159.914062 310.703125 160.742188 C 309.714844 164.460938 310.597656 166.519531 313.695312 167.910156 Z M 303.269531 147.847656 C 304.554688 142.5 305.917969 137.175781 308.644531 132.335938 C 308.859375 131.960938 309.019531 131.558594 309.125 131.15625 C 309.339844 130.140625 309.367188 129.152344 308.324219 128.535156 C 307.199219 127.867188 306.425781 128.640625 305.785156 129.390625 C 301.425781 134.367188 299.421875 140.253906 299.074219 146.753906 C 298.992188 148.332031 299.367188 149.855469 301.210938 150.605469 C 302.84375 150.070312 303.003906 148.972656 303.269531 147.847656 Z M 359.867188 164.59375 C 357.757812 164.058594 355.457031 165.023438 354.574219 167.054688 C 353.667969 169.117188 353.210938 171.335938 353.425781 173.636719 C 353.585938 175.347656 354.335938 176.632812 355.964844 177.195312 C 357.542969 177.730469 358.984375 177.328125 360.214844 176.125 C 362.113281 174.226562 362.890625 171.871094 363.238281 169.304688 C 363.398438 167.164062 361.953125 165.128906 359.867188 164.59375 Z M 356.847656 169.972656 C 356.925781 168.847656 357.757812 168.046875 358.746094 168.207031 C 360.136719 168.421875 360.269531 169.675781 359.84375 170.828125 C 359.414062 171.953125 359.066406 173.234375 357.328125 173.714844 C 356.472656 172.40625 356.765625 171.148438 356.847656 169.972656 Z M 345.59375 154.964844 C 346.207031 154.671875 346.449219 153.816406 346.125 153.09375 C 345.832031 152.421875 345.269531 152.023438 344.496094 151.886719 C 342.035156 151.539062 339.925781 152.398438 338.425781 154.214844 C 336.929688 156.0625 334.792969 157.90625 336.476562 161.707031 C 339.765625 159.191406 342.304688 156.542969 345.59375 154.964844 Z M 345.59375 154.964844 " fill-opacity="1" fill-rule="nonzero"/><path fill="#99543c" d="M 404.785156 554.828125 C 402.726562 554.375 400.773438 553.277344 398.527344 553.757812 C 397.589844 552.554688 396.175781 552.289062 394.8125 551.886719 C 389.382812 550.28125 383.984375 548.621094 378.554688 547.070312 C 364.839844 543.113281 351.152344 539.019531 337.839844 533.777344 C 336.128906 533.109375 334.445312 531.929688 332.199219 532.011719 C 332.570312 535.59375 333.5625 538.671875 333.910156 541.882812 C 334.683594 548.757812 335.914062 555.550781 336.609375 562.453125 C 337.464844 571.144531 339.121094 579.785156 339.601562 588.480469 C 340.058594 597.066406 340.191406 605.707031 339.09375 614.347656 C 337.410156 627.722656 334.710938 640.832031 330.433594 653.5625 C 326.101562 666.429688 321.449219 679.21875 317.121094 692.085938 C 313.347656 703.265625 311.128906 714.742188 311.636719 726.644531 C 311.746094 728.917969 311.53125 731.195312 311.664062 733.441406 C 312.308594 744.890625 308.269531 755.109375 303.539062 765.140625 C 302.363281 767.65625 300.488281 769.6875 298.03125 770.863281 C 293.804688 772.84375 289.449219 774.476562 284.796875 775.226562 C 279.234375 776.132812 273.703125 777.257812 268.246094 778.78125 C 266.832031 778.515625 265.226562 778.300781 264.105469 779.15625 C 261.136719 781.429688 257.394531 782.152344 254.398438 784.320312 C 248.035156 786.753906 242.339844 790.472656 236.433594 793.816406 C 228.574219 798.257812 220.875 802.992188 212.292969 806.121094 C 205.527344 808.582031 198.65625 809.839844 191.519531 809.199219 C 186.867188 808.769531 182.214844 807.96875 179.433594 803.417969 C 185.503906 798.898438 190.851562 793.628906 196.171875 787.636719 C 193.683594 786.835938 192.933594 788.304688 192 789.1875 C 187.425781 793.414062 183.523438 798.308594 178.203125 801.707031 C 176.921875 800.050781 176.011719 798.257812 176.332031 796.0625 C 177.214844 796.195312 178.070312 796.0625 178.710938 795.476562 C 182.082031 792.480469 185.421875 789.484375 188.710938 786.40625 C 189.21875 785.925781 189.324219 785.148438 188.203125 784.507812 C 184.03125 788.039062 179.515625 791.328125 176.304688 796.007812 C 174.59375 793.148438 176.117188 790.765625 177.695312 788.679688 C 181.089844 784.160156 184.648438 779.71875 188.335938 775.410156 C 203.335938 757.835938 218.546875 740.449219 233.039062 722.417969 C 236.78125 717.792969 240.203125 712.894531 243.890625 708.242188 C 244.960938 706.878906 245.121094 705.460938 245.253906 703.910156 C 246.136719 693.769531 247.101562 683.660156 247.957031 673.519531 C 249.347656 657.628906 250.65625 641.714844 252.046875 625.824219 C 253.167969 612.742188 254.371094 599.636719 255.46875 586.554688 C 255.601562 585.003906 255.414062 583.453125 255.386719 581.898438 C 255.871094 581.550781 256.191406 581.097656 256.21875 580.480469 C 256.511719 570.316406 257.234375 560.179688 257.953125 550.039062 C 258.300781 545.253906 258.355469 540.464844 258.648438 535.675781 C 259.132812 528.480469 259.613281 521.335938 260.414062 514.167969 C 261.699219 502.878906 263.917969 491.859375 268.140625 481.292969 C 272.125 471.339844 279.15625 464.359375 288.832031 459.890625 C 299.3125 455.050781 310.597656 454.058594 321.851562 453.363281 C 329.472656 452.882812 337.144531 453.3125 344.789062 453.3125 C 345.941406 455.585938 347.0625 457.859375 348.292969 460.105469 C 350.40625 463.929688 351.367188 467.757812 350.242188 472.277344 C 348.507812 479.234375 351.207031 484.796875 357.300781 488.542969 C 358.15625 489.050781 358.984375 489.613281 359.894531 489.984375 C 366.660156 492.820312 369.972656 498.144531 370.160156 505.261719 C 370.402344 513.578125 374.386719 519.382812 381.175781 523.71875 C 385.933594 526.769531 390.558594 530.085938 395.292969 533.1875 C 398.019531 534.980469 399.917969 537.335938 400.773438 540.492188 C 402.164062 545.277344 403.472656 550.039062 404.785156 554.828125 Z M 214.269531 781.511719 C 213.65625 781.324219 213.199219 781.617188 212.773438 782.019531 C 204.886719 789.5625 197 797.105469 189.113281 804.648438 C 188.523438 805.210938 187.828125 805.855469 188.925781 807.109375 C 198.015625 799.675781 206.410156 791.542969 214.484375 783.0625 C 214.859375 782.660156 214.75 781.964844 214.269531 781.511719 Z M 378.957031 680.554688 C 380.988281 672.046875 383.128906 663.542969 385.054688 655.007812 C 388.316406 640.5625 391.601562 626.089844 393.582031 611.378906 C 393.820312 609.667969 393.742188 607.660156 395.265625 606.269531 C 404.863281 613.894531 412.589844 623.363281 420.851562 632.324219 C 426.226562 638.15625 431.519531 644.175781 439.136719 647.222656 C 441.757812 648.269531 444.429688 649.257812 447.132812 650.113281 C 463.789062 655.304688 469.535156 668.730469 467.050781 683.84375 C 465.5 693.234375 462.746094 702.328125 460.445312 711.53125 C 457.558594 723.0625 456.703125 734.644531 457.878906 746.496094 C 459.164062 759.496094 459.136719 772.523438 455.765625 785.335938 C 455.417969 786.648438 455.5 788.199219 454.003906 788.972656 C 453.761719 781.457031 451.917969 772.683594 450.125 770.464844 C 449.566406 770.835938 449.644531 771.425781 449.671875 771.960938 C 449.914062 776.9375 451.167969 781.75 451.863281 786.671875 C 452.050781 787.902344 452.746094 788.734375 453.976562 789.027344 C 453.496094 793.011719 451.542969 796.25 448.683594 798.980469 C 447.53125 791.730469 446.382812 784.453125 445.207031 777.203125 C 444.9375 775.519531 445.125 773.566406 443.308594 772.230469 C 442.558594 773.40625 442.800781 774.394531 442.933594 775.332031 C 443.84375 782.5 444.859375 789.644531 445.742188 796.785156 C 445.980469 798.683594 447.160156 799.003906 448.710938 798.953125 C 448.789062 800.101562 447.933594 800.746094 447.292969 801.441406 C 442.695312 806.574219 437.746094 806.066406 434.246094 800.15625 C 432.132812 796.570312 431.039062 792.585938 430.289062 788.574219 C 427.882812 775.921875 424.808594 763.453125 421.546875 751.015625 C 418.175781 738.148438 416.171875 725.015625 414.007812 711.90625 C 413.019531 705.859375 410.128906 701.234375 405.183594 697.542969 C 397.566406 691.898438 389.171875 687.402344 381.792969 681.382812 C 380.9375 680.714844 379.945312 680.6875 378.957031 680.554688 Z M 437.292969 771.347656 C 436.972656 771.371094 436.652344 771.425781 436.332031 771.453125 C 435.261719 777.765625 437.640625 800.101562 439.726562 803.179688 C 440.339844 803.046875 440.820312 802.671875 440.769531 802.054688 C 439.621094 791.808594 438.441406 781.566406 437.292969 771.347656 Z M 237.851562 337.589844 C 244.773438 334.324219 251.058594 329.964844 257.5 325.871094 C 270.628906 317.527344 283.511719 308.777344 296.855469 300.78125 C 298.324219 299.898438 299.6875 298.855469 301.53125 299.042969 C 303.296875 300.808594 301.667969 302.117188 300.890625 303.507812 C 298.859375 307.199219 299.234375 309.660156 302.894531 311.722656 C 306.90625 313.96875 307.148438 316.054688 305.675781 320.175781 C 305.4375 320.84375 305.167969 321.484375 304.953125 322.15625 C 303.402344 326.914062 304.179688 329.296875 308.699219 331.515625 C 311.316406 332.800781 312.253906 334.539062 311.824219 337.214844 C 311.636719 338.472656 311.34375 339.703125 311.128906 340.960938 C 310.648438 344.007812 311.265625 345.320312 314.042969 346.765625 C 314.925781 347.21875 315.890625 347.488281 316.210938 348.582031 C 307.441406 351.285156 298.832031 354.441406 290.25 357.597656 C 273.007812 363.910156 256.402344 371.828125 239.5625 379.105469 C 236.996094 380.230469 234.105469 380.578125 231.78125 382.289062 C 229.75 382.609375 229.214844 383.949219 228.921875 385.875 C 228.011719 392.375 224.964844 397.882812 220.738281 402.832031 C 216.996094 407.195312 212.425781 409.574219 206.597656 408.984375 C 204.03125 408.71875 201.492188 408.878906 199.003906 409.28125 C 195.019531 409.921875 192.078125 408.503906 190.019531 405.1875 C 189.191406 403.875 188.390625 402.566406 187.292969 401.441406 C 188.65625 396.414062 192.480469 392.667969 194.832031 388.011719 C 192.800781 387.503906 192.160156 388.789062 191.492188 389.753906 C 189.886719 392.078125 188.417969 394.488281 186.894531 396.867188 C 186.039062 398.207031 185.449219 399.625 185.742188 401.253906 C 179.863281 401.335938 177.9375 399.703125 177.589844 394.40625 C 179.433594 392.292969 181.359375 390.289062 183.097656 388.09375 C 184.699219 386.085938 187.613281 385.070312 188.257812 381.539062 C 182.910156 384.429688 179.78125 388.761719 176.386719 392.773438 C 174.355469 392.722656 171.839844 393.65625 170.71875 391.171875 C 169.730469 389.003906 170.183594 386.621094 171.652344 384.75 C 179.648438 374.664062 187.828125 364.742188 198.121094 356.875 C 202.078125 353.851562 206.625 352.007812 211.488281 350.671875 C 221.058594 348.023438 229.800781 343.449219 237.851562 337.589844 Z M 194.511719 405.320312 C 197.210938 404.171875 203.921875 394.863281 204.726562 391.597656 C 201.652344 393.203125 196.625 399.835938 194.511719 405.320312 Z M 270.894531 224.035156 C 268.835938 231.472656 265.628906 238.480469 262.6875 245.59375 C 262.417969 246.210938 261.882812 246.71875 261.457031 247.253906 C 258.648438 247.574219 255.816406 247.761719 253.0625 248.269531 C 246.726562 249.445312 240.441406 249.367188 234.1875 247.867188 C 230.738281 247.039062 227.34375 246.101562 223.921875 245.195312 C 220.152344 244.175781 217.449219 241.902344 215.714844 238.371094 C 212.746094 232.378906 211.007812 226.253906 212.824219 219.539062 C 213.84375 215.769531 214.054688 212.078125 212.585938 208.304688 C 211.460938 205.441406 212.773438 203.035156 214.699219 200.976562 C 218.011719 197.472656 221.433594 194.101562 225.765625 191.800781 C 233.597656 194.019531 241.699219 195.25 249.238281 198.488281 C 249.613281 198.648438 250.066406 198.648438 250.496094 198.726562 C 251.351562 198.914062 252.179688 199.101562 252.609375 197.898438 C 252.394531 197.632812 252.179688 197.175781 251.859375 197.042969 C 243.730469 193.832031 235.285156 191.746094 226.648438 190.355469 C 226.328125 190.300781 225.925781 190.757812 225.578125 190.972656 C 222.664062 189.445312 221.835938 186.929688 222.238281 183.855469 C 222.71875 180.136719 226.378906 177.808594 231.003906 178.691406 C 236.832031 179.789062 242.714844 180.511719 248.570312 181.261719 C 251.914062 184.28125 254.667969 187.839844 258.089844 190.808594 C 262.257812 194.394531 266.296875 198.113281 270.574219 201.5625 C 272.710938 203.277344 274.183594 205.441406 275.464844 207.796875 C 274.421875 210.871094 273.355469 213.949219 272.363281 217.050781 C 271.644531 219.324219 270.441406 221.492188 270.894531 224.035156 Z M 232.316406 209.910156 C 233.972656 209.269531 235.65625 209.828125 237.34375 209.777344 C 239.347656 209.695312 241.296875 209.375 243.0625 208.4375 C 245.253906 207.261719 246.269531 204.347656 244.828125 202.660156 C 242.957031 200.46875 240.496094 199.050781 236.914062 199.101562 C 238.089844 201.054688 239.800781 201.214844 241.003906 202.046875 C 242.046875 202.742188 243.519531 203.25 243.277344 204.773438 C 243.007812 206.621094 241.433594 207.128906 239.800781 207.289062 C 238.546875 207.394531 237.261719 207.421875 235.976562 207.421875 C 233.707031 207.421875 231.433594 207.234375 229.1875 207.421875 C 227.796875 207.527344 226.675781 207.554688 225.285156 206.859375 C 222.421875 205.441406 219.296875 205.09375 216.113281 205.816406 C 216.195312 206.914062 216.808594 207.019531 217.34375 207.074219 C 220.019531 207.316406 222.585938 208.199219 225.230469 208.652344 C 228.386719 209.1875 229.964844 211.515625 231.515625 213.789062 C 232.316406 214.9375 232.234375 216.703125 230.898438 217.640625 C 228.921875 219.003906 226.78125 220.128906 224.214844 219.726562 C 222.128906 219.40625 220.019531 219.140625 217.933594 218.84375 C 217.128906 218.738281 216.542969 218.871094 216.488281 219.859375 C 217.183594 221.066406 218.441406 220.769531 219.507812 220.878906 C 222.289062 221.117188 224.5625 222.402344 226.648438 224.140625 C 229.054688 226.148438 229.292969 228.234375 227.34375 230.722656 C 226.726562 231.496094 225.925781 232.140625 225.445312 232.996094 C 224.402344 234.839844 225.042969 236.179688 227.824219 237.515625 C 226.996094 234.574219 228.574219 232.835938 230.148438 230.882812 C 231.59375 229.117188 231.273438 226.84375 230.285156 224.835938 C 229.800781 223.847656 229.082031 222.992188 228.464844 222.082031 C 235.417969 216.972656 235.417969 216.972656 232.316406 209.910156 Z M 242.6875 233.234375 C 244.960938 231.015625 244.507812 227.941406 245.308594 225.292969 C 246.21875 222.320312 247.152344 219.378906 247.875 216.382812 C 248.542969 213.628906 250.65625 211.382812 250.46875 208.304688 C 247.367188 211.273438 245.84375 215.179688 244.773438 219.140625 C 243.519531 223.714844 241.832031 228.289062 242.6875 233.234375 Z M 371.203125 199.425781 C 366.792969 200.921875 362.59375 202.953125 358.078125 204.183594 C 343.507812 208.089844 330.886719 204.210938 319.953125 194.527344 C 306.558594 182.679688 298.964844 167.324219 294.714844 150.203125 C 292.203125 140.066406 290.089844 129.847656 289.527344 119.359375 C 289.503906 118.691406 289.128906 118.023438 288.914062 117.355469 C 289.957031 116.285156 289.503906 114.945312 289.503906 113.714844 C 289.582031 103.550781 293.859375 95.390625 301.585938 89.023438 C 304.742188 86.429688 308.351562 84.34375 311.664062 81.964844 C 318.992188 76.667969 324.042969 69.980469 324.632812 60.5625 C 324.710938 59.171875 324.980469 57.808594 325.914062 56.628906 C 327.546875 56.84375 327.972656 58.183594 328.453125 59.253906 C 332.917969 69.070312 341.074219 74.257812 350.992188 77.042969 C 355.886719 78.40625 360.882812 79.394531 365.910156 80.25 C 376.285156 81.988281 383.851562 87.5 388.929688 96.621094 C 390.453125 99.351562 392.21875 101.917969 394.304688 104.246094 C 400.265625 110.90625 409.195312 112.671875 416.628906 108.714844 C 418.417969 107.777344 420.074219 106.707031 420.558594 104.40625 C 419.726562 102.722656 417.992188 101.917969 416.546875 100.820312 C 414.195312 99.03125 413.152344 96.515625 413.285156 93.785156 C 413.632812 86.910156 415.71875 80.679688 421.546875 76.34375 C 426.785156 72.464844 432.507812 70.433594 439.03125 72.789062 C 442.480469 74.019531 445.261719 76.265625 447.050781 79.421875 C 453.574219 90.898438 453.199219 104.941406 442.453125 114.25 C 439.457031 116.84375 438.070312 119.601562 438.601562 123.453125 C 438.976562 126.101562 439.164062 128.804688 439.566406 131.453125 C 439.832031 133.164062 440.796875 134.285156 442.746094 134.097656 C 433.65625 137.496094 425.929688 143.113281 418.578125 149.238281 C 414.246094 152.851562 409.996094 156.570312 405.824219 160.367188 C 396.898438 168.5 390.078125 178.398438 382.941406 188.054688 C 380.9375 190.757812 378.796875 193.378906 376.710938 196.027344 C 374.546875 196.613281 372.835938 197.980469 371.203125 199.425781 Z M 389.171875 134.125 C 389.222656 129.175781 386.84375 124.683594 383.019531 122.8125 C 379.039062 120.859375 375.640625 122.410156 372.378906 124.710938 C 372.273438 124.789062 372.167969 124.898438 372.03125 124.976562 C 363.289062 130.917969 363.265625 142.203125 372.113281 147.769531 C 374.253906 149.132812 376.683594 149.800781 379.359375 148.707031 C 384.707031 146.539062 389.0625 140.734375 389.171875 134.125 Z M 317.679688 180.21875 C 317.652344 183.667969 318.722656 186.636719 320.941406 188.617188 C 322.894531 190.355469 325.140625 191.480469 327.894531 190.515625 C 333.5625 188.535156 337.171875 182.679688 336.316406 176.820312 C 335.671875 172.40625 332.707031 169.890625 328.269531 169.652344 C 322.464844 169.328125 317.253906 174.066406 317.679688 180.21875 Z M 345.539062 139.023438 C 348.558594 138.996094 351.285156 138.003906 353.667969 135.492188 C 358.503906 130.382812 360.457031 123.882812 361.980469 117.21875 C 362.222656 116.175781 361.792969 115.1875 360.671875 114.839844 C 359.519531 114.492188 358.71875 115.242188 358.292969 116.148438 C 357.648438 117.542969 357.140625 119.039062 356.6875 120.511719 C 355.777344 123.480469 354.949219 126.503906 353.265625 129.152344 C 350.671875 133.214844 347.167969 134.261719 342.703125 132.28125 C 342.332031 132.121094 341.984375 131.800781 341.582031 131.691406 C 340.484375 131.34375 339.28125 131.050781 338.480469 132.148438 C 337.730469 133.136719 337.917969 134.367188 338.5625 135.355469 C 340.21875 137.925781 342.679688 139.101562 345.539062 139.023438 Z M 346.796875 96.703125 C 337.730469 96.890625 331.609375 99.40625 327.386719 104.164062 C 326.636719 104.996094 325.78125 105.769531 325.515625 106.949219 C 325.191406 108.5 326.210938 109.542969 327.679688 109.007812 C 328.722656 108.632812 329.65625 107.964844 330.648438 107.402344 C 334.46875 105.210938 338.425781 103.523438 342.917969 102.933594 C 345.886719 102.5625 348.855469 102.667969 351.792969 102.320312 C 353.183594 102.160156 354.253906 101.542969 354.308594 99.964844 C 354.359375 98.414062 353.398438 97.640625 352.007812 97.398438 C 350.058594 97.105469 348.105469 96.863281 346.796875 96.703125 Z M 310.730469 160.742188 C 309.714844 164.433594 310.597656 166.519531 313.695312 167.910156 C 316.558594 169.167969 319.097656 168.445312 321.71875 167.003906 C 326.074219 164.621094 329.632812 154.617188 328.777344 149.214844 C 328.640625 148.304688 328.132812 147.636719 327.144531 147.554688 C 326.183594 147.476562 325.59375 147.984375 325.140625 148.8125 C 324.417969 150.121094 324.445312 151.539062 324.363281 152.933594 C 324.175781 156.167969 323.160156 159.03125 320.808594 161.304688 C 318.589844 163.417969 316.933594 163.578125 314.445312 161.785156 C 313.296875 160.929688 312.308594 159.886719 310.730469 160.742188 Z M 301.238281 150.632812 C 302.84375 150.070312 303.003906 148.972656 303.269531 147.847656 C 304.554688 142.5 305.917969 137.175781 308.644531 132.335938 C 308.859375 131.960938 309.019531 131.558594 309.125 131.15625 C 309.339844 130.140625 309.367188 129.152344 308.324219 128.535156 C 307.199219 127.867188 306.425781 128.640625 305.785156 129.390625 C 301.425781 134.367188 299.421875 140.253906 299.074219 146.753906 C 298.992188 148.359375 299.394531 149.910156 301.238281 150.632812 Z M 363.210938 169.304688 C 363.398438 167.164062 361.953125 165.128906 359.867188 164.621094 C 357.757812 164.085938 355.457031 165.050781 354.574219 167.082031 C 353.667969 169.140625 353.210938 171.363281 353.425781 173.664062 C 353.585938 175.375 354.335938 176.660156 355.964844 177.222656 C 357.542969 177.757812 358.984375 177.355469 360.214844 176.152344 C 362.085938 174.226562 362.863281 171.871094 363.210938 169.304688 Z M 336.503906 161.734375 C 339.789062 159.191406 342.304688 156.542969 345.59375 154.964844 C 346.207031 154.671875 346.449219 153.816406 346.125 153.09375 C 345.832031 152.421875 345.269531 152.023438 344.496094 151.886719 C 342.035156 151.539062 339.925781 152.398438 338.425781 154.214844 C 336.929688 156.089844 334.792969 157.90625 336.503906 161.734375 Z M 359.84375 170.828125 C 360.269531 169.703125 360.136719 168.445312 358.746094 168.207031 C 357.757812 168.046875 356.902344 168.847656 356.847656 169.972656 C 356.765625 171.175781 356.472656 172.433594 357.328125 173.714844 C 359.066406 173.207031 359.441406 171.953125 359.84375 170.828125 Z M 359.84375 170.828125 " fill-opacity="1" fill-rule="nonzero"/></svg>